<?xml version="1.0" encoding="UTF-8" standalone="no"?><svg xmlns="http://www.w3.org/2000/svg" xmlns:xlink="http://www.w3.org/1999/xlink" contentScriptType="text/ecmascript" fill="#000000" width="64" zoomAndPan="magnify" contentStyleType="text/css" viewBox="0.0 0.0 64.0 64.0" height="64" data-name="Circular Glyph" preserveAspectRatio="xMidYMid meet" version="1"><g id="change1_1"><path d="M32,0A32,32,0,1,0,64,32,32.004,32.004,0,0,0,32,0ZM51.42,45.85a12.67778,12.67778,0,0,1-16.75,4.7,50.32144,50.32144,0,0,1-12.24-8.98,50.17545,50.17545,0,0,1-8.99-12.28,12.65816,12.65816,0,0,1,4.72-16.71,4.049,4.049,0,0,1,5.55,1.38l2.6,4.35a4.06768,4.06768,0,0,1-2.3,5.95,2.74837,2.74837,0,0,0-1.6,4.03,39.01391,39.01391,0,0,0,5.83,7.47,38.49628,38.49628,0,0,0,7.49,5.84,2.68122,2.68122,0,0,0,2.34.22,2.74336,2.74336,0,0,0,1.71-1.94,4.06072,4.06072,0,0,1,5.91-2.19l4.35,2.6A4.06735,4.06735,0,0,1,51.42,45.85Z"/></g></svg>