<?xml version="1.0" encoding="UTF-8" standalone="no"?><svg xmlns="http://www.w3.org/2000/svg" xmlns:xlink="http://www.w3.org/1999/xlink" contentScriptType="text/ecmascript" fill="#000000" width="60" zoomAndPan="magnify" contentStyleType="text/css" viewBox="2.0 15.0 60.0 34.0" height="34" preserveAspectRatio="xMidYMid meet" version="1"><g fill="#100f0d" id="change1_1"><path fill="inherit" d="M 11 43 C 9.34375 43 8 41.65625 8 40 C 8 38.34375 9.34375 37 11 37 C 12.65625 37 14 38.34375 14 40 C 14 41.65625 12.65625 43 11 43 Z M 11 35 C 8.242188 35 6 37.242188 6 40 C 6 42.757812 8.242188 45 11 45 C 13.757812 45 16 42.757812 16 40 C 16 37.242188 13.757812 35 11 35"/><path fill="inherit" d="M 27 43 C 25.34375 43 24 41.65625 24 40 C 24 38.34375 25.34375 37 27 37 C 28.65625 37 30 38.34375 30 40 C 30 41.65625 28.65625 43 27 43 Z M 27 35 C 24.242188 35 22 37.242188 22 40 C 22 42.757812 24.242188 45 27 45 C 29.757812 45 32 42.757812 32 40 C 32 37.242188 29.757812 35 27 35"/><path fill="inherit" d="M 53 47 L 32.644531 47 C 34.6875 45.347656 36 42.828125 36 40 C 36 37.171875 34.6875 34.652344 32.644531 33 L 53 33 C 56.859375 33 60 36.140625 60 40 C 60 43.859375 56.859375 47 53 47 Z M 27 47 C 23.140625 47 20 43.859375 20 40 C 20 36.140625 23.140625 33 27 33 C 30.859375 33 34 36.140625 34 40 C 34 43.859375 30.859375 47 27 47 Z M 16.644531 47 C 17.617188 46.214844 18.421875 45.226562 19 44.105469 C 19.578125 45.226562 20.382812 46.214844 21.355469 47 Z M 11 47 C 7.140625 47 4 43.859375 4 40 C 4 36.140625 7.140625 33 11 33 C 14.859375 33 18 36.140625 18 40 C 18 43.859375 14.859375 47 11 47 Z M 21.355469 33 C 20.382812 33.785156 19.578125 34.773438 19 35.894531 C 18.421875 34.773438 17.617188 33.785156 16.644531 33 Z M 12 24 C 12 20.140625 15.140625 17 19 17 C 22.859375 17 26 20.140625 26 24 C 26 27.859375 22.859375 31 19 31 C 15.140625 31 12 27.859375 12 24 Z M 45 17 C 48.859375 17 52 20.140625 52 24 C 52 27.859375 48.859375 31 45 31 L 24.644531 31 C 26.6875 29.347656 28 26.828125 28 24 C 28 21.171875 26.6875 18.652344 24.644531 17 Z M 53 31 L 50.644531 31 C 52.6875 29.347656 54 26.828125 54 24 C 54 19.035156 49.960938 15 45 15 L 19 15 C 14.039062 15 10 19.035156 10 24 C 10 26.828125 11.3125 29.347656 13.355469 31 L 11 31 C 6.039062 31 2 35.035156 2 40 C 2 44.964844 6.039062 49 11 49 L 53 49 C 57.960938 49 62 44.964844 62 40 C 62 35.035156 57.960938 31 53 31"/><path fill="inherit" d="M 19 21 C 20.65625 21 22 22.34375 22 24 C 22 25.65625 20.65625 27 19 27 C 17.34375 27 16 25.65625 16 24 C 16 22.34375 17.34375 21 19 21 Z M 19 29 C 21.757812 29 24 26.757812 24 24 C 24 21.242188 21.757812 19 19 19 C 16.242188 19 14 21.242188 14 24 C 14 26.757812 16.242188 29 19 29"/></g></svg>