<?xml version="1.0" encoding="UTF-8" standalone="no"?><svg xmlns="http://www.w3.org/2000/svg" xmlns:xlink="http://www.w3.org/1999/xlink" contentScriptType="text/ecmascript" fill="#000000" width="1594.1" zoomAndPan="magnify" contentStyleType="text/css" viewBox="0.0 0.0 1594.1 503.4" height="503.4" data-name="Слой 2" preserveAspectRatio="xMidYMid meet" version="1"><g data-name="Слой 1"><g><g id="change1_1"><path fill="#e2f5ff" d="M1510.2 335.6L1426.3 335.6 1342.4 335.6 1258.5 335.6 1258.5 251.7 1174.6 251.7 1090.7 251.7 1090.7 167.8 1006.8 167.8 1006.8 83.9 922.9 83.9 839 83.9 839 0 755.1 0 671.2 0 587.3 0 587.3 83.9 503.4 83.9 419.5 83.9 419.5 167.8 419.5 251.7 335.6 251.7 251.7 251.7 251.7 335.6 167.8 335.6 83.9 335.6 83.9 419.5 0 419.5 0 503.4 83.9 503.4 167.8 503.4 251.7 503.4 335.6 503.4 419.5 503.4 503.4 503.4 587.3 503.4 671.2 503.4 755.1 503.4 839 503.4 922.9 503.4 1006.8 503.4 1090.7 503.4 1174.6 503.4 1258.5 503.4 1342.4 503.4 1426.3 503.4 1510.2 503.4 1594.1 503.4 1594.1 419.5 1510.2 419.5 1510.2 335.6z"/></g><g id="change2_1"><path fill="#c9eeff" d="M1510.2 419.5L1426.3 419.5 1342.4 419.5 1258.5 419.5 1174.6 419.5 1090.7 419.5 1006.8 419.5 922.9 419.5 839 419.5 755.1 419.5 755.1 419.5 755.1 335.6 755.1 251.7 671.2 251.7 671.2 335.6 587.3 335.6 587.3 419.5 503.4 419.5 419.5 419.5 335.6 419.5 251.7 419.5 167.8 419.5 83.9 419.5 0 419.5 0 503.4 83.9 503.4 167.8 503.4 251.7 503.4 335.6 503.4 419.5 503.4 503.4 503.4 587.3 503.4 671.2 503.4 755.1 503.4 839 503.4 922.9 503.4 1006.8 503.4 1090.7 503.4 1174.6 503.4 1258.5 503.4 1342.4 503.4 1426.3 503.4 1510.2 503.4 1594.1 503.4 1594.1 419.5 1510.2 419.5z"/></g><g id="change1_2"><path fill="#e2f5ff" d="M1090.7 335.6L1006.8 335.6 1006.8 251.7 922.9 251.7 839 251.7 839 167.8 839 83.9 755.1 83.9 671.2 83.9 671.2 167.8 587.3 167.8 587.3 251.7 503.4 251.7 503.4 335.6 419.5 335.6 335.6 335.6 335.6 419.5 419.5 419.5 503.4 419.5 587.3 419.5 587.3 335.6 671.2 335.6 671.2 251.7 755.1 251.7 755.1 335.6 755.1 419.5 839 419.5 922.9 419.5 1006.8 419.5 1090.7 419.5 1174.6 419.5 1174.6 335.6 1090.7 335.6z"/></g><g id="change3_1"><path fill="#ffffff" d="M1426.3 335.6L1342.4 335.6 1258.5 335.6 1258.5 251.7 1174.6 251.7 1090.7 251.7 1090.7 167.8 1006.8 167.8 1006.8 83.9 922.9 83.9 839 83.9 839 0 755.1 0 671.2 0 587.3 0 587.3 83.9 503.4 83.9 419.5 83.9 419.5 167.8 419.5 251.7 335.6 251.7 251.7 251.7 251.7 335.6 167.8 335.6 83.9 335.6 83.9 419.5 167.8 419.5 251.7 419.5 335.6 419.5 335.6 335.6 419.5 335.6 503.4 335.6 503.4 251.7 587.3 251.7 587.3 167.8 671.2 167.8 671.2 83.9 755.1 83.9 755.1 167.8 839 167.8 839 251.7 922.9 251.7 1006.8 251.7 1006.8 335.6 1090.7 335.6 1174.6 335.6 1174.6 419.5 1258.5 419.5 1342.4 419.5 1426.3 419.5 1510.2 419.5 1510.2 335.6 1426.3 335.6z"/></g></g></g></svg>