<?xml version="1.0" encoding="UTF-8" standalone="no"?><svg xmlns="http://www.w3.org/2000/svg" xmlns:xlink="http://www.w3.org/1999/xlink" contentScriptType="text/ecmascript" fill="#000000" width="2848.8" zoomAndPan="magnify" contentStyleType="text/css" viewBox="80.1 -0.0 2848.8 3000.0" height="3000" data-name="Layer 1" preserveAspectRatio="xMidYMid meet" version="1"><g id="change1_1"><path fill="#d6c5a9" d="M2872.61,2243.65c-4.54-11.49-9.21-22.84-13.73-33.82l-1.72-4.18c-18.74-45.43-36.44-88.34-40.73-128.12-3.22-30,.49-64.59,4.42-101.3,5.08-47.37,10.83-101.06,2.82-157.43-11-78-47.89-151.62-106.61-213A441.39,441.39,0,0,0,2507.18,1483a502,502,0,0,0-203.31-9.76c10-56.47,12.09-110.73,6.32-163.58-17.38-159.37-106.41-293-185-410.92-73.41-110.21-142.74-214.31-151.78-326.14-3-36.88.71-78.82,4.28-119.38,4.09-46.63,8.73-99.48,4.41-153.49-5.16-64.86-26.61-128.59-60.41-179.45C1878.34,55,1815.47,13.19,1744.66,2.6A241.1,241.1,0,0,0,1709.33,0c-63.14,0-127.84,24.59-182.18,69.23-51.16,42-86,94.23-114.56,139.85A2344.94,2344.94,0,0,0,1128.5,869.87C1012,800.67,915.67,697.57,856.34,576.23c-9.93-20.29-19.44-42.26-28.63-63.51C807.07,465,783.67,411,749.5,361.13,717.67,314.69,677.77,276,634.1,249.28c-47.14-28.87-98.94-44.13-149.79-44.13-2.69,0-5.37,0-8.05.13H476c-82.59,2.78-162.88,45.28-220.27,116.61-40.54,50.39-68.71,111.54-88.66,192.44-62.34,252.69-9.44,542.51,149,816.06,108.92,188.08,251.74,348,398.17,499-50.11-34.41-101.81-71.18-154.11-109.61-43.09-32.09-77.85-58.81-109.44-84.12-28.35-22.67-57.65-46.11-81-70.92-4.13-4.39-8.78-10-13.7-16-8-9.73-17.15-20.75-28.42-31.91-6.38-6.3-12.45-11.55-17.8-16.18-3.47-3-8.2-7.09-9.81-8.86-23.27-30.53-58.13-48-95.74-48-40.9,0-79.59,21.42-101,55.9-21.49,34.64-23.12,77.86-4.4,115.57,22.66,45.71,64.48,82.79,120.89,107.21,6.3,2.73,12.68,5.93,19.11,9.48a112.71,112.71,0,0,0-90.72,79.08c-13.92,47.17,4.94,97.11,46.95,124.26,26.72,17.27,53,27.3,76.12,36.16,6.08,2.32,11.81,4.52,17.27,6.73,25.78,10.47,52.27,22.23,78.73,35,20.88,10.06,42.24,20.69,62.9,31,31.5,15.68,64.06,31.88,97.18,47.2,121.58,56.24,230.66,99.48,333.5,132.19,13,4.13,26,8.17,38.64,12.08l16.89,5.24c.07,1.17.16,2.4.28,3.69l.09.92a220,220,0,0,0,3.62,23.8c.7,3.32,1.56,6.7,2.54,10.06,8.85,30.72,28.58,56,54.93,71.37,30.21,43,77.24,71.65,129.29,77.55,20.26,26.3,44.81,50.77,75.06,74.85,36.85,29.29,75.87,48.23,119.31,57.89,20.59,4.57,40.43,7.77,59.62,10.85,11.26,1.81,21.9,3.53,32.18,5.43,23.7,4.41,48.55,9.66,69.81,18.23a173.09,173.09,0,0,1,15.91,7.59c2.76,2.23,5.64,4.58,8.69,7.09,9.55,7.92,19.34,16.18,28.81,24.16,33.29,28.07,67.72,57.11,105.65,83.71,22.07,15.5,44.23,29.31,65.66,42.66,27.7,17.27,53.87,33.58,77,51.68a641.87,641.87,0,0,1,57.68,51.2c7.43,7.43,15.16,16.22,23.34,25.52,6.62,7.53,13.4,15.25,20.74,23.09,7.93,13.19,18.64,30.47,34.18,46.11,34.24,34.46,72.06,41.69,97.77,41.69,2.22,0,4.48-.05,6.76-.16,40.42-2,77.26-20.7,103.74-52.76a155.27,155.27,0,0,0,35.56-98.35c.1-57.62-30.83-103.92-53.68-132.55,103.92,26.35,202.59,43.65,298.94,52.69,36.15,3.4,66.55,5,95.65,5,72.09,0,134.47-9.86,190.7-30.17,116-41.91,204-133.92,229.48-240.11C2928.87,2406.46,2900.2,2313.68,2872.61,2243.65Z"/></g><g id="change2_1"><path fill="#554b39" d="M1555.8,2224.35a17.21,17.21,0,0,0-2.62,1.12c1-.64,1.9-1.29,2.85-1.94A3.05,3.05,0,0,0,1555.8,2224.35Zm2.54-1.69h0a11.47,11.47,0,0,1,.65-1.15l-1.53,1.06a3.17,3.17,0,0,1,.88.09Zm-366.43-900.3q1.56-10.18,3.22-20.35a42.06,42.06,0,0,0-6.13,16.4A7.42,7.42,0,0,1,1191.91,1322.36Zm384.33,900a7.18,7.18,0,0,1-2-.38,5.27,5.27,0,0,0,2,.38Zm183.45-95.44-1.21-.66,1,.89Zm28.85-712.14a22.76,22.76,0,0,0,5.17-4.31l-5.15,4.28Zm-24.27,707.73c.09,0,.18,0,.26,0l-.8-.62.54.65Zm-496.89-65.69a17.15,17.15,0,0,1-5.18-5.88c-1.94,16-3.56,32.57-4.61,49.23,2.38-.61,4.74.15,7.05,1.2,4.16,1.9,2.7,4.66,1.56,7.92-3.39,9.7-2,12.33,6.75,11.42,1.86-.19,3.67-.37,5.42-.45.32-10.14.89-20.31,1.67-30.41a82.19,82.19,0,0,1-2.22-12.36C1277.06,2069,1274.27,2062,1267.38,2056.79ZM883.83,1746.21c1.25-2.06,2.49-4.12,3.74-6.17C886,1741.9,884.29,1743.67,883.83,1746.21Zm299.92-427.35c-.81-2.25-2.76-3.61-4.22-5.35l4.22,5.35Zm600,100.77v0a12.06,12.06,0,0,0,4.78-4.9s0,0-.08.06C1786.89,1416.42,1785.32,1418,1783.76,1419.63Zm-491.51,456.54q-8.1,35.26-14,71.06l-3.17,18.77c-3.54,20.72-7.69,45.22-11.19,71.51a38.18,38.18,0,0,1,2.49-3.54l9.4-4.59c2.72,7.13,5.46,14.24,8.17,21.37,3.72-30.66,8.52-59,12.31-81.14l3.19-18.89q5.85-35.64,14-70.79a8.64,8.64,0,0,1-1.7.1A64.85,64.85,0,0,1,1292.25,1876.17ZM1153,1272.09c-.1,1.12-.21,2.24-.3,3.36.7-.28,1.4-.56,2.1-.82A26.78,26.78,0,0,0,1153,1272.09ZM434.6,1928.68a953,953,0,0,1-84.87-49.11c-28.4-18.4-54.27-40.79-85.26-54.77-22.27-10-40.65,19.54-19.43,33.26,24.43,15.79,51.32,24.07,78.09,34.92q41.1,16.69,81.12,35.94l.74-.24-.09.55,2.26,1.07c53.08,25.55,105.27,52.79,158.78,77.55,67.87,31.39,136.63,61,206.55,87.43a40.89,40.89,0,0,1,7.85-12.34q-13-4.83-25.93-9.77C645.05,2031.26,538.91,1981.8,434.6,1928.68ZM294.25,482.2a17,17,0,0,0-4.87,4.95l4.87-4.94ZM1638,1182.29c-2.31-2.76-5.46-3-8.63-3.28h0a14.51,14.51,0,0,1-5.45,2.6c-1.92,4.52-3.83,9.05-5.76,13.55-1.11,2.59-2.21,5.2-3.31,7.79,4.56-1.28,9.55-.18,14.34,3.5,1.78,1.36,3.51,2.79,5.25,4.22q5.19-10.92,10.45-21.8A33,33,0,0,1,1638,1182.29Zm-414-28.52c-1,4.33-2,8.68-3,13h0c-3.39,1.15-3.56,4.84-4,8-.11.78-.21,1.57-.3,2.35h0l1.66,1.62q-9.16,42-16.67,84.7c-.21,1.16-.4,2.31-.6,3.47-3.46,1.5-6.67,3.51-7.38,7.79s1.1,7.63,4.24,10.37a2.93,2.93,0,0,0,0,.29c-5.28,5.73-10.57,11.44-15.83,17.19a10.81,10.81,0,0,0-2.52,11,5.48,5.48,0,0,0,4.19,5.35h-.11c.59,3.7.57,9,6.18,6.78a3.65,3.65,0,0,0,1.82-1.37c-5.43,35.46-10,71-13.52,106.77-3.56,36.47-6.32,73-9.65,109.49a2253.17,2253.17,0,0,0,28.87,286.75l2.37,14.33c2.49,15,5,30.36,7.72,46a26.46,26.46,0,0,1-4.84,2.22,145.2,145.2,0,0,0-15.16,6.62c-.09,0-.16.12-.25.17-3-17.57-5.89-34.81-8.67-51.52l-2.39-14.33a2272.27,2272.27,0,0,1-30.8-396.4,15.45,15.45,0,0,0,3.9,0c8.83.5,11.54-3.36,6.46-11.23-4.84-7.49-3.55-15.44-4.76-23.22-1-6.33-.49-13.08-4.41-18.48q1.33-39.48,4.07-78.83c.3-4.26.65-8.52,1-12.78,3,.59,6-.51,8.88-4.54h0c6-7.32,5.75-14.47-.57-21.47-1.81-2-3.74-3.92-5.6-5.89q1.08-11.52,2.28-23c.45-.14.91-.28,1.39-.41-.47-.51-.85-1-1.2-1.44q1.77-16.93,3.72-33.84c-3.63-5.84-7.3-11.61-11.35-17.08,4.27,1.88,8.48,1.41,11-4.09,4.53-9.88,12.76-15.87,19.75-23.25C1207.51,1148.82,1208.78,1148.55,1224,1153.77Zm-57,335.69c.06-5.5-4.71-5.24-8.68-5.69-3.87,0-8.08-.08-9.08,5.12-.83,4.33,3.2,10.74,6.84,11.32C1160.23,1500.88,1166.9,1494.86,1167,1489.46Zm7.76-138.64c-.66-4-2.3-6.44-5.35-7.92a6.18,6.18,0,0,0-8.23,2.24c-2.09,3.22-3.07,7.17-4.47,10.83-.27.71-.59,1.76-.27,2.28.74,1.2,1.79,3,2.84,3.1C1166.19,1362,1174.87,1355.46,1174.72,1350.82ZM297.43,477.48h0Zm1470.79,2113.8c-.81-2.25-2.75-3.61-4.22-5.35l4.22,5.35ZM288.59,471.32v0q.56-.49,1-1c-.32.31-.64.62-1,.95ZM2131.21,1686.59c1.66-3.26,3.28-6.51,4.89-9.74-.69.46-1.4.92-2,1.4-1,.81-1.29,2.55-1.91,3.86h0A10.09,10.09,0,0,0,2131.21,1686.59Zm-474.33,516.58a7.29,7.29,0,0,0,.48.57,8.37,8.37,0,0,1-.45-.77ZM991.77,949.91a7.11,7.11,0,0,1-2-.38,5.27,5.27,0,0,0,2,.38Zm724.4,1615.62c-.55,1.64-1,2.85-1.39,3.82A9.17,9.17,0,0,0,1716.17,2565.53Zm1078.25-163.08,4.66-5A29.59,29.59,0,0,0,2794.42,2402.45Zm-536.56,160.31a30.31,30.31,0,0,1,3.8-4.12,3.71,3.71,0,0,1-.28-.41C2257.71,2559.84,2257.14,2561.32,2257.86,2562.76Zm492.53-151.13-4.68,5a17.62,17.62,0,0,0,4.63-4.95h0ZM299.36,473.79q1.86-3.09,3.74-6.17C301.52,469.48,299.82,471.26,299.36,473.79ZM1614.68,2304.72h0Zm0,0,0,0,0,0ZM1863,2222.49l6.68-2.14a41,41,0,0,0-4.58-4.14A21.33,21.33,0,0,1,1863,2222.49Zm21,189.47c.44.06.87.11,1.29.18-.28-.11-.55-.18-.83-.28Zm-242.33-97.18c55-6,110-12.15,165-17.81,22.26-2.29,44.51-4.68,66.76-7a3.65,3.65,0,0,1-.06-1.09,6.8,6.8,0,0,1,5.72-6.21c3.52.09,5.65,1.81,5.86,5.39,0,.23,0,.46,0,.69q31.49-3.3,63-6.34c-1.54-.61-3.78-.88-7.14-1.27-2.34-.28-4.73-.19-7.09-.27h0c-1.22-2.23-2.88-3.8-5.59-3.87l-.26-.24h0a9.61,9.61,0,0,1,4.34-4.08c-45.41,3.6-90.79,7.48-136.09,12.19-46.38,4.81-92.77,9.58-139.1,14.81a34,34,0,0,1-5.69,8.78C1648.59,2311.35,1645,2312.89,1641.58,2314.78Zm494.54-129.94a4.81,4.81,0,0,1-1-.57c.33.74.63,1.5,1,2.25Q2136,2185.69,2136.12,2184.84Zm-111.27,80.7-7.61.57a39.16,39.16,0,0,0,6.56,5A44.67,44.67,0,0,0,2024.85,2265.54Zm-367.26-66.09-.3.17v.08l.36-.19Zm487.9,52.53c-.08.62-.15,1.25-.24,1.87A8.86,8.86,0,0,0,2145.49,2252Zm-6.93-580.13q3.92-8,7.66-15.88a16.36,16.36,0,0,1-.42-3.79c0-5.41-2.89-6.47-7.74-4.76-3.4,1.19-7.21,1.44-10.16,3.52a9.1,9.1,0,0,0-2.4,2.43c3.63,5.72,6.36,12,11.58,16.73A7.47,7.47,0,0,1,2138.56,1671.85Zm-172.3,604.48c.38,1.41.72,2.88,1.19,4.25q10.83-1,21.67-1.89c3.51-.29,7-.54,10.54-.82-1-3.67-1.58-7.33-.76-10.37l-16.81,1.28-20.71,1.59a31.34,31.34,0,0,0,5.59,1.29c-.24,1.56-.47,3.11-.71,4.67Zm176.61-20.92a13.08,13.08,0,0,1,1.08.89,5.39,5.39,0,0,0,.7-.93C2144.06,2255.37,2143.47,2255.39,2142.87,2255.41Zm-287.14-30.6c-.17-3.35-.46-6.57-.59-9.66q-42.44,13.28-85.08,25.77a11.3,11.3,0,0,1,.29,1.31,33.36,33.36,0,0,1,9,6.85Q1817.55,2237,1855.73,2224.81Zm269.94,37a3.8,3.8,0,0,1-1.29-4.52c-2.88.38-5.71.74-8.44,1-14.12,1.2-28.25,2.33-42.38,3.49-11.22.93-22.43,1.79-33.65,2.66,1.49,4.22,1.75,7.69.68,10.63q20-1.23,40-2.16c14.11-.64,28.24-1.23,42.37-1.95,2.89-.14,5.82-.18,8.74-.24a7.29,7.29,0,0,1,.67-4.56A30.82,30.82,0,0,1,2125.67,2261.76Zm-470.12,12.55c2.64,3.78,5.86,7.09,5.66,12,28.76-8.84,57.39-17.94,85.88-27q.5-3.06,1-6.12h0c-.19-.18-.33-.36-.51-.54a16,16,0,0,1-3.1-4.31q-20.42,5.78-40.92,11.36a17.55,17.55,0,0,0,1.56,4.56c-1.2,2.19-1.61,4.09-2.69,4.62s-3.64.33-4.29-.51c-1.5-2-3-4-4.48-6q-19.44,5.28-38.9,10.49A8.56,8.56,0,0,0,1655.55,2274.31ZM638.62,370.18c-.22-.23-.44-.47-.67-.7l0,.6ZM1685.2,2218.75a6.6,6.6,0,0,1,3.93,2.82c6-4.67,11.9-9.42,17.82-14.17-6.15,1.85-12.76,1.44-19.11,2.39-6.61,1-3.32,5.49-2.64,9Zm365,644.24a27.7,27.7,0,0,1-.71,4.49c.48-1.46.89-2.94,1.25-4.43l-.54-.06Zm286.16-1274-.5,0c.06.42.08.85.13,1.27A5.2,5.2,0,0,1,2336.34,1589Zm-172.07-447.56-.15-.3-2.88,3.1A23,23,0,0,0,2164.27,1141.44Zm651.89,1340.65c-18.36,76.45-84,143.53-171.28,175.06-52.61,19-108.06,24.7-159.44,24.7-13.27,0-26.24-.4-38.85-1a3.08,3.08,0,0,0-.09-.48c2.83-3,2.8-6.08,0-9.1h0c.2-2.23-.8-3.47-3.06-3.65-4.65-4.25-9.3-3.85-13.94,0h0a1.71,1.71,0,0,0-2.82.29h0l-9.52-.06c-2.18-3.56-4.56-2.61-7-.26h0a1.9,1.9,0,0,0-2.93.85c-3.91-.1-7.22.94-9,4.79l-.54.47a4.91,4.91,0,0,0-4.19,3.1q-46.71-4.53-93.25-11.71c-.16-.61-.33-1.21-.53-1.8-1.1-3.11-3.44-5.46-7.09-4.57a6.83,6.83,0,0,0-5.19,4.39c-86.94-14-173.37-34.38-259-59.5.15-.43.3-.86.44-1.29-.16-5.16-4.09-10.34-8.14-10.37-4.36,0-5.07,3.65-5.31,6.69a10.14,10.14,0,0,0,0,1.1q-43.35-13-86.4-27.44a57.62,57.62,0,0,0-3-9.9c-.6-1.56-3.84-3.24-5.55-3a7.35,7.35,0,0,0-4.83,4.07,16,16,0,0,0-4.37,2.78q-29.94-10.26-59.72-21.13c-.33-2.51-1.06-4.55-2.22-5.23-12.44-7.32-24.14-18.1-40-10.49q-43.29-16.47-86.21-34c1.88-5.58-1.12-11.85,3.36-16.44a12.45,12.45,0,0,0,2-11.31c38.19,9.43,76.12,20,114.3,29.51S1918.87,2516,1957.2,2524q1.65,1.73,3.27,3.46c4.15,4.49,9.91,3.9,13.51-.05,9.34,1.84,18.69,3.63,28.08,5.26q15.9,2.77,31.81,4.95c-6.18,5.83-4.45,10.23,5.16,15.08h0a33.15,33.15,0,0,0,.82,4.2c-1.77.82-2.76,2.51-1.57,3.72,5.67,5.84,11.13,6.38,16,1.78,4.24-4,6.14-8.93,5-14.81h0l0-.08a13.79,13.79,0,0,0,4.16-6.32c26.29,2.76,52.65,4.4,79.15,5.1,1.22,3.31,2.73,3.26,5.69.14q9.49.2,19,.25c26.34.1,52.69-.18,79-1.74,25.23-1.49,51.05-3.13,75.71-9.06,20.42-4.88,42.18-13.84,53.32-32.75a56.74,56.74,0,0,0,7.1-19.93c-34-34.54-81-56.46-125.09-75.29-35.39-15.09-70.34-26.62-108.73-31.14-3.31-.39-6.62-.7-9.93-1a16,16,0,0,0,3.72-3c2.78-3,5-6.54,3.13-10.67-1.44-3.27-5-3.19-8.13-3.48l-5.65-.53a37.62,37.62,0,0,0-3.82,0c-3.3.29-6,1.5-7.42,4.82a8.67,8.67,0,0,0,1.48,8.92,16.13,16.13,0,0,0,3,3,436.13,436.13,0,0,0-66.72,2.31q-8.41,3.81-16.67,7.28-21.21,8.85-42.84,16.61c-4.09-1.56-7.33-4.81-10.67-8-.8,5.58-1.33,9.35-1.22,12.15q-7.72,2.65-15.51,5.16c0-.86-.08-1.73-.13-2.6v-.06l-7.72.65-.25,0h0l-4.33,3.22-.95.7a11,11,0,0,0,1.06,2q-5.67,1.74-11.37,3.42c0-1.94.09-3.88.13-5.83-1.23-1-2.33-2.29-3.73-2.93-6.84-3.13-9.41-2.26-10.47,3.44a37.38,37.38,0,0,0-.83,7.06,20.77,20.77,0,0,0,.14,2.48,930.33,930.33,0,0,1-116.28,24.21c-.94-3.41-7.82-8.06-11.13-6.94s-3.56,4.83-4,8c0,.34-.09.68-.13,1q-29.41,3.71-59,5.56a10.56,10.56,0,0,0,2.27-3.3c3.79-8.27,10.17-13.83,16.25-19.74q23.14-1.93,46.19-5l3.67,1.26c7.7,5.67,15.48,6.89,24.43,2.2a25.75,25.75,0,0,1,13.87-2.5c7.88.81,11.77-2,13.54-9.53a4.3,4.3,0,0,1,.26-.71c3.1-.62,6.2-1.24,9.3-1.89,4.76,1.94,9.13,2.37,13.13-2.39h0l.76-.63a894.06,894.06,0,0,0,147.28-46.88c18.12-7.55,37.09-16.34,54.21-27.5a9,9,0,0,0,1,.6c5.59,2.56,11.84,3.75,17.89,5.16.82.19,2.12-1.74,3.2-2.68.08-.79.53-2,.2-2.3-3.56-3-7.06-6.07-10.67-9a138.76,138.76,0,0,0,24-23.13c3.63,2.23,7.59,4,12.13,3.75,5,.08,10-3.85,10.11-8.05.11-5.17-4.06-6.14-7.65-7.62a16.85,16.85,0,0,0-5.46-1.26l.13-.23a83.47,83.47,0,0,0,5.89-12.6c2.41,1,5.28.68,9-.63,8.5-3,12.4-12.3,21.27-14.6.51-.13,1.06-3.34.4-4.26-5.43-7.54-9.63-17-21.64-15.38h0c0-.74-.1-1.51-.12-2.29-.16-5.19-.26-8.35-.93-10.43a130.5,130.5,0,0,0-7.8-39.36,7.69,7.69,0,0,0,2.78,1.14h0l2.26.67,2.16-1c5.88-2.81,7.65-8.92,10.85-13.82a151.78,151.78,0,0,1,10.92,69.37c5.38-1.7,10.83-3.2,16.32-4.54a19.92,19.92,0,0,0,1.65,12c2.76,5.74,5.75,3.22,8.73.22,3.42-5.93,9.53-3.29,14.42-4.52h0c.28-4.24.59-8.48.85-12.71,24.63-3.79,49.87-5,74.86-5.65a2.23,2.23,0,0,0-.71.91,4.11,4.11,0,0,0,2.69,5.31c2.66.88,4-.91,4.75-3.28a4,4,0,0,0-.82-3.09l14.59-.31c51.18-1,106.77.61,156.33,14.48a193.78,193.78,0,0,1,42.71,17.6c21.47-5.15,41.2-16.4,57.58-32.73,27.17-27.12,38.77-62.32,39.13-98.53-5.37-23.53-10.91-47.4-20.19-69.63a4.38,4.38,0,0,0,1.73-.36c8.6-4,17.27-8.1,19.56-18.75l.12-.27c4.45-2.4,5.18-6.08,3.61-10.54-.18-1.6-.36-3.2-.55-4.8.76-3.94,0-7.11-4.3-8.52-2.94-2.54-6.18-2.58-9.6-1.18h0c-3.29-.29-6.27.39-8.39,3.13-6.4,8.27-7.4,18-8.47,27.71a156,156,0,0,0-12.51-20.58c-23.8-32.86-57.8-55.5-95.13-69.91,1.65-3.76,3-7.48,8.36-7.63,5.21-.14,9.13-2.11,10.95-7.51,1.74-5.13.08-9.64-2.51-13.64-2.11-3.27-5.37-5.8-8.11-8.67h0c-2.75,1.28-6.57,1.82-8,4-4.21,6.15-9.82,6.9-16.3,6.15a47.55,47.55,0,0,0,1.93,22.45,308,308,0,0,0-38.76-9.89c-47-8.83-93-7.35-138.83-.39-5.43-2.9-9.88-7.71-13.27-14.67-.61-1.25-2.35-2-3.57-2.92-2.39-3-4.55-6.31-7.23-9.07-1.64-1.69-3.34-3.33-5.07-4.95l4.12-1.08c58.8-15.28,120.3-26.13,180.19-17.55,26.83-15.86,48.95-40.5,55.31-71.41,7.91-38.57-12.84-76.31-38.59-103.46-26.94-28.46-61.86-49.73-98.5-63.28a310.34,310.34,0,0,0-111.8-19.22c-1,0-2,0-3,.08a10.38,10.38,0,0,0-2.94-6.67c-.46-.48-1.45-.45-2.19-.66-.62.44-1.66.77-1.8,1.33a14,14,0,0,0-.08,6.23,330.51,330.51,0,0,0-48.54,5.8c-5,1-10,2.17-14.92,3.46-2.35-4.27-6.58-7.13-12.36-8.81h0q-21.21-3-38.15,4.86a357,357,0,0,0,14.21-55c7-40.8,2.47-80.73-18.24-115.42A8.28,8.28,0,0,0,2115,1469c6.1-10.2,11.6-20.78,16.86-31.44,2.07-4.2,2.81-9.06,3.42-11.12.51-12.83-5.38-17.91-15-14.87-9.13,2.88-18,6.57-26.91,10.24a9.33,9.33,0,0,0-5.87,9.6,75.89,75.89,0,0,0,2.93,17c-13-14.62-27.59-25.46-47.81-29.76a90.38,90.38,0,0,0-24.41-1.64,613.37,613.37,0,0,0-56.61,26.8,9.57,9.57,0,0,0-7-8.53c-2.92-.83-6.89-1.54-9.2-.23-8,4.58-16.49,4.75-25.26,4.52a9.38,9.38,0,0,0-1.73.14l.32-.29c25.81-22.22,52.08-46,81.52-63.77,11.65-33.94,16-72.64-6.67-103-10.1-13.51-25.43-22.94-42.38-24.43a53.46,53.46,0,0,0-21.24,2.66q-5.72,8.55-11.8,16.85c0,.1-.1.2-.14.3s-.29.25-.41.43c-4.4,6-9,11.86-13.65,17.69a15.27,15.27,0,0,0-3.11-2.53h0c-5.4,1.8-5.51,6.46-5.94,10.94.35.47.7.94,1.06,1.39q-8,9.66-16.41,19.17c-27.92,31.62-56.34,62.86-84.57,94.26l-.21-.07-1,1.13c-2.87.07-4.5,1.64-5.24,4.27a6.14,6.14,0,0,0-4.79,4.93c-3,1.54-4.35,3-1.72,4.25q-7.47,8.35-15,16.73c-9.65,17.93-10.18,39.46,2,56.82,6.17,8.77,15.39,15.33,25.29,19.49-3.76,2.54-7.63,5.16-11.93,3.77-12.21-3.94-21.51,4.49-32.31,6.18-2,.31-5.06,2.51-5.25,4.12-1.2,10.13-9,12.36-16.69,14.76-5.56,1.73-10.37,4.22-13.14,9.63h0l-18.49,4.82c-1.8,2-2.32,4.6.55,5.2,4.59,1,9.42.78,14.15,1.07l4.44-4.26h0c15.13.63,30.27-2.81,45.44.52,13.53,3,22.78-1.07,25.2-14.16,2.12-11.49,7.61-18.69,16.47-24.7a9.52,9.52,0,0,0,3-3.22,77.94,77.94,0,0,0,12.77,2.15c5.21.43,10.35.55,15.5,1a756.23,756.23,0,0,1,75.71-76.61,7.76,7.76,0,0,0,3.79,5.32c7.72,3.73,17-.28,24.29,5.23a337.21,337.21,0,0,0-28.08,19.79,536.87,536.87,0,0,0-61.85,57.82c-31.19,48.45-33,113.72-18.51,171.11a3.57,3.57,0,0,0-1,2.15c-.17,1.16,1.1,2.54,1.73,3.82.23-.13.49-.24.74-.36q2.49,9.12,5.5,17.91c-5.8,2.42-12.9,2-18,6.46-1.56,1.36-2.35,3.9-2.81,6-.14.67,2,2.66,3.06,2.62,8.64-.4,16.82,1.36,25,3.75,1.18,2.78,2.38,5.54,3.64,8.23,16.25,34.94,43.24,66.16,78.67,82.6a108.48,108.48,0,0,0,11.5,4.55,17,17,0,0,0-1.1,1.31c-1.45,2-.83,4.41,1.88,5.21,1.42.43,3.08.08,7.78.08a19.45,19.45,0,0,0,6.14-.48,3.76,3.76,0,0,0,2.4-2c21.18,3.12,41.9-1.19,59.32-13.13-1.56,1.87-3,3.8-4.57,5.71h0c-2.75,1.3-5.68,2.35-8.17,4-.88.6-.79,2.77-.9,4.24,0,.21,1.33.65,2.08.77,7.71,1.2,9.39.07,12.92-8.55a28.89,28.89,0,0,0,3.94-2.39c1.69-1.45,3.58-3.51,2-5.59a3.36,3.36,0,0,0-3-1.38c.85-.67,1.73-1.31,2.57-2,6.83-13.51,14-26.89,21.29-40.25a3.65,3.65,0,0,0,.35.14c.89.25,2.28-1.31,3.44-2,.86-1.57.59-2.9-.91-3.38,9.15-16.74,18.4-33.45,27.28-50.31a10.79,10.79,0,0,0,.18,2.19c.21,1,2.56,2.61,3.62,2.4,3.58-.71,6.94-3.8,8.78-7.32a7.56,7.56,0,0,0,8.24,3.33c6.62-1.59,5-7,4.63-11.66-.06-.8-.14-1.59-.21-2.39h0a32.24,32.24,0,0,0-4.2-2.35c-7-2.68-10.87-.6-10.72,5.58a8.37,8.37,0,0,0-5.89,1.71q7.47-14.45,14.4-29.1c.19.87.38,1.78.59,2.8,1.09,5.28,3.64,8.61,8.35,10.86a87.29,87.29,0,0,1,8.18,5h0c4.84-2.47,8.77-6.29,13.12-9.52q-18.88,35.77-39.56,70.52c-.51-.2-1-.38-1.56-.55-3.2-1-6.43-.46-8.11,2.44-2.17,3.74,1.06,5.58,3.78,6.89l.47.18a1600,1600,0,0,1-113.7,163.89,4.3,4.3,0,0,0-2.86,1.94,54.22,54.22,0,0,0-3.9,6.64q-6.94,8.65-14,17.2a33.77,33.77,0,0,0-6.48,7.86Q1900,2025.1,1861.78,2065c48.44-31.79,104.32-54.91,156-75.46q14.36-5.71,28.87-11.24c-3.31,6.12-5.88,12.65-8.78,19.2,1.18,1.07,2.2,2.81,3.28,2.85,6.79.26,17.27-9.4,17.51-16.49a6.68,6.68,0,0,0-5.63-6.7,12.62,12.62,0,0,0-3.11-.09q19.77-7.51,39.78-14.66c0,.23,0,.47,0,.7.31,4.42,5.85,8,13,8.45,5.13.31,8.52-3.14,8.87-9a17.42,17.42,0,0,0-1.07-7.43c40.48-14,81.48-26.69,122.52-37.81l.45.83h0l18.82,15.14,11.07,14.11c-2.68.46-5.36.93-8,1.43-7.54-8.08-15-16.28-22.42-24.42h0c-9.74,3.56-10.17,4.22-5.29,10.12,4.48,5.42,11.57,9.75,6.47,18.46l-.06.1c-13.74,3-27.48,6.27-41.23,9.82q-12.63,3.25-25.27,6.61a11.15,11.15,0,0,0-1.86-1.67c-2.23-1.52-4.71-.34-6.37,1.51-.86,1-1.67,2-2.47,3-56.42,15.15-112.78,31.88-167.46,51.91-48.91,17.89-93.32,41.58-137.42,67.2,46.29-16.06,88.44-23.17,128.17-21.48-1.23,2-2.41,3.93-3.5,6-.66,1.24,1.41,4,2.11,5.69,6.17.87,15.52-4.18,19.56-10.24a234.94,234.94,0,0,1,36,7c-5.24,7.62-5.18,7.71.56,14h0l.24.28c.12,2.86,1.56,4.23,4.46,3.93h0l9.84,5.69a33.81,33.81,0,0,0-.41,3.81,208.31,208.31,0,0,0-63.57-14.3c-45.27-3.09-94.62,6.42-150.67,29-15.45,6.24-35.18,14.6-50.56,23.94a10.29,10.29,0,0,1-5.52,1.4c-1.06,1-2.15,1.9-3.22,2.86l-.73.37h0l-5.49-4.2h0q.33-6.09.67-12.18h0c3.93-.92,7.58-2.38,10.29-5.56h0c5.4.19,10.84.85,16.18.37a6.23,6.23,0,0,0,5.86-6.15c.26-6.65-1.81-12.36-7.49-16.08s-11.56-4.13-16.77,1.28c-3.84.44-7.93.43-9.34,5.21l-.2,0c-3.81,2.14-4.16,6-4.73,9.68l-5.25,4.4a10.68,10.68,0,0,0-4.38.49,14.54,14.54,0,0,1-.94,2.56c-.2.47-.29,1-.53,1.42a5.22,5.22,0,0,0-3.43,1l-8.34.06-5.87,0a3.89,3.89,0,0,0-1.54,3.09c-10.76.3-21.45,3-32.28,1-3.88-4.74-9.49-3.86-14.66-4.45l-.11-.06h0c-1.62-3.22-3.33-3.4-5.15-.19a5.3,5.3,0,0,0-5.62,3.79c-4.9,1-10.07,1.44-13.25,6.19h0l-.27.2c-2.78.34-4.16,2-4.42,4.7l-.23.35c-4.31,3.67-4.3,9-5.22,13.9-3.26,2.15-2.69,4.54-.36,7h0v.69c-3.16,3-4.34,6.94-5.1,11-2.59.79-4.42,2.26-4.54,5.27-3.88,3.74-3.64,7.5.12,11.28h0a2.64,2.64,0,0,0,0,3.39l-14,10.64c-4,6.27-3.3,7.51,4.85,8.65h0l1.69.94,1.92-.25h0c6,5.48,13.46,3.93,20.53,4.2l.36.07c5.18,5.84,12,5.73,19,5.28h0c.78.21,1.57.48,2.36.76q-10.65,8.19-21.45,16.21c-2.12-6.77-7.12-12.69-12.52-18.36-3.07-3.23-7.37-2.36-11.1-.32-4.1,2.23-1.86,5.34-1,8.26,1.68,5.69,2.38,13.22-3.57,14.74-13.65,3.49-14.42,13-14.57,23.86a23.77,23.77,0,0,1-.22,2.72c-5.75,4-11.49,8-17.29,11.89l13.65-3.69a18.87,18.87,0,0,1-8,5.33c-3,1.08-6.18,1.63-7.56,5-2,4.89-2.53,8-1,11.1-2.61.74-5.22,1.5-7.83,2.23,2.8-.4,5.62-.78,8.44-1.16,1.51,2.33,4.23,4.74,8.53,8h0a12.67,12.67,0,0,0,4.51,3.35c-26.75,2.92-53.72,6-80.35,10.51-21.89,10-45.5,18.08-69.64,21.73a4.81,4.81,0,0,0-5.12.71l-1.38.17.87.41a5.83,5.83,0,0,0-.84,1.46c-1.32,3.37.61,6.2,3.3,8.16,4.15,3,9,2.75,13.86,2.6h0c.13-1.47.25-2.95.37-4.42,52.74,24.67,106.07,49,160,72.47a917.29,917.29,0,0,0,101.68.5c-7.79,4.89-15.64,9.54-25.54,9.64-2.64,0-3,3.71-1.33,5.41,4.26,4.37,8.49,9.37,16,6.09,2.77-1.22,5.91-1.59,8.89-2.34h0a23.17,23.17,0,0,0,4.25,2.74q-24.42,1.27-48.89,1.29h-.62l8,3.38c7.43,1.63,14.85,3.35,22.25,5.11a6.79,6.79,0,0,0-1.63,5h0c-.08,1.63-.15,3.26-.22,4.89h0c-4,4.38-12.32,5.92-10,14.37,1.57,5.79,7,5,11.31,6.13,22.3,16.54,44,34,65.23,51.7a9.73,9.73,0,0,0-.26,1c-.73,4.37,1.14,7.72,4.35,10.49-5.33,5.79-10.68,11.56-16,17.37a10.81,10.81,0,0,0-2.52,10.95,5.49,5.49,0,0,0,4.19,5.35h-.11c.59,3.69.57,9,6.18,6.77,3.79-1.49,2.11-5-.79-7.23,2.08-12.51,8.14-22.3,19.47-28.5,1.19-.34,2.37-.66,3.55-1,38.17,32.46,75.14,66.83,109.45,103.42a250.67,250.67,0,0,0-6.16,25.48c-.54,2.93.31,6.47,1.56,9.26a8.22,8.22,0,0,0,5.43,4.17c2,.28,4.87-1,6.37-2.52,5.78-5.94,5.26-13.8,6.14-21.94,1.36,1.5,2.74,3,4.13,4.55,4.19,3.11,8.44,6.13,12.59,9.3,25.86,19.88,50.85,42.37,72,67.29,18.1,21.34,39,47.72,43.61,76.56a21.27,21.27,0,0,0-2.3.46h0l-4.29-.14c.06-.4.09-.8.18-1.18-5.38-5.93-13.31-4.81-20-7-4.14-1.39-7.68.56-10.22,4.28-1.8,2.63-4.22,4.86-5.88,7.57-5.32,8.6-2.59,15.44,6.85,18.33a33.54,33.54,0,0,0,11.73,1.23c6.73-.28,6.75.22,6,10.55-6.27,5.13-6,12.08-5,19.08.12.81,3.32,2.14,3.6,1.84,5.27-5.6,11-10.92,14.61-17.6-8.27,18.29-25,32.63-46.07,33.65-31.57,1.51-46.06-28.07-60.72-52-18.12-18.46-34.25-39.13-52.55-57.43a732.23,732.23,0,0,0-65.94-58.51c-27.09-21.25-56.21-39.39-85.33-57.53-.29-3.38-.34-6.77-.87-10.14-1.1-7.06-.33-14.67-6-20.32a5.29,5.29,0,0,0-4.08-1.33c-1.25.24-3.1,1.65-3.24,2.73-.8,6.34-1.36,12.7-1.81,19.08-15.28-9.61-30.46-19.37-45.25-29.76-45.15-31.67-86.37-68.37-128.75-103.51-5.38-4.44-10.79-8.84-16.25-13.15a301,301,0,0,0-32.59-16c-28-11.28-57.74-17.83-87.33-23.33s-59.39-9.14-88.67-15.64a190.32,190.32,0,0,1-36.11-11.88c-.35-1.86-.57-3.75-.8-5.68-.75-6-4.73-9.84-9.75-12.82-6.72-4-12.85-2.18-13.67,5.62a231.67,231.67,0,0,1-21.68-15.33c-.73-.58-1.44-1.18-2.17-1.77a10.67,10.67,0,0,0,2.43-3c3.81-7.37,5.25-15.75.54-22.79-4.41-6.59-11.43-13.08-20-9.57-12.89,5.25-17.37-2.31-21.88-11.38-1.42-2.86-2.88-5.69-4.26-8.57-3.84-8-10.11-8.21-17.12-6a198.26,198.26,0,0,1-20.17-35.83,87.88,87.88,0,0,1-29.65,5.23c-39.36,0-72.85-26.06-86-62.66a29.58,29.58,0,0,1-10.53-.74c-9.89-2.82-16.6-10.59-19.34-20.24q-.56-1.87-1-3.78a131.41,131.41,0,0,1-2.06-14.07c-.15-1.51,0-3,0-4.46a76.13,76.13,0,0,1-1.09-10,84.47,84.47,0,0,1,4.4-30.18,28.15,28.15,0,0,1,8.69-13c-12-4-23.88-8.38-35.25-12.12-19.26-6.34-38.6-12.34-58-18.33.15-.09.3-.14.46-.25,2.63-1.79,4.29-4.33,4-11.73,0-.37-2.66-3.2-6.43-4.48-2.87-1-6.27-.85-8.49,1.9-3.27,4.07.45,7,2,10.2a9.4,9.4,0,0,0,1.09,2l.05.06q-15.5-4.8-31-9.7-47.67-15.17-94.55-32.5a8.21,8.21,0,0,0,5.93-4.2,26.58,26.58,0,0,0,2.47-8.11q58.53,21.07,118.13,39c27.19,8.1,54.47,14.29,82.33,19.65,5.26,1,10.59,1.88,16,2.72q-41.81-26.62-83.21-53.77c-43.74-25-86.33-52.12-128.73-79.23q-146.82-93.92-287.55-196.87c-45.15-33-89.51-67.13-133.47-101.68-2.23-1.74-4.46-3.52-6.69-5.26-8.38-6-16.72-12-25.13-17.89-30.77-21.77-63.15-44.55-97.83-59.58-22.71-9.83-45.46-24-61.65-43.35.17-.1.34-.19.5-.3,5-3.34,7.39-8.13,7.73-14,.48-4.76-4.84-9-9.46-7.61-4.38,1.35-7.47,3.81-9.19,7.19-1.05-1.81-2.05-3.67-3-5.55-15.45-31.14,25.44-53.39,45.62-26.67,10,13.23,24.31,23,36,34.6,14.34,14.19,26,30.79,39.79,45.47,27.58,29.28,59.17,54.61,90.53,79.7,36.83,29.5,74.37,58.06,112.17,86.22q92.37,67.88,187.22,132.26c37.45,25.33,75.46,49.73,113.64,73.86-.21,0-.42-.09-.64-.12-2.36.26-4.83.88-4.69,3.76.13,2.58,2.22,4.23,4.73,4.51a3.89,3.89,0,0,0,4.6-4,3.84,3.84,0,0,0-.35-1.8q28.71,18.13,57.48,36.16a7.11,7.11,0,0,0,2.25,1.67,6.64,6.64,0,0,0,1,.39c22.12,13.19,44.19,26.45,66.48,39.13,32.24,18.36,63.79,37.91,96,56.27,12.69,7.21,25.73,15.71,39.1,23.77a86.38,86.38,0,0,0-12.06,2.61c2.7,2.53,4.12,4.52,6,5.56q19.86,10.65,40.47,19.67c-4.09,1.93-7.61,5-11,8.18a5.43,5.43,0,0,0-1.54,4.32c2.13,8.5,4,17.28,9.63,24.24,3.23,4,8.38,4.34,13.31,3.09,3.69-.94,4.87-4,4.76-7.28a38.11,38.11,0,0,1,2.74-16.39c1.26-3,.8-5.9-.23-8.71q4.85,2,9.72,3.85c12.66,4.89,24.72,6.33,36.28-2.95-2-7.7-4-15.44-6-23.2-1.39-5.54-5.36-8-10.56-8-21.7.34-43-3.61-64.52-5.47a75.33,75.33,0,0,0-11.83-.09,87.6,87.6,0,0,1,83.58-8.35l-245-247.43a15,15,0,0,0,1.37-7.88c0-2.49-1-4.25-3.63-4.68a3.07,3.07,0,0,0-2.24.38,10.37,10.37,0,0,0-2.9,4.71l-18.38-18.56q-22.14-22.35-44.36-44.85c.29-1,.48-2.2.85-3.54-2-.83-4.11-2.64-6-2.38l-.6.11c-64.41-65.33-128.86-131.85-190.57-201a33.34,33.34,0,0,0,3.79-1.88c6.64-3.88,10.43-8,11.62-13.17q37.38,41.91,76,82.65a18.93,18.93,0,0,0-2.3,3.42c-2.85,2.21-2,4.15,1,4.08,1.71,0,3.38-2.16,5.05-3.5q18.3,19.35,36.75,38.49c7.14,5.58,14.38,11,21.9,15.91,15.81,10.28,34.58,19,53.9,17.58,7.55-.54,13-2.87,16.4-9.49l.07-.08c2.73-.54,4.46-2.06,4.87-4.88a4.65,4.65,0,0,0,3.19-4.8,3.48,3.48,0,0,0,1.92-3.68c2.45-1.33,4-3.22,3.74-6.17l.42-5-.36-4.81c1.53-3,3.81-5,7.39-4.9,4,.1,8,.5,11.92.34,3.71-.14,5.51-2.9,6.12-6.17s.51-6.59-2.58-8.52c-6.62-4.15-13.43-8-20.29-12-3.79,14.47-3.79,14.47-12.06,21.12,0,0,0,.07,0,.11l-1.2,0c-2.41-11.89-7.62-23-13.76-33.61-.92-1.27-1.88-2.51-2.8-3.78-2.76-3.64-5.4-7.38-8.11-11-27.7-35.11-54.3-71-79-108.12a13.46,13.46,0,0,1,2.74,1.44,7.69,7.69,0,0,0,4.52,1c5.17-.26,9.44-2.28,11.11-7.41,2.36-7.27,1.75-14.14-4.38-19.59-3.91-3.47-7.22-1.14-10.45,1.34-1.26,1-2.5,2-3.81,2.87-2.83,2-7.11,2.85-9.83,5C721,1482.9,685,1413.92,659.48,1339.41c-31-90.56-57.7-186.28-58.56-282.54-.43-47.93,2.11-96.47,8.78-144.33.87-19.93,1.41-39.89,1.75-59.82.68-39.49.15-79.21-3.62-118.55-6.07-63.38-19.28-128.81-60.29-179.54-17-21-38.26-39.39-63.73-49.17a113.88,113.88,0,0,0-69.4-3.75,71.62,71.62,0,0,1-6.12-4c-6.58-4.79-14.22-1.37-13.28,6.09a26.24,26.24,0,0,1,.16,4.47c-33.38,14.4-58,40.55-76.17,71.16-.74.25-1.48.5-2.2.68.23.67.42,1.36.61,2.05a317.42,317.42,0,0,0-24.68,55.09,28.57,28.57,0,0,0-11.3-6.77,8.11,8.11,0,0,0-4.5-.14c-2,.6-7.6,12.29-7.15,14.38,1.32,6.2,8.58,13.3,15.54,16.1-14.84,51.65-21.87,104.31-25.39,157.6,15,148.93,67,304.19,154.42,455.06,43.52,75.15,93.32,146.1,147,214a61,61,0,0,0-9.48,7.19c-4.29,4-3.66,10.38.9,14.87,4.35,4.3,10.76,3.68,14.41-1.65a41.87,41.87,0,0,0,4.36-7.63q38.11,47.52,78.5,93.22c-6,4.24-10.43,10-14.88,15.67-88.92-101-171.61-207.79-239.45-324.94q-23.79-41.07-44.14-82.53c4.12-.23,8.16-.8,11.83-3.1a15.41,15.41,0,0,0,1.84-1.26h0c2.58-3.93-.53-4.31-3.13-5a12.08,12.08,0,0,0-10-3.87,3,3,0,0,0-3.45-1.38,5.94,5.94,0,0,0-5.69-3.2c-98.8-209-131.88-422.13-94.24-612.77,4.84-2.14,9.13-5.06,12.09-9.71.81-1.27.9-3,1.48-5.05-2-.83-4.11-2.63-6-2.38a14.77,14.77,0,0,0-4.28,1.25c1.39-6.32,2.84-12.63,4.39-18.9,16.62-67.43,39.2-117.26,71-156.8,40.61-50.46,95.89-80.46,151.69-82.34,53-1.66,107,22.22,152.36,65.87-1.17,1.3-.6,3.28-.07,5.06.23.75.52,1.47.78,2.21l0,0c-8.18.92-17.05-2.4-24.37,3.9h0c-3.64,3.07-7.67,5.77-10.82,9.27-4,4.51-5.25,10.49-1.69,15.45,6.9,9.58,14.55,18.64,22.19,27.66,2.46,2.91,9,1.95,9.94-1.75,1.94-7.77,6.2-12.65,13.7-15,8.5,4.86,17,6.4,25.32-.31l.22-.1a5.66,5.66,0,0,0,3.67-1.11c1.11,1.56,2.21,3.11,3.3,4.69,29.09,42.42,49.72,90,69.66,136.11,9.65,22.3,19.65,45.39,30.42,67.41,49.49,101.2,121.34,190.79,208.14,262.22a40.08,40.08,0,0,0,4,9.17c3.5,5.88,7.91,7.38,12.61,4.13q26.14,20.4,53.93,38.57l-8.51,6.49c-4,6.27-3.3,7.51,4.85,8.65h0l1.69.94,1.92-.25h0c6,5.49,13.45,3.93,20.53,4.2l.36.08c5.18,5.83,12,5.72,19,5.27h0c1.36.37,2.72.9,4.08,1.35q32.06,18.12,65.73,33.16l-1.2,7.54h0l-.06.14,8-.2h0a16,16,0,0,1,4.67-2.47q9.22,3.95,18.55,7.66c.39-1.88.81-3.76,1.2-5.64l.48.09c5.91,1.08,10.59-5.67,8-10.95a43.28,43.28,0,0,0-4.61-7.54q10-46,22-91.53l3.43-.11a47.14,47.14,0,0,0-2.19-4.67q16.08-61,35.52-121a34.69,34.69,0,0,0,11.17-2.78c2.81-1.1,6.15-1.56,7.94-5.75-3.14-5.66-6.46-11.91-10-18-.06-.11-.13-.21-.2-.32Q1299.48,632,1344,532.57c0,.64.09,1.28.13,1.92h0a13.1,13.1,0,0,0,4,1.35c4.18-.56,7.77.23,10,4.26,13.44-3.67,17-8.13,14.79-18.63-1.45-6.93-8.7-10.92-14.36-7.38a109.46,109.46,0,0,0-9.32,6.77,2244.53,2244.53,0,0,1,141.3-262.93c3.62-5.77,7.36-11.67,11.22-17.63l2-.38c3.22-.59,6.43-2.58,6.62-6a5.78,5.78,0,0,0-1.46-4.41c21-31.44,45.7-63.71,76.68-89.17,44.8-36.8,97.71-53.86,145.51-46.72,99,14.8,152,121,159.36,213.45,3.37,42.14.28,84.63-3.3,126a5,5,0,0,0-4.52-.42c-1,.34-2.09,2.48-2,3.75.16,3.34,1.7,6.13,5.67,5.32l.13,0c-.1,1.17-.2,2.35-.31,3.53-3.9,44.39-7.93,90.27-4.33,134.84a429.24,429.24,0,0,0,13,74.77c-1.37-1.33-2.79-2.63-4.1-4h0c-2.75,1.27-6.58,1.82-8.05,4-4.21,6.14-9.82,6.9-16.31,6.14-1.62,9.76.25,19.07,4,28,2,5,8.51,5.7,10.87,1.09,2.18-4.26,3-9.25,9.21-9.42,4.59-.13,8.17-1.68,10.21-5.74,30.14,97.59,89.9,187.38,148.19,274.88,20,30,40.06,60.16,59.17,90.9-.72.41-1.44.85-2.15,1.35-9.66,6.75-19.13,5.94-28.87-.25-5.38-3.41-11.36-5.89-17.07-8.8l-9.49.49c-1.12,1.14-2.25,2.26-3.36,3.41-6,6.2-5.75,8.2-2,13.78,3.11,4.62,11.62,3.63,11.21,11.11-.37,6.83,3.37,8.31,9,7.58a158.82,158.82,0,0,1,38.3-.88c5.49.61,11.22,0,16.73-.86a13.48,13.48,0,0,0,3.49-1c14.3,24.07,27.79,48.5,39.92,73.42a5,5,0,0,0-2.34,4.23,13.69,13.69,0,0,0-2.94,4.56h0a4.06,4.06,0,0,0-2.56,3.64c-3.68,1.82-7.33,5.07-5.61,8.71s6.79,2.11,10.34,1.21c2-.52,3.7-2.3,5.53-3.51l.27-.2a5.94,5.94,0,0,0,4.56-3.32,632.31,632.31,0,0,1,26,65.33c-.54,1.26-1.08,2.53-1.59,3.82s1.4,4.93,3.07,5.83a4.55,4.55,0,0,0,1.74.41,473.66,473.66,0,0,1,18.78,88.94c9.89,90.68-7.67,186.67-54.9,297.22q79.41-41.94,158.92-53.42c.63.76,1.47,1.46,2.12,2.22a5.15,5.15,0,0,0,.81,4.27c-.55,11.64-.55,11.64-10.44,22.44,7.08,2.74,14,2.21,21,.71q22.67-2.24,45.33-4.48c4.35-.43,7.75-2.79,9.15-6.73,1.84-5.2-.85-9.4-5-12.28a19.61,19.61,0,0,0-8.63-3.59c-10.25-1-20.56-1.5-30.84-2.19-1.11-.95-2.24-1.88-3.37-2.78a408.06,408.06,0,0,1,100.23,2.74c-.08.29-.19.57-.27.87a7.37,7.37,0,0,0,5.42,9.34,57.45,57.45,0,0,0,7.76,1.41c8.2.1,12.24-2,13.11-6.82,5.1,1.1,10.2,2.27,15.29,3.58,129.16,33,231.22,139.7,248.17,259.52,6.4,45.08,1.52,90.67-3.21,134.78-4.27,39.89-8.69,81.12-4.41,120.89,5.7,52.9,26.78,104,47.17,153.41,5,12.22,10.08,24.43,14.9,36.66,13.33,33.82,27,73.8,32.52,115.66a8.49,8.49,0,0,1-1-.3c-2.53.88-3.52,2.66-2,4.86.7,1,2.73,2.13,3.77,1.85C2823.37,2426.71,2822.75,2454.63,2816.16,2482.09ZM2207.39,1417.2c-.08,2.74,2.31,3.52,4.53,3.57s4.39-.43,4.56-4.06c-1.35-1.07-2.86-3.15-4.71-3.5C2209.47,1412.77,2207.47,1414.73,2207.39,1417.2ZM258.32,798.75c-1.32-2.89-3.46-5-7.1-4.24-1.18.86-2.71,1.48-3.48,2.61-1.77,2.63.28,4.32,2.19,5.49,2.58,1.56,5.56,3.25,8.17.26C258.83,802,258.84,799.89,258.32,798.75ZM326,438.59c-6.63-4.14-13.44-8-20.29-12-3.79,14.47-3.79,14.47-12.06,21.12,0,0,0,.07,0,.11-4.13-.23-7.94.08-8.95,5.24h0c-.23.57-.73,1.2-.62,1.7a20.42,20.42,0,0,0,1.17,3.13c2.17,4.32,4.18,8.67,2.8,13.67a8.54,8.54,0,0,0-5.19,5.15h0c-5.12,2.64-9.75,5.91-4.77,12.05,4,4.9,7.94,2.12,11.27-1.58,2.73-.54,4.46-2.06,4.87-4.88a4.65,4.65,0,0,0,3.19-4.8,3.48,3.48,0,0,0,1.92-3.68c2.45-1.33,4-3.22,3.74-6.17l.42-5-.36-4.8c1.53-3.05,3.81-5,7.39-4.9,4,.09,7.95.49,11.91.33,3.72-.14,5.52-2.9,6.13-6.17S329.1,440.52,326,438.59ZM376,350.08c.14,2.27,1.32,4.43,4.34,4.36,1.38-.52,3.27-.65,4.14-1.67,3.06-3.54,5.76-7.4,8.6-11.13,5.23-6.9,6.72-13,3.32-13.68-5.71-1.08-8.33,3.32-11.5,6.58a61.77,61.77,0,0,0-7.56,8.95A11.51,11.51,0,0,0,376,350.08Zm3.95,122.13a3.67,3.67,0,0,0-5.3-2.1c-3,1.61-3.76,4.51-2.07,7.46.5.88,2.37,1,3.62,1.44C379,477.61,381.34,475.78,379.9,472.21Zm79.56-53.81c4,.28,7.13-3.2,6.81-7.88a7.54,7.54,0,0,0-5.68-6.79c-5.92-1.84-12.42.39-18.32-3.39-3.47-2.22-7.48.21-10.66,2.91-4.37,3.7-7.66,7.93-7.88,13.94l-33,16.65a33.7,33.7,0,0,0-18.37,17.07c-.5,1,.19,3.23,1.09,4.12s3.22,1.32,4,.73c6.72-5.18,13.24-10.63,19.81-16h0c11.14-1.38,20.48-6,27.47-15h0C436.41,423.14,447.24,417.54,459.46,418.4Zm7.41,23.26a14.93,14.93,0,0,0-16.58-5.14c-1.2.39-2.9,2.44-2.72,3.41,1.29,6.84,7.79,6.28,12.53,8.1a5.9,5.9,0,0,0,4.5-.55c1.14-.66,1.67-2.35,2.47-3.58C467,443.14,467.24,442.18,466.87,441.66Zm50.78,9.75c.45-.66,1.37-1.39,1.29-2-1.55-10.69-7.09-19.39-14.18-27.18-.86-.95-4.16-1.24-4.17-1.19-2.56,8.43-11.41,7-16.72,11-.76.57-.61,3.11-.13,4.49,1.69,4.85,5.64,9.49,10.1,9a23.63,23.63,0,0,1,19.6,6.3C514.15,452.48,516.21,451.6,517.65,451.41Zm22.19,20.83c-3.06-9.06-10.9-12.13-22.82-9.35l.42,13.93h0c3.36,2.12,6.61,4.45,10.12,6.29,2.83,1.49,6,2.33,8.85-.18C539.6,480.08,541.22,476.35,539.84,472.24Zm599,1681.57c-.44-3.56-2.32-6-6-6.12-.72,0-2.17,2.47-2.17,3.8,0,3.46,1.52,6.35,5.59,5.86C1137.31,2157.24,1138,2155.05,1138.87,2153.81Zm872,742.51c.44,2.49,1.83,4.15,4.38,3.44.88-.25,1.9-2.28,1.78-3.37a4,4,0,0,0-4.46-3.81C2011.87,2892.66,2011.43,2895,2010.88,2896.32ZM1987,2865.6a20,20,0,0,0,1.28,3.64l2.46-2.27-2.24-2.83C1987.93,2864.63,1986.9,2865.2,1987,2865.6Zm-8.88-14.4c2.7.37,4.28-1.16,5.25-3.26,1.61-3.52-.07-6.16-3.19-7.42-2.41-1-4.29.94-5.14,3.09C1973.67,2847,1975.08,2849.51,1978.08,2851.2Zm-30.23-101.53c.33,1.08,2.24,1.67,3.42,2.49,5-.42,8.86-3.12,12.06-6.78,2-2.23,1-4.4-.86-6-3.46-3.1-7.21-2.81-10.63,0C1948.67,2742,1946.53,2745.37,1947.85,2749.67Zm-18.69,62.52c1.44,4.22,4.63,5.93,9,4.95,3.43-.77,4.8-3.34,5-6.75-1.36-3.79-3.63-6.69-8.16-6.45C1931.05,2804.16,1927.93,2808.61,1929.16,2812.19Zm-9.53-69.45c4.58,0,7.4-2.4,8.31-7.11a9.87,9.87,0,0,0-7.87-10.38c-4.67-.77-10.14,2.77-11.13,7.19C1907.83,2737.43,1913.13,2742.68,1919.63,2742.74Zm-98.69-16.7a9.31,9.31,0,0,0,4.8,4.23c2.54.88,4.6-1.19,5.29-3.45,1.38-4.45,2.22-9.07,3-12.28-.88-4.61-1.26-7.75-2.16-10.74-.41-1.35-1.67-3.07-2.87-3.38a4.89,4.89,0,0,0-4,1.64C1819.32,2709.29,1816.5,2717.2,1820.94,2726Zm-75.32-108.48c-2.1,3.22-3.08,7.17-4.48,10.83-.27.71-.59,1.76-.27,2.28.75,1.2,1.79,3,2.84,3.1,7,.61,15.63-5.89,15.48-10.53-.66-4-2.29-6.45-5.35-7.92A6.16,6.16,0,0,0,1745.62,2617.56ZM1707,2519.89c1.11,4.19,4.54,6.16,7.84,8.49,8.37,5.9,18.65,9.33,24.38,18.67a88.72,88.72,0,0,1-8.78,3.19c-2.42.62-4.49,1.36-4,4.23a7.2,7.2,0,0,0,2.35,3.94c5.46,4.38,11,6.49,16-.68h0c6-7.32,5.75-14.47-.57-21.47-3.74-4.15-8-8-11.1-12.55-5.77-8.67-14.7-8.45-23.26-9.09C1707.23,2514.41,1706.3,2517.24,1707,2519.89Zm-5.64,33.67a20.9,20.9,0,0,0,4.26,13.09c-1.22,10.76.22,20.84,7.21,29.64,2.34,2.94,3,8.17,8.35,6.86,4.49-1.11,5.25-5.68,6.5-9.34a62,62,0,0,0,2.89-11.65c.7-5.14-.85-9.42-6.06-11.84-2.9-1.34-5.57-3.18-8.35-4.79.55-5.79-1-10.93-5.42-14.79-1.58-1.39-4.12-2.6-6.08-2.41C1702.34,2548.55,1701.45,2551.07,1701.37,2553.56Zm-30.22,50c-1.44,1.6-3.32,3.77-1.25,6.34s5,4.09,8.36,3.33c11.75-2.67,18.35-12,17.71-24.69-.74-1.38-1.15-3.3-2.31-4s-3.62-.73-4.42.06Q1679.94,2593.77,1671.15,2603.51Zm-4.52-105.8c2.91,0,4.07-1.82,4.62-4.31-.09-2.87-1.86-4.43-4.44-4.11-2.12.27-4.68,1.12-6,2.63C1659.3,2493.67,1663.38,2497.66,1666.63,2497.71Zm-8.78,96.06a14.61,14.61,0,0,0,.72,4.47c1,3.39,3.74,5.21,6.82,4.37,1.48-.4,2.2-3.59,3-5a39.22,39.22,0,0,0-.52-5.3c-.78-3-1.79-6.28-5.75-5.58C1658.49,2587.38,1657.94,2590.69,1657.85,2593.77Zm-97.36-62.15c0,.41,1.21.72,1.68,1a9,9,0,0,0,10.22-3.79,4.21,4.21,0,0,0,.17-3.91c-.7-1-2.84-1.9-3.78-1.5a36.27,36.27,0,0,0-7.81,4.7C1560.28,2528.64,1560.38,2530.44,1560.49,2531.62Zm-19.32-33.13a4.84,4.84,0,0,0,2.25,3.79,4.61,4.61,0,0,0,4.3-.71c4.53-5.27,8.74-10.81,12.09-15,1.13-3.43.53-4.75-1.28-5.48-.68-.27-1.45-.81-2.07-.69C1547.38,2482.12,1542,2488.43,1541.17,2498.49Zm-25.59-54.87a90.71,90.71,0,0,0,12.41,11.15c1.77,1.37,4.41,1.72,6.72,2.25,2.09.49,6.72-4.3,5.79-9-2.79-4.47-5.82-12.43-11.5-17.31-4-3.44-10.75-7.48-17.67-3.58C1507.34,2429.38,1508.68,2435.84,1515.58,2443.62Zm-17.45,54.92h0c2.56,4,5,9.09,10.5,8.17,4.44-.75,8.93-3.14,12.61-5.86s3.22-11.18-1-15.06c-4.67-4.31-8.63-1.39-12,2.5l-10.09,10.25Zm437.15-410.14c.88,1.59,1.32,3.51,2.26,3.81,1.28.4,3.62.05,4.3-.87a12.94,12.94,0,0,0,2.07-6.08c.06-.44-3.07-2.08-3.79-1.64C1938.21,2084.8,1936.8,2086.81,1935.28,2088.4Zm192.26-118.48c3.23,1.17,4.49-1.21,5-3.39,1.16-4.77-1.67-9-5.35-8.48-2.5.4-4.26,1.9-4.46,5.14S2124.17,1968.7,2127.54,1969.92ZM1970.35,1853c.88.79,1.69,2.06,2.66,2.19.71.1,1.63-1.3,2.54-2.11a20.65,20.65,0,0,0-3.69-1.46C1971.46,1851.54,1970.86,1852.51,1970.35,1853Zm-73-1161c1.15.86,2.25,2.32,3.45,2.41s2.32-1.31,3.49-2.06c-1.1-.87-2.17-2.37-3.29-2.41S1898.52,691.23,1897.3,692Zm-21.54,138.58c.29,5.3,3.59,9,8.46,9.35,5.36.45,10.09-4.81,9.53-10.61s-6-10.52-11-9.52C1878.53,820.63,1875.47,825.37,1875.76,830.56Zm-20.84-514.75c-.06.32,1.14,1.1,1.85,1.26a45.64,45.64,0,0,0,4.68.57h0c-1-1.18-1.79-2.68-3-3.48C1856.72,313.05,1855.26,313.83,1854.92,315.81Zm2,404.6a5.12,5.12,0,0,0,5.73-2.95c.62-2.84-1.21-4.37-3.33-5.34a5.08,5.08,0,0,0-6.44,1.43C1851,715.93,1853.28,719.85,1857,720.41Zm-2.67,164.19c-.51-.13-1.89,1-1.82,1.29a30.31,30.31,0,0,0,1.8,4.05l1.86-1.52C1856.84,886.51,1856.26,885.07,1854.29,884.6Zm-10.88-296.87c.85.15,2-1.34,3-2.08-.51-1.37-1-2.74-1.52-4.11-1.3.49-3.21.6-3.78,1.53C1839.69,585.38,1840.94,587.29,1843.41,587.73Zm-7.54,128.6c5.27-.08,9.86-3.54,10.07-7.61.18-3.59-3.61-7.81-7-7.85-4.42,0-9.24,3.79-10.11,8C1828.08,712.41,1831.88,716.38,1835.87,716.33Zm8.4,186.07c-4.29-5.32-10.53-6.58-16.82-7.55-.87,1.27-2.58,2.7-2.33,3.58,1.86,6.48,8.4,10.8,16.38,10.83,1.19,0,2.94-1.44,3.43-2.63A5,5,0,0,0,1844.27,902.4Zm-38.91-86.54c5.43,3.38,12,5.49,16.4,9.81,4.2,4.11-2.15,3.81-4.09,5.27-2.23.31-6.19.14-6.42,1-2.49,9,2.22,16.39,10.41,16.93,3.19.21,6.42-.16,9.63-.27a5.68,5.68,0,0,1,1.84-3.46c.52,0,1-.14,1.55-.19.93-.11,1.86-.2,2.78-.34-.09-4.06-.52-7.94-5.1-9.62h0c.94-1.29,2-2.53,2.79-3.89,5.44-8.92,4.73-14.47-3-17.23a177.18,177.18,0,0,0-23.14-6.05,4.29,4.29,0,0,0-5,4C1803.81,813.15,1804.38,815.25,1805.36,815.86Zm-3.46,60.46c1.12.95,2.52,2.29,3.79,2.26,6.2-.17,10.84-4.74,10.23-10.07-.12-1-2-1.8-3.09-2.69-4.6.73-7.64,3.08-10.5,8.29C1802,874.76,1801.61,876.07,1801.9,876.32Zm-10.31-330.48c-8.71-16.26-17.26-32.63-26.55-48.56-4.82-8.26-9.26-9.47-12.57-5.26-4,5-1.52,8.55,2.55,12.11,8.11,7.08,13,16.17,15.75,26.53,1.24,4.64,3.08,9.13,4.68,13.67,1.79,5.06,6.1,7.37,10.65,9,2.29.81,4.52-.66,5.9-2.88C1791.89,548.92,1792.27,547.1,1791.59,545.84Zm-49.75-73.62,3.55,4.35h0c4,2.6,8.21,5,13.21,4.58a6.8,6.8,0,0,0,6.44-6,8.34,8.34,0,0,0-2.4-6.19c-1.6-1.44-4.37-1.57-6.63-2.27l-14.62,1A4.69,4.69,0,0,0,1741.84,472.22Zm-34.09-75.77c2.37,6.44,9.76,9.42,18.06,7.69,1.13-.24,1.91-2.09,2.8-3.13,0-.87.32-1.87,0-2.43-4.53-7.06-12-10.57-18-7.86C1709,391.41,1707.22,395,1707.75,396.45Zm4.81,100.82a6.72,6.72,0,0,0-9.35,4.37c-.76,2.42,1.59,3.34,3.63,4.09a6.35,6.35,0,0,0,7.86-2.84C1715.9,500.92,1714.74,498.35,1712.56,497.27Zm-20.31-53.41c1.4,8.9,4.74,16.87,12.26,22.26,1.65,1.18,4.54.63,6.85.87h0c3.43-4.78,2.25-9.74.53-14.71-4.94-3.94-9.81-8-14.92-11.68-.69-.5-2.69.53-3.92,1.17A2.48,2.48,0,0,0,1692.25,443.86Zm-11.52,133.69c.58,3.88,4.86,4.49,11.47,1.51,2-.9,3.58-2.71,5.35-4.11h0c5.64-4.32,4.06-11.61,6.82-17.17.47-.94-1.88-4.06-3.59-5.14-2.51-1.59-4.16.91-5.77,2.56-3.66,3.78-3.31,8.65-3.7,13.33a17.06,17.06,0,0,0-2.29.26C1684.41,570,1679.82,571.4,1680.73,577.55Zm-49.27-269.79a5.18,5.18,0,0,0,2.35,3.77c8,4.27,19.07-1.68,20-11.13-1.1-1.49-2.07-4.21-3.91-5C1641.65,291.56,1631.4,298.54,1631.46,307.76Zm14.81,51.14c-.45-.49-1.44-.46-2.19-.67-.62.44-1.65.77-1.79,1.33A15,15,0,0,0,1644,370.5c.31.57,1.41,1.31,1.78,1.15,1.14-.5,2.73-1.22,3-2.18A10.41,10.41,0,0,0,1646.27,358.9Zm-12.06-11.63a31.09,31.09,0,0,0-2.67-8.94c-.91-2.13-2.91-4.2-5.33-3.27a9.65,9.65,0,0,0-4.78,4.57c-.94,2-.63,4.56-.87,6.88a5.43,5.43,0,0,1,3.88,4.89c2.09,1,4.18,2.77,6.29,2.78C1635.63,354.21,1634.5,350,1634.21,347.27Zm-11.29-202.49c-.08,2.74,2.31,3.52,4.53,3.57s4.39-.43,4.55-4.06c-1.34-1.06-2.85-3.15-4.7-3.5A3.89,3.89,0,0,0,1622.92,144.78Zm-3.76,107c.18,2.66,1.6,4.15,5.64,4.74,1.65-.84,4.62-1.86,7-3.64,5.3-4,7-9.36,4-11.46-4.91-3.36-8.82-.37-12.6,2.44C1620.58,245.8,1618.93,248.35,1619.16,251.79Zm-16.25,245.83c-12.71,4.92-25,10.12-30.28,24.35-.68,1.82-3.71,2.77-5.66,4.13h0c2.72,6.58,9.89,8.27,14.3,13h0c27.76,2.58,53-5.43,77-18.52,2.48-6.33,8.83-8.33,13.5-12.25,9-7.57,7-16.87-4.47-20.79-2.84-1-6.12-.67-9.2-.95h0c-1.41.71-2.87,1.35-4.24,2.14-10.75,6.23-20.49,15.33-34.75,7C1614.75,493.24,1608.27,495.54,1602.91,497.62Zm57.25,32.82a36.33,36.33,0,0,0-7.06,1.45c-3,1.09-5.31,3.31-5.43,7-.18,5.67,4.08,14.32,7.16,13.89,5.33-.74,7.66-5.16,9.87-9.39a24.06,24.06,0,0,0,2.7-6.54C1668.07,533.16,1666.41,530.79,1660.16,530.44Zm-88-92.82c-3.47,3.19-6,6.71-10.93,8.57s-6.27,10.56-3.82,16.63c1.9,4.71,6.08,4.19,10.08,4.12,11.67-.2,23.28-4.8,35.47,1.37,2.8-7.29,5.46-13.05,7.2-19.07,1.57-5.41-1.61-11.59-6.36-14.32C1596.11,430.48,1578.91,431.43,1572.18,437.62Zm-.5-225.92c.51,7.89,4,13.27,12.83,13.4h0q.57-6.91,1.13-13.82a41.75,41.75,0,0,0-5.72-4c-2-.95-4.69-2.18-6.34-1.49C1572.31,206.35,1571.55,209.69,1571.68,211.7Zm-13.43,15.82.58,1.64,1-1.44ZM1444.88,423.87c.14,8.82,1.78,10.26,8.62,9.52,9-1,16.11-5.32,22.81-10.52q2-1.56,4-3.19c3.88-.9,7.85-1.53,11.63-2.76,12.07-3.91,12.27-4,15.19,10.05,1.09,5.28,3.63,8.61,8.35,10.86a85.86,85.86,0,0,1,8.17,5h0c7.82-4,13.26-11.48,21.95-14.36,4.68-1.55,5-5.7,2.58-9.74a9.11,9.11,0,0,1-.46-9h0c.61-1.31.89-3.05,1.9-3.86,2.81-2.21,7.7-3.85,3-8.15-5.22-4.77-7.94-11-11.57-16.73a9.25,9.25,0,0,1,2.4-2.43c3-2.08,6.76-2.32,10.16-3.52,4.84-1.71,7.74-.65,7.74,4.76,0,4.26,1.18,7.67,4.8,10.05.14-1.3.25-2.59.35-3.89l2.72-.09,11.67-.41c.46-10.38-4.88-16.38-14.48-19.18h0q-21.84-3.12-39.16,5.3h0a183.32,183.32,0,0,0-53.13,27.55c-14.61-.5-21.48,10-28.66,20.11A35.2,35.2,0,0,0,1444.88,423.87Zm68,24.46h0a33.46,33.46,0,0,0-4.2-2.35c-7.27-2.78-11.17-.46-10.71,6.27s4.92,11.48,10.47,10.14c6.62-1.59,5-7,4.63-11.66-.06-.79-.14-1.59-.21-2.39ZM1465,462.06h0c3.81-.21,8.24.83,9.29-4.78.64-3.41-.2-6.59-2.94-8.45-4.65-3.16-9.85-5.23-15.68-5l0-.24c0,.08,0,.15,0,.22q.18,4.56.38,9.1h0Zm-5,49.91c-1.22-.22-3.26-.05-3.76.71-1.27,2-.69,4.18,1.68,4.84.89.25,2.27-1.3,3.43-2C1462.24,513.76,1461.84,512.32,1459.94,512Zm-44.2,64.82c0,.21,1.33.65,2.08.77,7.7,1.2,9.38.07,12.92-8.55a28.89,28.89,0,0,0,3.94-2.39c1.69-1.44,3.58-3.51,2-5.59s-4.19-1.81-6,.24c-2.06,2.3-3.89,4.8-5.82,7.22h0c-2.76,1.3-5.68,2.35-8.17,4C1415.75,573.15,1415.85,575.32,1415.74,576.79Zm-22.1-129.4c5.49-3.65,11.44-8.31,15.71-14.95,1.4-2.18,1.42-4.82-.54-6.24-1.65-1.19-4.54-2.06-6.3-1.44-8,2.85-11.94,9.58-14.19,17.3C1387.56,444.68,1389.49,446.26,1393.64,447.39Zm-7.77,133.19c.88.79,1.7,2.06,2.66,2.2.72.09,1.63-1.31,2.55-2.12a20.94,20.94,0,0,0-3.69-1.46C1387,579.12,1386.38,580.09,1385.87,580.58Zm-22,116.7c-9.34,6.5-16.59,14.45-16,25.05.4,4.29.49,6.67.88,9s.58,4.64,3.6,5.09a4.66,4.66,0,0,0,5.43-3.36c3.2-10.65,8.68-20.18,13.93-29.86,1.07-2,1.22-5.08-1.45-6.12C1368.37,696.34,1365.34,696.23,1363.84,697.28Zm-16.76-142.37c-.16.94,1.37,2.16,2.14,3.26,1.28-.7,3.23-1.14,3.65-2.19s-.17-3.7-1-4.08C1349.29,550.75,1347.49,552.51,1347.08,554.91ZM1333,677.26c3.64,8.81,9.79,14.39,19.19,16.31,2.73.55,6.66-3,6.27-5.69-1.89-13.13-8.06-18.65-20.4-18.25C1332.86,669.8,1331.12,672.77,1333,677.26ZM1314.6,836.13c-1.15.76-3.15,1.44-3.25,2.32a4.93,4.93,0,0,0,1.85,3.91c2.13,1.43,5.3-1,4.46-3.4C1317.24,837.8,1315.66,837.06,1314.6,836.13Zm-32.27-131.45c1.45,3.27,4.33,4.69,7.59,5.15,9,1.26,15.58-2.39,19.71-10.47h0l.08-.09c4.09-1.89,5.12-5.3,4.69-9.43h0c2-4.5,4.44-9.29-3.8-9.66-3.13-.13-6.32.68-9.44.41-10.09-.86-14.15,5-15.84,13.67C1281.65,697,1280.42,700.39,1282.33,704.68Zm-11,253.87c8.58-7.09,10-14.18,9.53-22.09.52-2.84,1.14-5.66,1.52-8.51.66-4.8-1.29-6.63-6-4.94h0C1267.24,933,1271.73,944.7,1271.36,958.55Zm-50.31-58.31c0,2.32,3.81,2,6.21,1.93a6.44,6.44,0,0,0-.11-3.86h0C1224.79,898.25,1221.06,897.68,1221.05,900.24Zm-216.51,179.83a9.92,9.92,0,0,0,7,8.69c3.73,1.2,8.17-3.91,8.37-9.26.18-5-4.16-10.67-7.74-10.15S1004,1075.85,1004.54,1080.07Zm-9.31,32c-2.12,4.71,0,8.92,5.36,11s10.29.85,12.19-3.35a57.21,57.21,0,0,0,2.37-7.26c-.12-2.49-.13-3.27-.2-4-.4-4-1-8.09-5.47-9.36s-7.34,1.64-9.63,4.87A49,49,0,0,0,995.23,1112.07Zm-33.9-131.84h0c.83,1.21,1.72,3.52,2.48,3.47,8.83-.51,18.26,2.56,26.18-3.92h0l.41-.46c5-6.52,4.39-14.51,5.66-22,.55-3.25-1.31-5.77-4.16-7.42h0c-.69-3.05-2.44-4.71-5.7-4.39-2-3.31-3.81-3.06-5.53.27h0c-3.33-.14-5.49,1.54-6.87,4.42h0a1.76,1.76,0,0,0-2.49,1.68,13.71,13.71,0,0,0-9.22,8.84l-.34.43C955.22,970.32,955.2,971.15,961.33,980.23ZM920.44,877.46c6,.13,11.1-5.79,11.43-13.21.37-8.31-4.31-13.43-12.94-14.16-6.53-.55-10.45,3-10.8,9.9C907.64,869.9,912.85,877.3,920.44,877.46Zm-103.19-21c0,3.21.28,6.54,4.66,6.11,3.22-.32,6.14-2.05,7.21-5.25,1-2.93,1.18-6.13,1.61-8.57-.42-3.86-.6-7-1.13-10.11-.58-3.38-2.76-6.19-6-6.57-5.55-.66-5.87,3.93-6.07,7.82C817.26,845.42,817.29,850.94,817.25,856.47ZM792.17,964.68c-19.3,42.48-23.47,88.79-23.1,134.94.84,103.27,22,205.4,56.66,302.76.9,1.86,1.73,3.74,2.63,5.59,9.95,20.37,20.4,40.47,31.13,60.42a6,6,0,0,0,2.56,4.73q5.55,10.26,11.19,20.49c-1.9,2.05-5.3,2.51-8.54,3.46-3.79,1.11-3.58,4.61-1.05,7,1.49,1.43,4,1.79,6.05,2.62A38.88,38.88,0,0,0,884,1513l4.79,8.55a143.21,143.21,0,0,0,22.72,17.69A132,132,0,0,0,943,1553.42a121.81,121.81,0,0,0,18.26,4.15c2.76.37,12.41,1.55,14.52,1.8,5.76.67,12.84,1.73,18.54.53,2.74-.57,4.48-2.39,6.5-5.05,7.92-10.43,13.79-24.39,16.26-37.15a130.27,130.27,0,0,0,2.27-22q-6.42-20-12.14-40.28c.42-.32.84-.63,1.27-.93s.83-1.81.57-2.08c-1-1-2.48-2.55-3.32-2.33-.36-1.33-.74-2.65-1.1-4-9.41-31.74-17.34-63.94-19.94-96.43-2.23-16-4-32-4.95-48a283.07,283.07,0,0,1,.15-35.8c0-1.79,0-3.57.09-5.35a8.88,8.88,0,0,0,8-4.1,4.21,4.21,0,0,0,.17-3.91c-.7-1-2.84-1.9-3.79-1.5a30.53,30.53,0,0,0-4.12,2.16c.63-16.07,2.19-32.07,4.23-48.11,1.57-12.53,2.63-25.23,4.94-37.64.27-1.31.39-2.6.6-3.89a605.13,605.13,0,0,0-9.26-98.44c-5.83-32.17-13.13-66.45-33.47-92.93-17.44-22.72-44-37.48-72.08-42.2a99.1,99.1,0,0,0-12.74-1.29c-1.19-1.59-3.53-1.77-5.6-2.19-2.95-.6-6.09-.09-7.29,2.5a108.14,108.14,0,0,0-46.79,15.7C798.9,951.29,795.24,957.93,792.17,964.68Zm222.48,634.47h0c3.93,4.49,8.58,2.22,13.26,1.74,6.53-.66,16.82,4.16,17.09-6.26.19-7.7-10.58-8.33-17.08-10.59-6.75-2.35-12,3.11-17.74,5.48Zm-15.86,26.74c-2.43-.71-4.55,1.23-4.9,3.75a6.21,6.21,0,0,0,4.64,7.25c2.48.7,4.36-.8,4.94-3.56C1003.36,1630,1002.14,1626.87,998.79,1625.89Zm-18-25.51c-5.72-1.08-8.34,3.32-11.5,6.58a61.22,61.22,0,0,0-7.57,9,11.51,11.51,0,0,0-1.34,6.59c.14,2.27,1.32,4.42,4.34,4.36,1.38-.52,3.27-.65,4.15-1.67,3.05-3.55,5.75-7.4,8.59-11.14C982.73,1607.16,984.23,1601,980.83,1600.38Zm-85.11-8.6c-.59.29-1.65.54-1.68.89-.14,1.26-.34,2.8.25,3.77.82,1.31,2.18.79,3.09-.94C896.83,1594.26,896.28,1593,895.72,1591.78ZM775.31,933.45c-.89,2.87,4.1,6.74,8,6.19,3.25-.46,6.27-2.44,6-5.76s-3.55-4.71-6.83-5.12C779.23,928.93,776.33,930.11,775.31,933.45Zm-2.52-74.67c2.66.53,4.59-.67,4.33-3.53-.09-1-1.78-1.81-2.74-2.7-1.15.89-2.61,1.58-3.35,2.73C770,856.81,770.84,858.4,772.79,858.78Zm-2.7,129.54c-5.9-2-11.9-5-19.39-1.18,3.95,5.11,5.45,11.65,11.34,15a7.43,7.43,0,0,0,8.91-.93c2.44-2.15,4.63-5,3.83-8.26C774.33,991.1,772,989,770.09,988.32Zm-26.44-276c.61,5.39,7.45,11.77,13.19,11.5,3.56-.17,5.1-3.2,5.42-6.38.32-8.42-3.57-14.11-9.47-14.14C748.38,703.29,743.21,708.4,743.65,712.34Zm0,391.13c5.65.14,10.43-2.06,13.53-7.06a5.81,5.81,0,0,0,.28-2.26c-.32-.59-.49-1.36-1-1.73-5-3.84-14.67-.2-16.63,6.46C739.06,1101.57,741.4,1103.42,743.65,1103.47Zm120.67,565.27c-.41-3.09-1.35-5.9-5-6.54-3.26-.57-6,.12-6.54,4-.35,2.69,1.59,4.06,3.69,5C859.73,1672.71,862.25,1671.49,864.32,1668.74Zm3.86-16c-2.48-4-5.92-3.94-9.17-.45h0l-5-3.9h0l-13.95.14a9.43,9.43,0,0,0,7.52,7.59c3.69.9,7.31,2,11,3,3.18,3.59,6.6,3.64,9.23-.23C868.84,1657.44,869.1,1654.25,868.18,1652.77Zm99.55,186.39c-1.94-5.52-7.19-5.29-11.83-5-7.79.47-15.56,1.33-23.33,2-8-1.15-15.93-2.5-23.93-.28-1.56,3.93-4.63,7.38-8.35,7.75-10.62,1.09-12.17,7.63-11.4,16.23,2.65,5.57,4.66,11.58,8.09,16.62,5,7.38,10.91-6.17,16.54,0a5.14,5.14,0,0,0,6.36,1.16c1.26-.61,2.11-2.06,3.15-3.14,3.64-5.34,10.68-5,15.11-9,6.5-7.1,15.28-10.7,23.38-15.35C965.75,1847.76,969.67,1844.7,967.73,1839.16Zm75.55,161.34c-1.84-.7-3.64-.33-4,1.5-.25,1.28.89,2.83,1.41,4.26,1.37-.63,3.13-.92,4-2C1046,2002.73,1045.25,2001.25,1043.28,2000.5Zm29.7-112.14q-30.2-43-59.3-86.83a3.34,3.34,0,0,0-.85-1.3c-3.1-4.66-6.16-9.35-9.23-14,.91-.19,1.86-.35,2.85-.46,3.09-.34,3.51-6.17.62-7.45a75.61,75.61,0,0,1-13.71-7.72q-14.45-22.23-28.51-44.69c5.7-4.49,11.3-9.11,16.92-13.7h0c11.14-1.37,20.49-6,27.47-15h0c11.63-1.61,22.46-7.21,34.68-6.35,4,.28,7.14-3.2,6.81-7.88a7.51,7.51,0,0,0-5.68-6.79c-5.91-1.84-12.41.39-18.32-3.39-3.46-2.22-7.48.21-10.66,2.91-4.36,3.7-7.66,7.93-7.87,13.93l-33,16.66A33.51,33.51,0,0,0,960,1718.13q-52.53-84.24-100.06-171.46c-22.58-41.46-44.28-83.94-63.67-127.38a13.59,13.59,0,0,0,9.3-1.68,8,8,0,0,0,4.43-7.71c-.57-9.8-5.12-18.15-10.08-26.21-2.28-3.72-6.44-4.76-10.41-2.92-2.72,1.26-5.39,2.65-8,4.13q-9.86-24-18.56-48.38c.41,0,.84-.09,1.21-.09,1.28-.94,3.21-1.59,3.54-2.72,2.21-7.53,4.36-15.1,6-22.79,1-4.85-6-11.78-10.69-9.72a32.58,32.58,0,0,1-11,2.48c-25.27-80.09-39.36-164.91-34.65-249.06a328.28,328.28,0,0,1,9.59-63c-6.18-23.76-20.86-46.66-45.14-53A48.78,48.78,0,0,0,649,941.88c-8.63,49.25-15,98.75-12.14,149.54,1.22,21.67,3.94,43.26,7.26,64.75q4.92,23.28,10.69,46.38c1.26,11.57-.17,23.09-1.49,34.65-.08.67.64,1.43,1.48,3.17,3.14-.43,6.33-.88,9.54-1.34q4.65,17,9.61,33.93a1353.63,1353.63,0,0,0,79.39,206.65c15.27,27.09,31.55,53.61,48.58,79.47q8.39,12.75,17.14,25.24c-1,.09-1.9.16-2.85.3-4.37.63-7.19,3.39-7,8.07.28,6.2,5.51,11.27,10.59,10.62a57,57,0,0,1,12.73,0c45.25,62.23,96,120.2,147.06,177.91-.37,6.41-3.14,11.5-6.92,16.92a138.91,138.91,0,0,0-11.41,20.72c-1.45,3.09.43,6,3.81,7.33,2.67,1.31,4.73-.16,6.5-1.65a34,34,0,0,0,9.55-13.41c2.61-6.32,5.28-12.63,9.54-17.4C1018.43,1825,1046.14,1856.36,1073,1888.36Zm-21.64-174.28a14.92,14.92,0,0,0-16.57-5.15c-1.21.4-2.91,2.44-2.73,3.42,1.3,6.84,7.8,6.28,12.53,8.1a5.94,5.94,0,0,0,4.5-.55c1.14-.67,1.68-2.35,2.47-3.59C1051.49,1715.56,1051.72,1714.59,1051.34,1714.08Zm50.78,9.75c.46-.66,1.38-1.39,1.29-2-1.55-10.69-7.08-19.39-14.18-27.18-.86-1-4.16-1.24-4.17-1.19-2.56,8.42-11.41,7-16.71,11-.77.58-.62,3.12-.14,4.49,1.69,4.86,5.64,9.5,10.11,9a23.62,23.62,0,0,1,19.59,6.3C1098.63,1724.9,1100.69,1724,1102.12,1723.83Zm22.19,20.83c-3.06-9.06-10.9-12.13-22.82-9.35l.42,13.93h0c3.37,2.12,6.62,4.44,10.12,6.29,2.83,1.49,6,2.33,8.85-.19C1124.07,1752.5,1125.7,1748.77,1124.31,1744.66Zm65.25,503.47-47.2-6.91c-7.19-4.42-14.31-6.11-21.21.52h0c-5.68,3.26-4.39,6.63-.19,10.05,5.15,6.72,10.36,4.72,15.57.09h0C1152.6,2250.21,1169.12,2257.19,1189.56,2248.13ZM1205,2119.54c-.92-3-1.72-6.48-3.77-8.59-6-6.22-7.28-11.34-.07-17.93,2.73-2.49,1.7-7.58-2.64-10.08-8.27-.76-8.27-.76-10.81,8.73h0c-3.59-1.7-7.16-3.46-10.79-5.07-2.18-1-4.64-1.67-6.37.59a4.78,4.78,0,0,0,.42,6.52c10.12,9.05,19.47,18.63,25.56,31.05.57,1.14,4.53,1.52,6.46.88C1205.45,2124.82,1205.7,2121.84,1205,2119.54Zm47.59,198.94c2.68-.3,3.93-2.35,4.4-4.86-.7-2.71-2.82-3.38-5.18-3.22-2.58.18-4.65,1.46-4.19,4.4A4.22,4.22,0,0,0,1252.59,2318.48Zm23.56,14.75a14.83,14.83,0,0,0-10.62-4.57c-5.13-.07-9.25,1.73-11.59,6.61-1.84,3.86.59,7.44,7.14,10.18,2.89,1.21,5.9,2.14,6.91,2.51,5.7.61,8.33-1.19,10-4C1280.17,2340.07,1279.31,2336.42,1276.15,2333.23Zm65.78,33.33c-.32-.58-.49-1.35-1-1.72-5-3.84-14.68-.2-16.64,6.46-.79,2.69,1.55,4.53,3.8,4.59,5.65.14,10.43-2.06,13.53-7.06C1342,2368.24,1341.85,2367.33,1341.93,2366.56Zm50.36,58.89,0,0c-1.49,1.65-3.45,3.09-4.33,5s-.79,4.66,2.07,5.56c.23.08,1.59-2.28,1.83-3.61A54.83,54.83,0,0,0,1392.29,2425.45Zm9.89,10.52h0c-.63,5,.37,10.54-4.82,14,0,.15,0,.31,0,.47q.08,4.4.17,8.78v0c.73.79,1.45,1.59,2.18,2.39L1402,2464h0a32.41,32.41,0,0,0,4.82.39c1.2-6.79,2.66-13.55,3.53-20.38C1411.09,2438.24,1407.89,2435.65,1402.18,2436ZM1551,2309c-.7-9.11-6-15.95-12.65-21.78-.64-.57-3.75.19-4,.92a65.55,65.55,0,0,0-1.87,9.12c.3,3.28,0,6.59,1,9.48,1.68,5,6,7.42,11,7.65C1547.72,2314.51,1551.29,2312.67,1551,2309Zm226.38-490.25c.55-.81-.15-3.15-1-4.13-3.58-4.09-8-3.95-12.25-1.27-1,.61-1.15,2.5-1.6,3.58.7,4,3.88,4.33,6.84,4.89A7.53,7.53,0,0,0,1777.38,1818.72ZM1793,1966.4c-.58-1.27-1-3.48-1.82-3.7a3.67,3.67,0,0,0-4.8,3.27c-.13,1.17.87,3.27,1.84,3.61C1790.71,1970.48,1792.33,1968.94,1793,1966.4Zm124.47-16.72c3.63,8.8,9.78,14.39,19.18,16.3,2.74.56,6.67-3,6.28-5.68-1.9-13.14-8.07-18.65-20.41-18.25C1917.33,1942.22,1915.6,1945.19,1917.45,1949.68Zm3.48,40.48c3.53.39,6.09-.88,7-4.19,1.19-3.56-1.4-4.47-3.47-5.32-3.41-1.4-6.31.14-8.35,2.77C1914.66,1985.35,1917.94,1989.83,1920.93,1990.16Zm-25.86-37.56c-3.13-.14-6.32.67-9.43.41-10.1-.86-14.16,5-15.84,13.67-3.67,2.71-4.91,6.13-3,10.42,1.45,3.27,4.33,4.69,7.59,5.14,9,1.27,15.58-2.38,19.71-10.46h0l.08-.09c4.09-1.89,5.13-5.3,4.69-9.44h0C1900.83,1957.76,1903.32,1953,1895.07,1952.6Zm-8.74-98.23c-.48,2.84,1.19,4,3.64,4.29a8.06,8.06,0,0,0,7.12-4.91c1-2.06,1.56-4.52-1-5.86a5.47,5.47,0,0,0-4.17-.08C1889.08,1849,1886.87,1851.12,1886.33,1854.37Zm-4.53-35.09a17.69,17.69,0,0,0,3.33,1.45c.37.08,1-.88,1.48-1.37-.86-.81-1.61-2-2.62-2.27C1883.51,1817,1882.54,1818.49,1881.8,1819.28Zm-22.5,56.16c-2.83,6.63,1.18,15.38,8.19,16.87a8.47,8.47,0,0,0,6.41-1.86c4.07-3.61,3.89-8.48,2.08-13.15a10,10,0,0,0-7.93-6.52C1863.79,1870.47,1860.56,1872.5,1859.3,1875.44Zm-24.67-38.25c.27,2,6,4.39,8.22,2.91,5.91-4,11.68-8.18,17.29-12.57,1-.79,1-2.9,1.42-4.4a8.4,8.4,0,0,0-4.55-7.83,6.28,6.28,0,0,0-8.51,1.87c-3.47,4.82-2.33,12.8-10.56,14.46C1835.67,1832.09,1834.24,1834.41,1834.63,1837.19Zm-7.16,171.9c.25,3.14,2.07,6.18,2.14,9.29.34,15,5.42,19.66,21.84,13.22,2.81-1.1,6.15-1.56,7.94-5.76-3.14-5.65-6.45-11.9-10-18a11.68,11.68,0,0,0-5.29-4.95c7.6-2.77,15.76-4.57,19.82-13.5,2.23-4.91,1.5-11.66-1.88-12.75-4.54-1.46-7.35,1.1-10.14,4.31-3.63,4.17-7.9,7.8-11.46,12a12.44,12.44,0,0,0-2.26,6.54,3.68,3.68,0,0,0,1.06,2.27,32.35,32.35,0,0,0-6.74.44C1828.63,2002.8,1827.22,2005.77,1827.47,2009.09Zm-17.67,39.65c-1.36,1.91-2,4.3-3.36,6.26-1.57,2.35-4,2-6.41,1.47-3.4-.77-7.77-4.55-9.54,1.44-1.19,4,3.4,4.69,5.92,6.3,3.71,2.38,5.61,5.58,4.79,10-1,5.48-2.17,10.92-2.84,14.25,0,3,0,3.8,0,4.59.1,2.44.79,5.11,3.48,5,2.05-.07,4.88-1.37,5.91-3a70.8,70.8,0,0,0,6-12.85c3-8.16,5.21-16.31,12.1-22.86,5.82-5.52,1.89-18.65-6.79-21.48C1811,2035.21,1812.65,2044.75,1809.8,2048.74Zm-8-428.42c1.55,1.31,2.57,2.8,3.85,3.08s3.51-.11,4.3-1.06c4.67-5.57,8-11.87,8.56-19.27.07-1.1-1.43-2.86-2.61-3.37s-3.52-.6-4.51.18C1804.68,1605.14,1802.34,1612.46,1801.76,1620.32Zm-16,209.33a23.18,23.18,0,0,0-2.52,0c-5.39.21-8.39,5.52-5.39,10,5.76,8.63,11.62,17.19,17.75,25.56,4.32,5.9,7.46,5.79,13.73.31,5.44-4.76,5.7-5.93-.34-9.91-4.77-3.14-7.19-5.33-2.88-11,5.21-6.83,3.59-11.28-3.9-12.85C1797.59,1830.79,1792.78,1830.52,1785.81,1829.65Zm-6.58-117.72c4.76-.25,8.36-3.1,8.18-6.48-.23-4.33-5.11-8.4-9.83-8-4.36.42-7,3.19-8,7.26C1768.55,1709,1773.08,1712.26,1779.23,1711.93ZM1761,1788.66c.31,1.16,2,1.95,3.79,3.51,4-1.38,8.47-2.75,12.76-4.57.94-.4,1.8-2.53,1.6-3.67a5.35,5.35,0,0,0-2.67-3.51c-5.69-2.32-10.89-1.65-14.52,3.85A6.09,6.09,0,0,0,1761,1788.66Zm-2,196.87a20.2,20.2,0,0,0-1.55-3.43c-.51.47-1.52,1.08-1.43,1.38a22.62,22.62,0,0,0,1.64,3.59C1758.2,1986.52,1759.14,1985.89,1759,1985.53Zm-88-383.64a194.44,194.44,0,0,0-51.56-34.87,5.66,5.66,0,0,0-.24-1.17c-1.45-4.68-7.75-8-13.15-7.45a4.25,4.25,0,0,0-2.8,2,187.29,187.29,0,0,0-22.07-6.44c-11.08,81.53-32.46,161.68-57.54,240.5a13.24,13.24,0,0,0-2.94,7.61,9.92,9.92,0,0,0,.07,1.35c-14.28,44.32-29.64,88.22-44.93,131.71-20.21,57.54-41.72,114.6-63.93,171.4a6.11,6.11,0,0,0-3.81-2c-5.55-.66-5.87,3.93-6.07,7.82-.13,2.38-.19,4.77-.23,7.15a22.13,22.13,0,0,0-6.45-2.74l-.29-.06c23.94-60,47-120.38,68.62-181.32,22.74-64.29,42.87-129.75,59.78-195.79,16-62.45,28.1-125.66,42.39-188.45-29.89-4-59.75-.29-85.69,12.14-1.19.57-2.35,1.18-3.51,1.77a24.84,24.84,0,0,0-11.85-.06h0l-4.29-.14c.06-.39.09-.79.18-1.18-5.38-5.92-13.31-4.81-20-7.05-4.14-1.38-7.68.56-10.22,4.28-1.8,2.63-4.22,4.87-5.89,7.57-5.31,8.61-2.59,15.44,6.86,18.33a33.48,33.48,0,0,0,11.72,1.23h.38a209.29,209.29,0,0,0-28.08,31.12c-1.62,0-3.24,0-4.85.2h0c-14-5.46-28.7-5.63-43.45-5-.1,3.25-.19,6.5-.29,9.74h0c4.25,2.57,8.84,4.76,11,9.73-.47,11.42.12,11.81,13.11,8.65h0c4-3.92,7.53-7.37,13.13-6.75-4.88,7.67-9.41,15.53-13.62,23.47a55.48,55.48,0,0,0-14.47,3.11q1,4.63,1.93,9.25h0a7.06,7.06,0,0,1,3.46,1c.79-.08,1.57-.11,2.34-.12-6.25,12.82-11.77,25.62-16.72,37.83-2.68,6.6-5.27,13.24-7.82,19.89-6.65.34-13.34,0-20,0-.37,1-.73,2.05-1.1,3.07,5.75,2.37,11.52,4.65,17.26,7q-5.28,14.17-10.19,28.52c-4.21.49-8.7,4.36-8.7,7.86a12,12,0,0,0,3.5,7.75q-12.23,37.59-21.83,76.09c-2-2.48-4.31-4.92-7-8.09a26.15,26.15,0,0,1-14.72,6.54c.56-2.27,1.11-4.54,1.68-6.8,8.86-59.47,19.06-118.65,31-177.61,4.35,1,8.72,1.92,13.1,2.73,5.41,1,9.42-1.66,11.55-6.41,1.59-3.53,3.91-8,2.95-11.16-2.93-9.56,1.61-18.92-.14-29.06-5.78-1.61-11.49-3.38-17.3-4.41,1.73-7.91,3.46-15.81,5.26-23.7q14.34-63,30.45-125.81a24.66,24.66,0,0,0,4-3.7c2-2.23,1-4.4-.87-6-.15-.14-.32-.24-.48-.37q6.56-25.14,13.46-50.23a61,61,0,0,0,19.69,3.72c3.56.27,4.46.6,5.14.34,2.09-.78,4.75-1.27,6-2.82,1.62-2.06.24-4.69-1.58-6.34-7.3-6.59-15.85-9.37-24.79-10.89q14.74-52.62,31.24-104.74c2.93-1.35,5.53-4.07,6.19-7,.49-2.22-.16-4.92-1.52-7.61q17.4-53.82,37-106.85a9.94,9.94,0,0,1,1.28,4.22c.54,6.8,2.46,6.59,9.66,0l.12-.14c4.94-3.43,13.53-5.46,12.64-12.07-1.64-12.16,3.84-26-6.74-36.42q12.24-31.18,25.38-62c3.7,1.09,7.53,1.88,11.28,2.75.81.19,2.12-1.74,3.2-2.68.08-.79.53-2,.19-2.29-3.36-2.83-6.66-5.74-10-8.52q4-9.15,8-18.25c9.91-22.29,20.19-44.54,31-66.53.69.7,1.37,1.44,2,2.23.81,1,3,.75,4.52,1.08.1,3.11,1,6.5-1.84,8.89-2.44,2-5.14,3.71-7.72,5.57-4.66,3.37-5.26,7.53-2.42,12.38,3.52,6,7.38,6.69,14,4.37,8.5-3,12.4-12.3,21.27-14.6.51-.13,1.06-3.34.39-4.26-5.43-7.54-9.62-17-21.63-15.38h0c-.05-.73-.1-1.51-.13-2.29-.19-6.54-.3-9.87-1.57-11.85,9.25-18.3,18.87-36.38,29-54.08,25-43.51,53-86.38,68.47-134.49a280.81,280.81,0,0,0,11.64-55.6c-.13-6.21-.43-12.43-.92-18.6q-.2-2.37-.42-4.77c1.86,2.26,4.07,4,8,3.41a.07.07,0,0,0,0-.05c1.3-5.85.27-11-4-15.54-2.13-2.26-4.23-4.56-6.34-6.85-.71-4.61-1.53-9.25-2.49-13.91l3.75,3,17.42,22.2,1.72,2.2c3.54,6.29,3,11.38-4.25,14.51h0a12.86,12.86,0,0,1-.42,4.62h0c3,4.24,7.06,6.43,12,4.22,5.42-2.44,12.54-3.79,12.72-11.71.15-6.45,3.85-9.74,9-12.23h0c3.37-1.45,5.13-3.8,2-6.74a8.69,8.69,0,0,0-6.39-1.9c-15.63,2.11-27.26-3.12-34.31-17.63-.61-1.25-2.36-2-3.57-2.92a113.59,113.59,0,0,0-7.23-9.07c-2.19-2.26-4.48-4.43-6.82-6.55-7.83-27.28-21-53-42.73-69.71a71.69,71.69,0,0,0-39.44-14.65c0-.5,0-1-.06-1.52-.14-1.48-1-2.9-1.52-4.35h0l-7.23-6.39-1-.88a3.36,3.36,0,0,0-1.63-1.44c-7.17-9.63-18.45-11.56-28.74-15.37-1.94,1-3.79,2.29-5.85,2.85-7.17,2-6.93,6.13-3.67,11.37h0c11-1,12.87,9.45,18.77,14.86.11.64.19,1.28.29,1.92s.24,1.5.34,2.25a122.5,122.5,0,0,0-45.55,24.09c-34.1,28.52-57.25,69.17-80.19,106.59-49.25,80.29-93.36,163.22-129.52,250.23-15.22,36.56-28.67,73.85-41.08,111.47-.18.6-.34,1.19-.51,1.79a30.79,30.79,0,0,0-8.23.36c-4.87.76-5.6,4.77-5.17,9,3.88.86,6.32,3.64,8.89,6.26-.78,2.74-1.6,5.48-2.37,8.22-5.64-6.41-13.31-5.65-20.86-5.93h0c-6.51,5.28-14.62,5.44-22.3,7.36-18.32,4.58-19.11,8.54-5.5,22.25,9,9.1,9.43,15-.93,23.25-7.63,6.06-13.08,13.68-19.41,20.69L1150,1158c-4.91,3-9.72,6.27-14.92,8.6-.38-.34-.73-.69-1.12-1a91.35,91.35,0,0,0-19.92-12.9,61.53,61.53,0,0,0-10.32-1.9c-34.13-2.38-67,26.62-77.12,57.78-11.33,35-8.37,73.19-4.79,109.14,3.48,34.71,9,69.43,15.38,103.74,13,70.29,30.81,139.64,51.93,207.89,12.12,39.14,25.72,77.76,39.34,116.38q4.24,11.3,8.43,22.62c0,.93,0,1.88,0,2.85-.48,6.25-1,12.77,4.15,17.62a8.4,8.4,0,0,0,4,1.89c6.5,18.11,12.81,36.31,18.74,54.67q19.14,59.13,35.7,119.06c-3.78-19.62-7.29-39-10.6-58.11,8,5.37,16.15,10.68,24.67,16.27,10.56,59,23.21,120.85,40.36,180,0,0,0,.06-.06.1-2.4,5.39-5.35,9.17-12.39,8.77s-12.05,4.62-16.19,9.33c-4.47,5.09,1.15,10.59,1.31,16a10.68,10.68,0,0,0,.34,2.39c1.69,6.28-.42,10.33-6,14-7.94,5.21-8,8-.39,9.91,8.33,2.06,12.26,10.7,20.74,11.61.65,5.33,3.14,11.15-3.58,14.65-3,1.59-5.38,4.2-5.39,7.32,0,11.33-3.21,21.8-7.41,32.13-1,2.37,3.42,6.33,6,5.61,4.65-1.29,9.22-3,11.41-7.73,2-4.36,4-8.26,8.71-10.7,7-3.63,7.55-10.12,4.39-16.36a38.45,38.45,0,0,1-3.35-25.36l-.09-1.83c-.06-1-.11-2.11-.17-3.16h0c9.08-2.41,9.08-2.41,9.79-14.43.17-3.32.87-7.65,4.13-7.92a26.15,26.15,0,0,0,12.48-4.2c.14,12.95.78,25.7,2.1,38,7.27,18.56,15.16,36.56,23.76,53.76a22,22,0,0,0-.71,2.44c-.71,3,1.36,4,3.72,4.66.19,0,.37,0,.56-.06q5.17,10,10.7,19.55a175.65,175.65,0,0,0,10.9,16.56l7-16.73c3.28,4.87,5,10.6,10.4,13.67a7.41,7.41,0,0,0,7,.31q-5.07,8.64-10.13,17.27a74.43,74.43,0,0,0,11,3c-1.08,2.27.37,4.41,2,6,3.38,3.31,7,6.36,10.54,9.51h0a10.4,10.4,0,0,0,1.46,3.64c-.11,6.7.22,7.06,4.41,4.8h0l4.82-.2h0c5.81,2.07,10.69,7.34,17.64,5.37,1.29-.36,3-1.64,3.2-2.76a5.46,5.46,0,0,0-1.52-4.16c-3.71-3.75-8.72-2.89-13.36-3.26a14.71,14.71,0,0,0-1.27-4.54h0c.21-4,.69-8.5-4.43-9.49-5.29-1-10.9-.52-15.5-3.72,38.45,3.9,83.92-15.86,116.55-30.13,8.81-3.85,17.49-8,26-12.38a2.84,2.84,0,0,0,.25,2.52c2.72,5.65,11.37,7.79,16,3.67a4.48,4.48,0,0,0,.58-4.17c-1.6-3.13-4.85-3.7-9.58-4.09-.74.11-2.62.29-4.6.7a476.81,476.81,0,0,0,43.25-25.47,13.54,13.54,0,0,0-4.28,6.21l-.34.42c-6.56,9.13-6.58,10-.45,19h0c.83,1.22,1.73,3.53,2.49,3.48,8.83-.51,18.25,2.55,26.17-3.92h0l.41-.46c5-6.52,4.39-14.51,5.66-22,.55-3.25-1.31-5.77-4.16-7.43h0c-.69-3-2.44-4.7-5.69-4.38-2-3.31-3.82-3.06-5.54.27h0a7.65,7.65,0,0,0-1.69.12,455.5,455.5,0,0,0,73.29-64.68c87.88-96.63,132.17-231.86,118.41-361.75-5.2-49.11-18.67-93.66-39.1-130.79-8.81,11.92-17.4,24-25.33,36.61-17.46,27.81-33.41,56.56-49.66,85.08-34.62,60.64-70.17,120.77-105.34,181.11q-87.91,150.85-176.54,301.29a8.19,8.19,0,0,0-4.64-4.5c-5.41-1.87-10.91-4.51-17.57-2q23.54-56.58,46.56-113.39c4.86-2.28,9.76-4.41,15.09-5.19q-12.68,32-25.58,63.85c-1.21-1.74-3.63-2.54-6-2.84-3.33.17-6.22,1.35-7.25,4.69-.88,2.87,4.1,6.74,8,6.19a9.68,9.68,0,0,0,2.22-.59q-5.37,13.25-10.76,26.48,82.38-142.47,165-284.84c35.74-61.35,71.13-122.94,107.42-184,23.54-39.56,46.56-84,76.57-120.81C1697.38,1630.89,1685.05,1615.14,1671,1601.89Zm-4.6-841.08a4.15,4.15,0,0,0-3.3,2.13c-1.25,3.15-.32,6.26,2.78,7.6,2.34,1,4.19-.78,5-3C1671.45,763.78,1669.93,761.36,1666.4,760.81Zm-52.66,124.35c-4.55.29-6.7,3.37-7,7.59-.07,1,1.59,2.11,2.49,3.21,4.9-.38,6.24-4.05,6.9-8C1616.28,887.16,1614.52,885.11,1613.74,885.16Zm-60.46,136.28a15.7,15.7,0,0,0-15.74,1.85c-1.22.85-2.91,2.48-2.76,3.51.31,2.09,1.19,4.83,2.78,5.85,3.93,2.55,8.25,4.76,13.26,4.46,5,.09,10-3.85,10.1-8C1561,1023.89,1556.87,1022.92,1553.28,1021.44Zm-137,338.31a4.53,4.53,0,0,0-3.64,2c-1.18,2.57.33,4.15,3,4.74,1.34-.63,3.54-1,3.85-2A3.47,3.47,0,0,0,1416.32,1359.75Zm-12.34,232c-.52.49-1.55,1.06-1.49,1.46a20.06,20.06,0,0,0,1.28,3.65l2.46-2.27Zm-8.31-23.62c-2.41-1-4.3.94-5.14,3.09-1.33,3.37.08,5.91,3.07,7.6,2.71.37,4.29-1.17,5.25-3.27C1400.47,1572,1398.78,1569.36,1395.67,1568.1Zm109-102.36c-1.18.08-2.7,1.76-3.22,3a5.41,5.41,0,0,0,.26,4.38c3.4,5.07,9,6.23,14.51,7.49a2.94,2.94,0,0,0,1.91-.43c-.16,1.34-.31,2.68-.46,4l-.45,4c4.45-1.51,4.41-4.93,3.71-8.64h0a11.46,11.46,0,0,0-1.94.09c1.9-1.39,3.69-3.88,3.47-5.35-.67-1.4-1-3.3-2.1-4.12A23.39,23.39,0,0,0,1504.69,1465.74Zm18.69-86.63c2.42.7,4.25-.66,5.49-2.77.65-1.71.08-3.39-1.77-3.48-2.09-.1-5.06.08-6.14,1.38C1519.32,1376.22,1521.08,1378.43,1523.38,1379.11Zm-16.26,35.82c-3.82-2.06-7.86-5.76-12.22-1a4.67,4.67,0,0,0-1.09,2.51,2.32,2.32,0,0,0-1.43-1.41,99.07,99.07,0,0,0-35.06,2.58c-1.84.45-2.39,2.17-1.53,4,.65,1.33,1.43,3.22,2.55,3.57a30.07,30.07,0,0,0,6,1.13c11.76-1.68,21.16,1,28.47-5.56a4.5,4.5,0,0,0,1-2.82,7.64,7.64,0,0,0,3.38,6.06,9,9,0,0,0,12-3.61C1511,1417.75,1509,1416,1507.12,1414.93Zm-37.4,27.33a9.33,9.33,0,0,0-10.78,2.6c-1.19,1.39-1.11,4.52-.56,6.58a8.16,8.16,0,0,0,8.82,6.4c3-.23,5.93-1.87,8.59-3.42,1-.58,1.12-2.66,1.57-3.88C1476.83,1445.78,1473.57,1443.69,1469.72,1442.26Zm103.69,93.65a3.68,3.68,0,0,0,5.17-2.47c.66-2.5-1.08-4-3.43-4.84-1.22.55-3.08.79-3.57,1.74A3.93,3.93,0,0,0,1573.41,1535.91Zm68,9.45c1.34-.62,2.93-.95,4-1.9,2.48-2.27,2.85-5.34,2.07-8.44-.36-1.41-1.67-3.86-2-3.78-2,.55-4.76,1.2-5.5,2.7-1.27,2.55-1.5,5.74-1.57,8.68C1638.39,1543.51,1640.36,1544.45,1641.42,1545.36ZM1940,1099c-1.47-53.76-17.38-109.63-55.86-146.78-21.37-20.63-48.76-31.78-78.57-29.08-16.24,1.47-31.82,7.28-44.11,17.22-8.54,30.69-21.81,59.54-36.21,87.91-24.46,48.18-49,96.23-72.7,144.75a179.09,179.09,0,0,1-18.11.16,7.83,7.83,0,0,0-4.92-4.9c22.71-54.11,44.13-109.07,62.37-164.77,16.79-51.22,26.43-102.1,27.8-155l2.86-.44-2.81-1.12c.09-3.65.13-7.3.14-11a34.28,34.28,0,0,0-10-9.77c.22-3.15-1.34-5.25-4.63-6-3-.69-5.69-.07-7,2.71a23.75,23.75,0,0,0-9.31,2.23,40.87,40.87,0,0,0-4.33,2.51c-1.81,3.76-3.69,7.49-5.59,11.2-1.5.25-2.83,1-2.35,3.07a1.48,1.48,0,0,0,.43.68c-1.81,3.49-3.65,7-5.52,10.44a20.54,20.54,0,0,0-16.64,9.4c-6.24,9.85-6.22,15.25,1,18.3-9.5,16.32-19.29,32.49-28.84,48.79q-7.26,12.39-14.41,24.79c-4.9,0-8.22,2.29-10.17,7.1-2.22,5.44-4.13,11-3.45,16.67-15.94,28.11-31.48,56.4-46.46,85.16q-5.92,11.39-11.68,22.87a7.24,7.24,0,0,0-5,4.4,8.08,8.08,0,0,0-.16,6q-3,6.17-6,12.35c-4.39-1.07-8.83-1.92-13.24-2.89-3.23-.71-7-.54-8,2.64-.8,2.6,0,6.49,1.57,8.87a17.7,17.7,0,0,0,11.79,7.75q-31,65.25-57,132.64a30.37,30.37,0,0,0-9.55,2.76h0l-.15.06c-12.44,8.25-12.63,13.57-.7,19.59h0a32.89,32.89,0,0,0,.64,3.43c-.13.37-.27.73-.4,1.1-1.29.82-1.92,2.1-1.18,3.14q-9.76,26.63-18.77,53.55c-.8,2.35-1.47,4.74-2.27,7.09,2.66,10,8.22,19,17.79,25.35a51.08,51.08,0,0,0,7.59,4.16c.49,1,1.37,2.1,2,2.16,6.22.51,12.31,2.24,18.5,3.53,7.51,9.88,12.7,10.72,20.73,3.61,3.14-2.78,2.67-7.48-1.34-9.16l-.2-.07a75.8,75.8,0,0,0,20.57-12.51c35.58-29.89,55-73,75.9-113.94.13-.33.27-.66.41-1a19.3,19.3,0,0,0,10.51-4.74l.08,0c4,.2,7.82-.17,10.18-4a5.58,5.58,0,0,0,5.2-4.79,7.1,7.1,0,0,0,1.4-.59c-27.14,55.9-56,110.89-84,166.38l-3.46,6.87c-.41,18.64,2.42,36.61,15.28,51.76,13.51,15.93,32.65,29.51,51.64,38.05,2,.89,4,1.71,5.95,2.5,0,.88,0,1.75,0,2.55-.43,8.26,4,10.92,12.12,7.17,1.93-.89,3.33-3,4.94-4.53,13.6,2.84,27.37,2.41,41.44-2.94,18.48-7,36.49-19,53-30.28,11-14,22.35-27.67,33.56-41.12,35-42.06,75.5-82.25,105.42-128.17,28.46-43.72,53.71-92.73,69.43-143A322.2,322.2,0,0,0,1940,1099Zm-231.91-84.66c-.89-1.1-2.71-1.44-4-2.05-2.49,1.54-3.09,3.64-2,6.23.82,1.85,2.27,2.56,4,1.58C1708.47,1018.83,1710.21,1016.92,1708.1,1014.35Zm257.52,174.16c-.46-1.43-.49-3.36-1.46-4.19-5.35-4.57-11.5-4.88-17-1-3.43,2.42-5.26,5.79-3.9,10,1.61,5,5.66,4.64,9.47,3.41a64,64,0,0,0,10.65-4.63C1964.45,1191.55,1964.89,1189.75,1965.62,1188.51Zm1.43-267.77a4.85,4.85,0,0,0,3.2-2.69c.93-3.14-3.83-6.34-8.46-5.89-1.06.94-2.77,1.72-3.06,2.86C1957.9,918.3,1962.61,921.59,1967.05,920.74Zm20.8,125.73c-.2-5.71-3.46-8.71-8.82-9.15-3.94-.32-8.21.06-9.53,4.88-1.47,5.39,4.77,11.93,11.44,12.34C1984.45,1054.76,1988,1050.57,1987.85,1046.47Zm95.63,121.34c0-1.22-1-3.25-2-3.57a110,110,0,0,0-10.79-2.54,22.69,22.69,0,0,0-2.69-.38c-2.69,0-4.13,1.66-4.94,3.94-1,2.69.65,4.66,2.73,5.55,5,2.17,10.36,2.91,15.56.59A4.73,4.73,0,0,0,2083.48,1167.81Zm60.79,332.33-1.54-.2.57,1.63Zm36.86,27.4c.55,2.25,1.85,4.08,4.58,3.43,2.15-.51,4.29-1.32,3.39-4.41-.79-2.11-2-4-4.65-3.56C2182.09,1523.4,2180.48,1524.9,2181.13,1527.54ZM2156,1345.25c.58,5,5.91,8.79,12.42,8.31,4.22-.32,7.28-2.42,7.4-7.28.21-8.59-3.21-13.85-9.07-13.82C2160.45,1332.48,2155.22,1338.71,2156,1345.25Zm13,152.27h0q.57-6.91,1.13-13.82a39.75,39.75,0,0,0-5.72-4c-2-1-4.69-2.18-6.33-1.5-1.27.53-2,3.87-1.91,5.88C2156.66,1492,2160.18,1497.38,2169,1497.52Zm49.71,122.17a31.73,31.73,0,0,0-2.67-8.94c-.92-2.13-2.91-4.2-5.34-3.27a9.65,9.65,0,0,0-4.78,4.57c-.93,2-.63,4.56-.86,6.88a5.4,5.4,0,0,1,3.87,4.89c2.09,1,4.19,2.77,6.29,2.78C2220.1,1626.63,2219,1622.41,2218.69,1619.69Zm35.13,11c-.1-2.68-.86-5.25-3.57-4.53-1.72.46-3.43,2.75-4.19,4.61a3.77,3.77,0,0,0,2.62,5.23C2253,1636.92,2253.18,1633.26,2253.82,1630.7Zm155.38-55.48c-.47-1.21-2.36-1.88-3.6-2.78-2.54.72-4.52,2.27-4.06,5,.16.94,2.54,2.12,3.88,2.09C2407.84,1579.46,2410.46,1578.48,2409.2,1575.22Zm36.73,14.83c-1-1.19-1.79-2.68-3-3.48a2.84,2.84,0,0,0-1.24-.48,7.69,7.69,0,0,0-.18-1.74,10.34,10.34,0,0,0-8.29-7.82c-5.78-1.09-8.57,3-10.75,7.55h0c2.28,4.59,6.83,5.06,11.06,6.1,2.31.2,5.13,1.27,6.74.31a2.22,2.22,0,0,0,.81-1.06l.2,0a45.12,45.12,0,0,0,4.67.58Zm28.14,118.78c-1.16-3.27-3.55-4.9-6.93-3.78-1,.34-2.09,2.48-2,3.75.16,3.34,1.7,6.12,5.67,5.32C2473.22,1713.62,2474.15,1711.39,2474.07,1708.83Zm77.15-53.9c.72,1,2.68,1.22,4.11,1.78a10.66,10.66,0,0,0,2.35-.19c12.41-4,23.31-20.66,21.75-33.46a5.67,5.67,0,0,0-2.61-3.68c-4.48-2.44-9.35-2.11-13.79-.18-3.58,1.57-2.82,5.18-2.11,8.27,1.36,6-.41,10.79-4.63,15.18-2.13,2.21-3.59,5.17-5,8C2550.74,1651.85,2550.54,1654,2551.22,1654.93Zm-62.51,309.82c-1.09-.87-2.17-2.37-3.29-2.41s-2.43,1.31-3.65,2.05c1.15.87,2.25,2.33,3.45,2.42S2487.54,1965.5,2488.71,1964.75Zm.72-84.75-5-4.89C2484.31,1878.56,2486.3,1879.86,2489.43,1880Zm37.85-64.45c-1.22-4-3.06-7.51-7.7-8-4.93-.5-9.65,5.56-9.13,11.77a6.65,6.65,0,0,0,6,6.47C2522,1826.42,2527.75,1820.67,2527.28,1815.55Zm15.75-35.87c-2.4-3.26-5.72-5.34-9.94-5.16-3.51.14-5.54,2.7-7.09,5.39a19.65,19.65,0,0,0-2.38,13.6c.43,2.32,1.84,4.18,1.64,4.17,9.29,1,13-3.15,16.56-7.38C2544.49,1787.11,2545.8,1783.44,2543,1779.68Zm4.9-171.06c-8.55-15.44-21.81-18.58-37.84-14.48h0c-2,5.23-4.13,10.54-3.2,16.22a36.35,36.35,0,0,1-3,21c-5.68,12.37-3.24,21.3,8,28.52,2.64,1.7,4.74,4.21,7.19,6.23,4.83,4,10.52,2.57,13.47-3a20.09,20.09,0,0,0,1.77-13.91c-2.05-10-1.3-18.61,7.86-25.5C2546.55,1620.4,2548.45,1614.6,2547.93,1608.62Zm39.72,338.85c-8.43-8-7.55-16.62-2.11-25.79,1.19-2,1.64-4.48,2.39-6.75.84-2.56,0-5.11-2.29-5.75-2-.55-5.33-.22-6.56,1.11a101.16,101.16,0,0,0-9.95,13.27c-3.47,5.31-6.46,10.54-12.13,14.4-10.21,6.94-10.09,8.37-5.58,19.3,2.41,5.81,6.75,7,10.8,2.81.55-.56.91-1.32,1.44-1.91,7.08-7.84,7.09-7.84,20.88-6.22a10.33,10.33,0,0,0,2.19-.55C2588.66,1950.48,2589.16,1948.9,2587.65,1947.47Zm-509.85,418.6c-.51-1-2.42-1.23-3.67-1.8-2.6,1-3.3,2.93-1.86,5.1.71,1.07,2.7,2.32,3.64,2C2078.34,2370.59,2078.88,2368.15,2077.8,2366.07Zm-197.2,158.64c-1.26.69-3.4,1.18-3.59,2.08-.77,3.59,1.23,6.16,4.47,7.36.73.28,2.88-1.13,3.14-2.1C1885.56,2528.56,1884.15,2526,1880.6,2524.71Zm51.64,8c-.29-3.45-1.91-6.15-5.54-5.95-2.46.14-3.36,2.72-3.16,5.09a4.73,4.73,0,0,0,4.17,4.68C1930.36,2536.91,1932,2535.54,1932.24,2532.74Zm67.34,8.3c-3.76,1.5-8.66,2.52-11.57,6.79a5.64,5.64,0,0,0-.54,4.5c3.39,8.82,9.28,15,19,16.48,4.34.68,9.79-3.33,10.8-7.83C2019,2553.62,2008.16,2540.91,1999.58,2541Zm284.68,98.85c-2.32-.94-4.81-.58-5.91,1.52a3.88,3.88,0,0,0,2.3,5.44c2.5.91,4.14-.81,5.08-3.1C2286.52,2642,2286.06,2640.62,2284.26,2639.89Zm16.18-86.64a92.93,92.93,0,0,0-32.53-6.13c-4.53,0-6.31,4.16-7.31,8.2h0c-12.33,2.53-24.68,5-37,7.62-2.91.62-4.92,5.52-3.17,7.74a74.45,74.45,0,0,0,7.88,8.93c6.88,6.3,11.4,6.65,19.14,1.19,4.42-3.12,7.34-8.57,13.79-8.29,15.18,9.86,28.57,5.51,41.09-5.25C2306.73,2563.47,2305.78,2555.23,2300.44,2553.25Zm53.27,96-2.08-3.41c-.77,1.06-2.11,2.1-2.15,3.19s1.23,2.21,1.92,3.32Zm348.46-643.15c-1.93-2.34-4-4.6-5.78-7-3-4-6.56-5.7-11.84-4.38s-10.54,1.54-15.82,2.24h0c-1.07,2.1-3,4.21-3,6.31,0,8.53.34,17.09,1.14,25.58.17,1.78,2.92,4.83,4.3,4.73,9.16-.64,14.22,5.6,20.11,10.75,4,3.48,9,1.83,11-3.33,1.73-4.4,3-8.69,2-13.74C2703,2020.29,2702.83,2013.14,2702.17,2006.08Zm-7.21,81.68-3.52,1.82c.63,1.21,1,3,2,3.51,2.48,1.36,4-.22,4-2.63C2697.36,2089.56,2695.81,2088.66,2695,2087.76Zm-.14-276.89c.95.12,2.1-1.28,3.15-2-.49-1.34-1-2.69-1.48-4-1.3.52-3.11.68-3.8,1.63C2691,1808.78,2692.35,1810.54,2694.82,1810.87Zm-26,19.49c2,3.38,2.93,7.39,5,10.74,1.91,3.1,5.76,4,7.95,1.14,4.47-5.74,9-10.9,18.37-12.41-3.29-6.07-5.16-10.48-7.91-14.25-1.74-2.38-4.66-5.12-7.29-5.4-7-.75-15.06-.53-19.7,5.14C2661.2,1820.22,2666,1825.57,2668.8,1830.36Zm-7.72,293.55c.73,4,3.36,7.06,8,7.11s8.53-4.15,8.67-7.87c.16-6-2.88-8.61-6.75-9.67C2666.29,2112.19,2660.12,2118.6,2661.08,2123.91Zm-5.48,117.25c0,5.24,3.09,8.5,8.12,9.83,3.35.88,4.18-1.86,4.28-3.93.23-5.15-1.78-9-12.18-10.16C2657.62,2237.17,2655.62,2238.84,2655.6,2241.16Zm-.47-194.28,1.53,1,.15-1.65Zm-15,31.75c-1.42,8.07-9.2,16.35.21,24.24.92.77,3.41,1,4.28.31,7.08-5.5,6.32-14.13,8.57-21-1.24-3.8-2.44-6.85-5.94-7.83C2643.56,2073.31,2640.79,2075.06,2640.17,2078.63Zm-12.82-80.6a20.48,20.48,0,0,0,7.51,5.19c2.66,1.08,4.28-1,5-3.59,0-3.74-2-5.78-5.54-6.29C2631.12,1992.89,2626.05,1996.55,2627.35,1998Zm-99.63,467.74c1.6,5,5.66,4.63,9.47,3.41a64.27,64.27,0,0,0,10.64-4.63c1.09-.58,1.53-2.38,2.26-3.62-.46-1.43-.49-3.36-1.46-4.19-5.35-4.57-11.5-4.89-17-1C2528.18,2458.17,2526.35,2461.54,2527.72,2465.77Zm-227.78-215.41c1.82,1.47,4.32,2.06,6.42,3.23,4.39,2.42,7.57,1.57,9.24-3.29,1.27-3.7,2.32-7.48,3.49-11.29-8.14-4.51-14.48-1.93-20.15,3.29C2295.86,2245.13,2297.27,2248.2,2299.94,2250.36Zm-56.93,3.15a38.92,38.92,0,0,0,2,9.07c.37,1,2.42,2.11,3.62,2s2.52-1.49,3.14-2.66c.71-1.34.68-3.06,1-4.61-.16-1.56,0-3.25-.55-4.64-.88-2.14-2.08-4.42-5.1-3.83C2244.6,2249.33,2242.69,2250.77,2243,2253.51Zm115.4,162.93c-1.71-3.84-5.2-4-8.66-4.16h0a6,6,0,0,0-.7,4.64l6.11-.32Zm43.51,188.77c-.05-3-.09-6-.14-9l-13.74-.33h0v-.06a42,42,0,0,1-5.14,4.07l-.46.48a5.75,5.75,0,0,1-4.25,4.9,13.39,13.39,0,0,0-.3,2.34c.34,8.74,3.08,11.54,8.52,8.32S2396.76,2608.81,2401.92,2605.21Zm24-63.62c-.74-1-1.35-2.72-2.25-2.88-1.19-.23-3.59.52-3.76,1.24a3.33,3.33,0,0,0,3.45,4.29C2424.19,2544.26,2425.06,2542.53,2425.92,2541.59Zm64.55,21.74c-.3-3.46-2.49-5.57-5.22-7.29h0c-5.4,1.79-5.51,6.45-5.94,10.94,1.89,2.58,3.94,5.22,7.59,4S2490.75,2566.56,2490.47,2563.33Zm17.44-174.84a70.55,70.55,0,0,0,3.79-48.33c-15.5-17.5-35.21-30-57.33-38.89-2.19-4.36-4.39-8.7-6.94-12.81-.74-1.18-4.29-1.08-6.41-.75-1.08.17-2.62,2.12-2.69,3.34a23.6,23.6,0,0,0,.14,4.49A623.7,623.7,0,0,0,2298,2267c-27.67-2.36-55.44-1.48-83.14-.86a1.49,1.49,0,0,1,0-.21l-1.55.24c-16.1.35-32.18.58-48.2,0a124.14,124.14,0,0,1-14.07,37c-14.62,25.05-36.76,43.24-60.89,57.49a345.1,345.1,0,0,1,61.61-2.5c-2.39,5.74-.76,11.94,4.73,16.63,1.14,1,2.85,1.29,4.29,1.91a6.32,6.32,0,0,0,2.27-.28,19.67,19.67,0,0,0,9.55-15.51,5.7,5.7,0,0,0-.08-1.44c30.94,2.59,61.66,7.79,90.62,13.07a394.09,394.09,0,0,1,52.76,13.34c-.66,1.57-1.3,3.12-2,4.6-4.4,8.66-5.15,19.16-1.63,18.87,7.22-.59,9.9-7.11,13.42-12.15a24.51,24.51,0,0,0,3.44-6.64c30.43,11.48,58.93,27.38,83.42,49C2451.34,2441.71,2490.53,2426.35,2507.91,2388.49Zm5.19,250.56c-.48-2.47-1.6-4.42-4.47-3.54a5.13,5.13,0,0,0-3.11,2.69c-.88,2.66.88,4.28,3.31,4.72C2511.65,2643.43,2512.84,2641.62,2513.1,2639.05Zm27.7-44.12c-1-3.63-4-4.4-7.28-4-4.25.53-7.44,2.56-7,7.4.21,2.46,2,4.06,4.76,4.34C2536.37,2602.49,2541.71,2598.34,2540.8,2594.93Zm6.94-68.5-43.08,16.06q-2.61,2-5.4,3.7a6.72,6.72,0,0,0-4,1.38c0,1.18,0,2.37,0,3.55h0l.06.08,5.8.57h0l8.71-1c2.56-4.1,6.51-4.33,10.73-3.85h0a44.09,44.09,0,0,0,32.74-10c.44-1.45.75-2.58,1-3.57C2555.5,2528.7,2554.38,2528.3,2547.74,2526.43Zm24.58-207.54c-.2-5.72-3.45-8.71-8.81-9.15-4-.32-8.22.05-9.53,4.88-1.48,5.38,4.76,11.92,11.43,12.34C2568.92,2327.18,2572.47,2323,2572.32,2318.89Zm34.47-146.72c4-6.87,9.5-12.33,15.22-17.74,2.09-2,2.88-5.32,4-7.48-1.12-2.29-1.5-4.5-2.47-4.81-2-.62-5.06-1.16-6.44-.11-8.31,6.36-13,15.6-17.93,24.5-.77,1.39.48,4.7,1.81,6.26A3.52,3.52,0,0,0,2606.79,2172.17Zm15.79,308.2c-.32-4.65-4.76-6.15-8.75-6.13-1.88,0-4.33,1.91-5.49,3.65-1.94,2.92,1.76,6,8,6.27C2618.27,2483.31,2622.91,2484.92,2622.58,2480.37Zm39.67,16.66c-1.29-2.75-3.35-6.63-5.66-7.1-6.94-1.42-14-2.2-19.66-5.72-5.95-.06-9.81,2.52-12.1,7.1a9.48,9.48,0,0,0,3.22,12.7c7.1,5,15,8.52,20.39,16,3.06,4.31,9.13,2.56,11.55-2.41C2663.2,2511,2665.61,2504.22,2662.25,2497Zm5.7-56.8c0-1.22-1-3.25-2-3.57a109.37,109.37,0,0,0-10.79-2.54,22.86,22.86,0,0,0-2.68-.38c-2.7,0-4.14,1.66-4.95,3.94-.95,2.68.65,4.66,2.73,5.55,5,2.17,10.36,2.91,15.56.59A4.73,4.73,0,0,0,2668,2440.23Zm49.62-124.29c-1.11-3.3-3-5.51-6.67-6-7.42-.94-14.4.06-20.69,4.45-9.66,6.76-19.13,6-28.87-.24-5.38-3.42-11.36-5.9-17.07-8.8l-9.48.49c-1.13,1.13-2.25,2.26-3.37,3.41-6.05,6.2-5.74,8.2-2,13.78,3.12,4.61,11.63,3.63,11.21,11.11-.37,6.83,3.37,8.3,9,7.57a159.33,159.33,0,0,1,38.3-.87c5.49.61,11.22,0,16.74-.86C2714.49,2338.56,2721,2326.08,2717.57,2315.94Zm75.52,23.8c2.28,2.23,4.52,2.85,6.7-.13h0c3.58-1.58,4.15-4.64,2-7.16a7.06,7.06,0,0,0-11.61.5C2788.11,2335.91,2789.59,2338.54,2793.09,2339.74Zm-52-25.95a5,5,0,0,0,4.26,4.62c4.43.82,4.53-2.85,5.44-5.61-1.07-2.85-1.7-6.38-5.77-5.8C2741.3,2307.53,2740.73,2310.54,2741.13,2313.79Zm39.11,98.71a6.08,6.08,0,0,0,5-4.54c3.81-.51,7-2.06,9.11-5.48l.06,0c2.94-.35,4.48-2,4.67-5l0-.06c6.3-11.53,5.89-12.7-5.17-14.45-3-.47-6-.91-8.93-1.37-5.83-6.61-13.57-7.24-18-.56-4.93,7.52-12.13,14.64-11.92,24.86l-4.71,5.66c-2.88.48-4.5,2.13-4.72,5.08a13.69,13.69,0,0,0-2.94,4.56h0a4,4,0,0,0-2.55,3.64c-3.69,1.81-7.33,5.07-5.61,8.71s6.78,2.11,10.33,1.2c2-.51,3.7-2.29,5.54-3.5l.26-.2a6.12,6.12,0,0,0,5.05-4.32,14.58,14.58,0,0,0,10.11-4.81h0a4.08,4.08,0,0,0,4.28-1.3c2.79.35,4.25-1.11,5-3.6A5.92,5.92,0,0,0,2780.24,2412.5Zm35.79,50.56c-1.64-1-3.29-2.68-4.13-2.35-16.85,6.55-26,20.24-32.23,36.19-.56,1.43,1.4,4.93,3.07,5.83s5.67.36,6.39-.86c6.55-11.18,16-19.91,24-29.9C2815,2469.66,2815.12,2466,2816,2463.06ZM1731,2184.24a5.74,5.74,0,0,1,2.61,1.3q12.14-10.18,24.06-20.6c-3.92-1.78-8.11-3.19-11.45-5.72-6.4-4.86-12.88-5.13-19.93-2.46l-.15,7.54h0a2.48,2.48,0,0,1-.26.19c1.72,1.73,3.43,3.47,5.14,5.2,2.59.92,4.51,2.23,3.28,5.44C1734.81,2178.87,1733.9,2182,1731,2184.24ZM881.9,1749.9h0Zm1089.83,427.3c-.5,2.13-1.16,4.45-2,7-2.16-1.5-4.25-2.9-6.31-4.23q-42.86,14.39-85.93,28.1c2.31,2.57,5.1,4.86,7.57,7.33q83.88-26.94,167.42-54.95c-2.59-2.8-5.2-5.58-7.78-8.38Q2008.3,2164.83,1971.73,2177.2Zm169.72,2.37a20.73,20.73,0,0,0,4.28-.81,7.16,7.16,0,0,1,7.7-4.21,5.46,5.46,0,0,1,.88.17,152.54,152.54,0,0,0-20.11-32.93c-21.12-26.36-50.65-46.47-85-58.65.26,1.42.45,2.87.66,4.31a4.93,4.93,0,0,1,4.25,5.3l.35-.18c4.47,7.11,9.17,14.08,13.31,21.38a8.37,8.37,0,0,1,.55,1.25,169.84,169.84,0,0,1,27.76,18.7q-20.87,7.47-41.77,14.82a63.33,63.33,0,0,0,7.24,8.69q21.12-7.12,42.2-14.37a6.65,6.65,0,0,0,1.7-1,150.63,150.63,0,0,1,12,13.21,132,132,0,0,1,16.77,27.19,2.85,2.85,0,0,1,.45-1c.33-.5,1.35-.53,2.06-.77l.31-.29h0C2138,2177.08,2139.55,2177.3,2141.45,2179.57Zm-1262.72-425a17.05,17.05,0,0,0-4.88,5l4.87-4.94Zm846.72,402h.63l-.15-.84Z"/></g></svg>