<?xml version="1.0" encoding="UTF-8" standalone="no"?><svg xmlns="http://www.w3.org/2000/svg" xmlns:xlink="http://www.w3.org/1999/xlink" contentScriptType="text/ecmascript" fill="#000000" width="814.9" zoomAndPan="magnify" contentStyleType="text/css" viewBox="0.0 0.0 814.9 814.9" height="814.9" preserveAspectRatio="xMidYMid meet" version="1"><g id="change1_1"><path d="M253.7,510.8h-60.3c-12.7-26.1-20.6-54.9-22.9-85.3h67C239.1,455,244.8,483.7,253.7,510.8z M253.7,304.1h-60.3 c-12.7,26.1-20.6,54.9-22.9,85.3h67C239.1,359.9,244.8,331.2,253.7,304.1z M215.2,547c27.9,38.4,67,68.2,112.5,84.4 c-24-23.2-44.3-52-59.6-84.4H215.2z M327.7,183.5c-45.5,16.3-84.6,46-112.5,84.4h52.9C283.4,235.5,303.7,206.7,327.7,183.5z M308.4,267.9h81v-86.1C356.6,200.5,328.6,230.9,308.4,267.9z M273.7,389.3h115.7v-85.3h-97.6C281.9,330.7,275.6,359.6,273.7,389.3z M291.8,510.8h97.6v-85.3H273.7C275.5,455.3,281.9,484.1,291.8,510.8z M389.4,633.2V547h-81C328.6,584,356.6,614.4,389.4,633.2z M425.6,547v86.2c32.7-18.8,60.7-49.1,81-86.2H425.6z M425.6,181.8v86.1h81C486.3,230.9,458.3,200.5,425.6,181.8z M541.2,425.5 H425.6v85.3h97.5C533.1,484.1,539.4,455.3,541.2,425.5z M523.1,304.1h-97.5v85.3h115.7C539.4,359.6,533.1,330.7,523.1,304.1z M487.2,631.4c45.5-16.2,84.6-46,112.5-84.4h-52.9C531.5,579.4,511.3,608.2,487.2,631.4z M599.7,267.9 c-27.9-38.4-67-68.1-112.5-84.4c24,23.2,44.3,52,59.6,84.4H599.7z M561.2,510.8h60.3c12.7-26.1,20.6-54.9,22.9-85.3h-67 C575.8,455,570.2,483.7,561.2,510.8z M577.5,389.3h67c-2.3-30.3-10.2-59.1-22.9-85.3h-60.3C570.2,331.2,575.8,359.9,577.5,389.3z M814.9,407.4c0,225.1-182.4,407.5-407.4,407.5C182.4,814.9,0,632.5,0,407.4C0,182.4,182.4,0,407.5,0 C632.5,0,814.9,182.4,814.9,407.4z M681.4,407.4c0-151-122.9-273.9-273.9-273.9c-151.1,0-273.9,122.9-273.9,273.9 c0,151.1,122.8,273.9,273.9,273.9C558.5,681.3,681.4,558.5,681.4,407.4z"/></g></svg>