<?xml version="1.0" encoding="UTF-8" standalone="no"?><svg xmlns="http://www.w3.org/2000/svg" xmlns:xlink="http://www.w3.org/1999/xlink" contentScriptType="text/ecmascript" zoomAndPan="magnify" text-rendering="geometricPrecision" contentStyleType="text/css" version="1" width="199" clip-rule="evenodd" fill="#000000" preserveAspectRatio="xMidYMid meet" viewBox="7.3 0.6 198.9 212.2" height="212" fill-rule="evenodd" image-rendering="optimizeQuality"><g id="change1_1"><path d="M99.95 36.45l-13.73 -24.04 -66.48 40.14 17.96 21.44 62.26 -37.53zm-40.56 51.91l42.3 -25.5 0 -15.85 -55.45 33.43 13.15 7.93zm52.25 -41.35l0 15.85 42.31 25.5 13.15 -7.93 -55.45 -33.43zm-4.97 24.45l-37.66 22.7 37.66 22.7 37.66 -22.7 -37.66 -22.7zm76.52 8.98l21.63 25.81c0.21,0.23 0.4,0.48 0.57,0.76 1.42,2.35 0.66,5.4 -1.69,6.82l-22 13.28 0 38.44 -0.01 0c0,1.69 -0.86,3.32 -2.4,4.26l-69.83 42.09 -0.01 0.01c-1.69,1.1 -3.74,1.13 -5.45,0.06l-0.09 -0.06 -0.01 -0.01 -69.83 -42.09c-1.54,-0.93 -2.4,-2.57 -2.4,-4.26l-0.01 0 0 -38.44 -22 -13.28c-2.35,-1.42 -3.11,-4.47 -1.69,-6.82 0.17,-0.28 0.36,-0.53 0.57,-0.76l21.63 -25.81 -21.63 -25.81c-0.21,-0.23 -0.4,-0.49 -0.57,-0.76 -1.42,-2.35 -0.66,-5.41 1.69,-6.82l75.8 -45.76 0 0.01 0.11 -0.07c2.38,-1.35 5.41,-0.52 6.76,1.87l14.35 25.13 14.35 -25.13c1.35,-2.38 4.38,-3.22 6.76,-1.87l0.11 0.07 0 -0.01 75.8 45.76c2.35,1.41 3.11,4.47 1.69,6.82 -0.17,0.28 -0.36,0.53 -0.57,0.76l-21.63 25.81zm-69.81 -43.98l62.26 37.53 17.96 -21.44 -66.48 -40.14 -13.73 24.04zm-74.41 83.47c0.15,0.08 0.3,0.17 0.44,0.27l46.81 28.26 13.73 -24.05 -43.06 -25.96 -0.14 -0.09 -19.05 -11.49 -17.96 21.44 19.23 11.61zm2.63 13.19l0 29.64 60.1 36.23 0 -57.62 -9.38 16.42c-1.35,2.38 -4.38,3.22 -6.76,1.86l-0.11 -0.06 -0 0.01 -43.85 -26.47zm134.04 -46.24l-19.05 11.49 -0.14 0.09 -43.06 25.96 13.73 24.05 46.81 -28.26c0.14,-0.1 0.29,-0.19 0.44,-0.27l19.23 -11.61 -17.96 -21.44zm-64 54.49l0 57.62 60.1 -36.23 0 -29.64 -43.85 26.47 -0 -0.01 -0.11 0.06c-2.38,1.35 -5.41,0.52 -6.76,-1.86l-9.38 -16.42z" fill-rule="nonzero"/></g></svg>