<?xml version="1.0" encoding="UTF-8" standalone="no"?><svg xmlns="http://www.w3.org/2000/svg" xmlns:xlink="http://www.w3.org/1999/xlink" contentScriptType="text/ecmascript" fill="#000000" width="1786.9" zoomAndPan="magnify" contentStyleType="text/css" viewBox="0.0 0.0 1786.9 2297.4" height="2297.4" data-name="圖層 1" preserveAspectRatio="xMidYMid meet" version="1"><g id="change1_1"><path fill="#376a33" d="M1659.22 893.4L1659.22 765.72 1659.22 638.13 1531.62 638.13 1531.62 510.45 1403.95 510.45 1403.95 382.86 1276.35 382.86 1276.35 255.18 1148.68 255.18 1148.68 127.59 1021.08 127.59 1021.08 0 893.4 0 765.81 0 765.81 127.59 638.13 127.59 638.13 255.18 510.54 255.18 510.54 382.86 382.86 382.86 382.86 510.45 255.27 510.45 255.27 638.13 127.68 638.13 127.68 765.72 127.68 893.4 0 893.4 0 1021 0 1148.67 0 1276.27 0 1403.94 127.68 1403.94 127.68 1531.54 255.27 1531.54 255.27 1659.21 382.86 1659.21 382.86 1786.81 510.54 1786.81 510.54 1914.4 638.13 1914.4 765.81 1914.4 765.81 2042.08 765.81 2169.67 638.13 2169.67 638.13 2297.35 765.81 2297.35 893.4 2297.35 1021.08 2297.35 1148.68 2297.35 1148.68 2169.67 1021.08 2169.67 1021.08 2042.08 1021.08 1914.4 1148.68 1914.4 1276.35 1914.4 1276.35 1786.81 1403.95 1786.81 1403.95 1659.21 1531.62 1659.21 1531.62 1531.54 1659.22 1531.54 1659.22 1403.94 1786.89 1403.94 1786.89 1276.27 1786.89 1148.67 1786.89 1021 1786.89 893.4 1659.22 893.4z"/></g><g fill="#2e6124" id="change2_1"><path d="M1659.22 893.4L1659.22 765.72 1659.22 638.13 1531.62 638.13 1531.62 510.45 1403.95 510.45 1403.95 382.86 1276.35 382.86 1276.35 510.45 1276.35 638.13 1403.95 638.13 1403.95 765.72 1531.62 765.72 1531.62 893.4 1531.62 1021 1531.62 1148.67 1531.62 1276.27 1403.95 1276.27 1403.95 1403.94 1276.35 1403.94 1276.35 1531.54 1148.68 1531.54 1148.68 1659.21 1021.08 1659.21 893.4 1659.21 765.81 1659.21 638.13 1659.21 638.13 1786.81 510.54 1786.81 510.54 1914.4 638.13 1914.4 765.81 1914.4 893.4 1914.4 1021.08 1914.4 1148.68 1914.4 1276.35 1914.4 1276.35 1786.81 1403.95 1786.81 1403.95 1659.21 1531.62 1659.21 1531.62 1531.54 1659.22 1531.54 1659.22 1403.94 1786.89 1403.94 1786.89 1276.27 1786.89 1148.67 1786.89 1021 1786.89 893.4 1659.22 893.4z"/><path d="M1148.68 255.18L1148.68 127.59 1021.08 127.59 1021.08 255.18 1021.08 382.86 1148.68 382.86 1276.35 382.86 1276.35 255.18 1148.68 255.18z"/><path d="M1021.08 1403.94H1148.67V1531.54H1021.08z"/><path d="M893.4 0H1021.0799999999999V127.59H893.4z"/><path d="M638.13 1276.27H765.81V1403.94H638.13z"/><path d="M510.54 1531.54H638.13V1659.21H510.54z"/><path d="M382.86 1403.94H510.54V1531.54H382.86z"/><path d="M255.27 1531.54H382.86V1659.21H255.27z"/></g><g fill="#448423" id="change3_1"><path d="M1403.95 765.72L1403.95 638.13 1276.35 638.13 1276.35 510.45 1276.35 382.86 1148.68 382.86 1021.08 382.86 1021.08 255.18 1021.08 127.59 893.4 127.59 893.4 255.18 893.4 382.86 893.4 510.45 1021.08 510.45 1021.08 638.13 1148.68 638.13 1148.68 765.72 1276.35 765.72 1276.35 893.4 1403.95 893.4 1403.95 1021 1276.35 1021 1276.35 1148.67 1276.35 1276.27 1276.35 1403.94 1403.95 1403.94 1403.95 1276.27 1531.62 1276.27 1531.62 1148.67 1531.62 1021 1531.62 893.4 1531.62 765.72 1403.95 765.72z"/><path d="M1148.68 1403.94H1276.3600000000001V1531.54H1148.68z"/><path d="M1021.08 1403.94L1021.08 1276.27 893.4 1276.27 893.4 1403.94 765.81 1403.94 765.81 1531.54 638.13 1531.54 638.13 1659.21 765.81 1659.21 893.4 1659.21 1021.08 1659.21 1148.68 1659.21 1148.68 1531.54 1021.08 1531.54 1021.08 1403.94z"/><path d="M765.81 893.4H893.4V1021H765.81z"/><path d="M765.81 0H893.4V127.59H765.81z"/><path d="M638.13 1148.67H765.81V1276.27H638.13z"/><path d="M510.54 1531.54L382.86 1531.54 382.86 1659.21 382.86 1786.81 510.54 1786.81 638.13 1786.81 638.13 1659.21 510.54 1659.21 510.54 1531.54z"/><path d="M255.27 1276.27H382.86V1403.94H255.27z"/></g><g fill="#60b630" id="change4_1"><path d="M1148.68,765.72v-127.59h-127.59v-127.68h-127.68V127.59h-255.27v127.59h-127.59v255.27h127.59v127.68h-127.59v255.27h127.59v127.6h-127.59v255.27h127.59v-127.6h127.68v255.27h127.59v-127.67h127.68v127.67h255.27V765.72h-127.68Zm-255.27-127.59v127.59h-127.59v-127.59h127.59Zm255.27,510.54h-127.59v-127.67h-255.27v-127.6h255.27v127.6h127.59v127.67Z"/><path d="M510.54 1403.94L510.54 1531.54 638.13 1531.54 765.81 1531.54 765.81 1403.94 638.13 1403.94 510.54 1403.94z"/><path d="M382.86 1276.27H510.54V1403.94H382.86z"/><path d="M255.27 638.13H382.86V765.72H255.27z"/><path d="M127.68 765.72H255.27V893.4000000000001H127.68z"/></g><g fill="#a0e530" id="change5_1"><path d="M893.4 893.4H1021.0799999999999V1021H893.4z"/><path d="M1276.35 893.4H1403.9399999999998V1021H1276.35z"/><path d="M1021.08 1021H1148.67V1148.67H1021.08z"/><path d="M765.81 638.13H893.4V765.72H765.81z"/><path d="M510.54 1276.27H638.13V1403.94H510.54z"/><path d="M510.54 382.86L382.86 382.86 382.86 510.45 255.27 510.45 255.27 638.13 382.86 638.13 382.86 765.72 255.27 765.72 255.27 893.4 127.68 893.4 0 893.4 0 1021 0 1148.67 0 1276.27 0 1403.94 127.68 1403.94 127.68 1531.54 255.27 1531.54 382.86 1531.54 382.86 1403.94 255.27 1403.94 255.27 1276.27 382.86 1276.27 510.54 1276.27 510.54 1148.67 510.54 1021 638.13 1021 638.13 893.4 510.54 893.4 510.54 765.72 510.54 638.13 638.13 638.13 638.13 510.45 510.54 510.45 510.54 382.86z"/><path d="M127.68 638.13H255.27V765.72H127.68z"/></g><g fill="#533920" id="change6_1"><path d="M765.81 2042.08L765.81 2169.67 765.81 2297.35 893.4 2297.35 1021.08 2297.35 1021.08 2169.67 893.4 2169.67 893.4 2042.08 765.81 2042.08z"/><path d="M893.4 1914.4H1021.0799999999999V2042.0800000000002H893.4z"/></g><g fill="#3e2600" id="change7_1"><path d="M1021.08 2169.67H1148.67V2297.35H1021.08z"/><path d="M638.13 2169.67H765.81V2297.35H638.13z"/><path d="M893.4 2042.08H1021.0799999999999V2169.67H893.4z"/><path d="M765.81 1914.4H893.4V2042.0800000000002H765.81z"/></g></svg>