<?xml version="1.0" encoding="UTF-8" standalone="no"?><svg xmlns="http://www.w3.org/2000/svg" xmlns:xlink="http://www.w3.org/1999/xlink" contentScriptType="text/ecmascript" fill="#000000" width="487.2" zoomAndPan="magnify" contentStyleType="text/css" viewBox="0.0 0.0 487.2 201.0" height="201" preserveAspectRatio="xMidYMid meet" version="1"><g id="change1_1"><path d="M487.2,15.1c-27.4,19.1-41.9,62-46.7,78.6h-33.7V42c-9.2,13-11.6,39.3-12.1,51.7h-33.9V32.8c-9.5,15.5-11.7,47.1-12.2,60.9 h-33.8V24.2C305.1,42,303,78.6,302.5,93.7h-33.8V0c-10,24.3-11.9,75.4-12.3,93.7h-33.8V8.9c-9.9,21.9-11.9,67.6-12.3,84.8h-33.8 V24.2C167,42,164.9,78.6,164.4,93.7h-20.7V0.2c0,0-99.9,25.6-143.2,99.9H0c0.1,0.1,0.2,0.3,0.2,0.4c-0.1,0.1-0.2,0.3-0.2,0.4h0.5 c43.3,74.3,143.2,99.9,143.2,99.9v-93.5h20.7c0.5,15.1,2.6,51.7,12.2,69.5v-69.5h33.8c0.4,17.2,2.3,63,12.3,84.8v-84.8h33.8 c0.4,18.4,2.2,69.4,12.3,93.7v-93.7h33.8c0.5,15.1,2.6,51.7,12.2,69.5v-69.5h33.8c0.5,13.8,2.7,45.4,12.2,60.9v-60.9h33.9 c0.6,12.4,2.9,38.7,12.1,51.7v-51.7h33.7c4.8,16.6,19.3,59.5,46.7,78.6l-9.8-85.4L487.2,15.1z M74.5,80.1c-7.8,0-14.1-6.3-14.1-14.1 c0-7.8,6.3-14.1,14.1-14.1S88.6,58.2,88.6,66C88.6,73.8,82.3,80.1,74.5,80.1z"/></g></svg>