<?xml version="1.0" encoding="UTF-8" standalone="no"?><svg xmlns="http://www.w3.org/2000/svg" xmlns:xlink="http://www.w3.org/1999/xlink" contentScriptType="text/ecmascript" fill="#000000" width="1646.2" zoomAndPan="magnify" contentStyleType="text/css" viewBox="0.0 0.0 1646.2 1852.1" height="1852.1" data-name="圖層 1" preserveAspectRatio="xMidYMid meet" version="1"><g id="change1_1"><path fill="#69b82d" d="M1543.37 617.36L1543.37 514.5 1440.51 514.5 1440.51 411.57 1337.59 411.57 1234.73 411.57 1131.8 411.57 1028.94 411.57 1028.94 308.72 1028.94 205.79 926.01 205.79 926.01 102.93 823.15 102.93 823.15 0 720.22 0 617.36 0 514.44 0 514.44 102.93 411.58 102.93 411.58 205.79 308.65 205.79 308.65 308.72 308.65 411.57 308.65 514.5 308.65 617.36 205.79 617.36 205.79 720.29 102.93 720.29 102.93 823.15 0 823.15 0 926.08 0 1028.94 0 1131.86 0 1234.73 102.93 1234.73 102.93 1337.59 205.79 1337.59 205.79 1440.51 308.65 1440.51 308.65 1543.37 411.58 1543.37 514.44 1543.37 617.36 1543.37 720.22 1543.37 720.22 1646.3 720.22 1749.16 720.22 1852.09 823.15 1852.09 926.01 1852.09 926.01 1749.16 926.01 1646.3 926.01 1543.37 926.01 1440.51 926.01 1337.59 1028.94 1337.59 1131.8 1337.59 1234.73 1337.59 1337.59 1337.59 1440.51 1337.59 1440.51 1234.73 1543.37 1234.73 1543.37 1131.86 1543.37 1028.94 1646.23 1028.94 1646.23 926.08 1646.23 823.15 1646.23 720.29 1646.23 617.36 1543.37 617.36z"/></g><g fill="#448423" id="change2_1"><path d="M720.22 720.29L823.15 720.29 823.15 617.36 926.01 617.36 926.01 514.5 926.01 411.57 926.01 308.72 823.15 308.72 823.15 205.79 720.22 205.79 720.22 102.93 617.36 102.93 617.36 0 514.44 0 514.44 102.93 514.44 205.79 617.36 205.79 617.36 308.72 720.22 308.72 720.22 411.57 823.15 411.57 823.15 514.5 720.22 514.5 720.22 617.36 617.36 617.36 617.36 514.5 514.44 514.5 514.44 617.36 411.58 617.36 411.58 720.29 514.44 720.29 617.36 720.29 617.36 823.15 617.36 926.08 720.22 926.08 720.22 823.15 720.22 720.29z"/><path d="M411.58 308.72H514.4399999999999V411.58000000000004H411.58z"/><path d="M308.65 514.5H411.58V617.36H308.65z"/><path d="M720.22 926.08H823.1500000000001V1028.94H720.22z"/><path d="M1440.51 823.15H1543.37V926.0699999999999H1440.51z"/><path d="M1337.59 926.08H1440.52V1028.94H1337.59z"/><path d="M1337.59 720.29H1440.52V823.15H1337.59z"/><path d="M1234.73 1028.94H1337.59V1131.8600000000001H1234.73z"/><path d="M1234.73 617.36H1337.59V720.28H1234.73z"/><path d="M1131.8 514.5H1234.73V617.36H1131.8z"/><path d="M1028.94 1028.94H1131.8V1131.8600000000001H1028.94z"/><path d="M926.01 926.08H1028.94V1028.94H926.01z"/><path d="M823.15 823.15H926.01V926.0699999999999H823.15z"/><path d="M617.36 1131.86H720.22V1234.7199999999998H617.36z"/><path d="M514.44 1234.73H617.3700000000001V1337.59H514.44z"/><path d="M514.44 1028.94H617.3700000000001V1131.8600000000001H514.44z"/><path d="M411.58 1131.86H514.4399999999999V1234.7199999999998H411.58z"/><path d="M411.58 926.08H514.4399999999999V1028.94H411.58z"/><path d="M308.65 1234.73H411.58V1337.59H308.65z"/><path d="M308.65 1028.94H411.58V1131.8600000000001H308.65z"/><path d="M205.79 1131.86L205.79 1028.94 102.93 1028.94 102.93 1131.86 0 1131.86 0 1234.73 102.93 1234.73 205.79 1234.73 308.65 1234.73 308.65 1131.86 205.79 1131.86z"/><path d="M205.79 823.15H308.65V926.0699999999999H205.79z"/><path d="M102.93 720.29H205.79000000000002V823.15H102.93z"/></g><g fill="#2e6124" id="change3_1"><path d="M1543.37 617.36L1543.37 514.5 1440.51 514.5 1440.51 411.57 1337.59 411.57 1234.73 411.57 1131.8 411.57 1028.94 411.57 1028.94 308.72 1028.94 205.79 926.01 205.79 926.01 102.93 823.15 102.93 823.15 0 720.22 0 617.36 0 617.36 102.93 720.22 102.93 720.22 205.79 823.15 205.79 823.15 308.72 926.01 308.72 926.01 411.57 926.01 514.5 926.01 617.36 1028.94 617.36 1028.94 514.5 1131.8 514.5 1234.73 514.5 1337.59 514.5 1337.59 617.36 1440.51 617.36 1440.51 720.29 1543.37 720.29 1543.37 823.15 1543.37 926.08 1440.51 926.08 1440.51 1028.94 1440.51 1131.86 1337.59 1131.86 1234.73 1131.86 1131.8 1131.86 1028.94 1131.86 1028.94 1028.94 926.01 1028.94 926.01 926.08 823.15 926.08 823.15 1028.94 720.22 1028.94 720.22 1131.86 720.22 1234.73 617.36 1234.73 617.36 1337.59 514.44 1337.59 514.44 1234.73 411.58 1234.73 411.58 1337.59 308.65 1337.59 308.65 1234.73 205.79 1234.73 102.93 1234.73 102.93 1337.59 205.79 1337.59 205.79 1440.51 308.65 1440.51 308.65 1543.37 411.58 1543.37 514.44 1543.37 617.36 1543.37 720.22 1543.37 720.22 1440.51 823.15 1440.51 823.15 1337.59 823.15 1234.73 926.01 1234.73 926.01 1337.59 1028.94 1337.59 1131.8 1337.59 1234.73 1337.59 1337.59 1337.59 1440.51 1337.59 1440.51 1234.73 1543.37 1234.73 1543.37 1131.86 1543.37 1028.94 1646.23 1028.94 1646.23 926.08 1646.23 823.15 1646.23 720.29 1646.23 617.36 1543.37 617.36z"/><path d="M823.15 617.36H926.01V720.28H823.15z"/><path d="M720.22 720.29H823.1500000000001V823.15H720.22z"/><path d="M514.44 1131.86H617.3700000000001V1234.7199999999998H514.44z"/><path d="M308.65 1131.86H411.58V1234.7199999999998H308.65z"/><path d="M205.79 1028.94H308.65V1131.8600000000001H205.79z"/><path d="M0 1028.94H102.93V1131.8600000000001H0z"/></g><g fill="#a0e530" id="change4_1"><path d="M720.22 823.15H823.1500000000001V926.0699999999999H720.22z"/><path d="M1028.94 514.5H1131.8V617.36H1028.94z"/><path d="M926.01 617.36H1028.94V720.28H926.01z"/><path d="M823.15 720.29H926.01V823.15H823.15z"/><path d="M617.36 514.5H720.22V617.36H617.36z"/><path d="M617.36 308.72H720.22V411.58000000000004H617.36z"/><path d="M514.44 720.29H617.3700000000001V823.15H514.44z"/><path d="M514.44 411.57H617.3700000000001V514.5H514.44z"/><path d="M308.65 926.08H411.58V1028.94H308.65z"/><path d="M308.65 411.57H411.58V514.5H308.65z"/><path d="M308.65 205.79H411.58V308.72H308.65z"/><path d="M205.79 720.29H308.65V823.15H205.79z"/><path d="M0 926.08H102.93V1028.94H0z"/></g><g fill="#66b72e" id="change5_1"><path d="M1337.59 720.29L1234.73 720.29 1234.73 617.36 1131.8 617.36 1028.94 617.36 1028.94 720.29 926.01 720.29 926.01 823.15 926.01 926.08 1028.94 926.08 1028.94 1028.94 1131.8 1028.94 1131.8 1131.86 1234.73 1131.86 1234.73 1028.94 1337.59 1028.94 1337.59 926.08 1440.51 926.08 1440.51 823.15 1337.59 823.15 1337.59 720.29z"/><path d="M1440.51 720.29H1543.37V823.15H1440.51z"/><path d="M1337.59 1028.94H1440.52V1131.8600000000001H1337.59z"/><path d="M1337.59 617.36H1440.52V720.28H1337.59z"/><path d="M1234.73 514.5H1337.59V617.36H1234.73z"/><path d="M617.36 411.57L617.36 514.5 720.22 514.5 823.15 514.5 823.15 411.57 720.22 411.57 617.36 411.57z"/><path d="M617.36 205.79L514.44 205.79 514.44 102.93 411.58 102.93 411.58 205.79 411.58 308.72 514.44 308.72 514.44 411.57 617.36 411.57 617.36 308.72 617.36 205.79z"/><path d="M411.58 1028.94H514.4399999999999V1131.8600000000001H411.58z"/><path d="M411.58 514.5L411.58 617.36 514.44 617.36 514.44 514.5 514.44 411.57 411.58 411.57 411.58 514.5z"/><path d="M308.65 308.72H411.58V411.58000000000004H308.65z"/><path d="M205.79 617.36L205.79 720.29 308.65 720.29 308.65 823.15 308.65 926.08 411.58 926.08 514.44 926.08 514.44 1028.94 617.36 1028.94 617.36 1131.86 720.22 1131.86 720.22 1028.94 720.22 926.08 617.36 926.08 617.36 823.15 514.44 823.15 514.44 720.29 411.58 720.29 411.58 617.36 308.65 617.36 205.79 617.36z"/><path d="M205.79 823.15L102.93 823.15 0 823.15 0 926.08 102.93 926.08 102.93 1028.94 205.79 1028.94 308.65 1028.94 308.65 926.08 205.79 926.08 205.79 823.15z"/></g><g fill="#402710" id="change6_1"><path d="M823.15 1646.3H926.01V1749.1599999999999H823.15z"/><path d="M823.15 1440.51H926.01V1543.37H823.15z"/><path d="M823.15 1234.73H926.01V1337.59H823.15z"/><path d="M720.22 1749.16H823.1500000000001V1852.0900000000001H720.22z"/><path d="M720.22 1543.37H823.1500000000001V1646.3H720.22z"/></g><g fill="#533920" id="change7_1"><path d="M823.15 1749.16H926.01V1852.0900000000001H823.15z"/><path d="M823.15 1543.37H926.01V1646.3H823.15z"/><path d="M823.15 1337.59H926.01V1440.52H823.15z"/><path d="M823.15 1131.86H926.01V1234.7199999999998H823.15z"/><path d="M720.22 1646.3H823.1500000000001V1749.1599999999999H720.22z"/><path d="M720.22 1440.51H823.1500000000001V1543.37H720.22z"/></g></svg>