<?xml version="1.0" encoding="UTF-8" standalone="no"?><svg xmlns="http://www.w3.org/2000/svg" xmlns:xlink="http://www.w3.org/1999/xlink" contentScriptType="text/ecmascript" fill="#000000" width="28.1" zoomAndPan="magnify" contentStyleType="text/css" viewBox="2.0 2.0 28.1 28.1" height="28.1" preserveAspectRatio="xMidYMid meet" version="1"><g id="change1_1"><path d="M29.294,6.044l-13-4a1,1,0,0,0-.588,0l-13,4A1,1,0,0,0,2,7.09l1.009,11.1A12.952,12.952,0,0,0,16.05,30,12.928,12.928,0,0,0,28.987,18.185L30,7.09A1,1,0,0,0,29.294,6.044ZM27,18A10.962,10.962,0,0,1,15.95,28,10.937,10.937,0,0,1,5.005,18L4.069,7.717,16,4.046,27.931,7.717Z"/><path d="M10.51,13.99A1,1,0,0,0,9.1,15.4l5,5a1,1,0,0,0,1.414,0L22.9,13.01A1,1,0,0,0,21.49,11.6L14.8,18.283Z"/></g></svg>