<?xml version="1.0" encoding="UTF-8" standalone="no"?><svg xmlns="http://www.w3.org/2000/svg" xmlns:xlink="http://www.w3.org/1999/xlink" contentScriptType="text/ecmascript" fill="#000000" width="341.4" zoomAndPan="magnify" contentStyleType="text/css" viewBox="41.9 87.9 341.4 249.5" height="249.5" preserveAspectRatio="xMidYMid meet" version="1"><g><g id="change1_1"><path fill="#f4b251" d="M 94.425781 297.949219 L 81.296875 297.949219 L 81.296875 284.816406 L 94.425781 284.816406 L 94.425781 297.949219"/></g><g id="change1_2"><path fill="#f4b251" d="M 107.558594 297.949219 L 94.425781 297.949219 L 94.425781 284.816406 L 107.558594 284.816406 L 107.558594 297.949219"/></g><g id="change1_3"><path fill="#f4b251" d="M 120.6875 297.949219 L 107.558594 297.949219 L 107.558594 284.816406 L 120.6875 284.816406 L 120.6875 297.949219"/></g><g id="change1_4"><path fill="#f4b251" d="M 133.816406 297.949219 L 120.6875 297.949219 L 120.6875 284.816406 L 133.816406 284.816406 L 133.816406 297.949219"/></g><g id="change1_5"><path fill="#f4b251" d="M 146.949219 297.949219 L 133.816406 297.949219 L 133.816406 284.816406 L 146.949219 284.816406 L 146.949219 297.949219"/></g><g id="change1_6"><path fill="#f4b251" d="M 160.078125 297.949219 L 146.949219 297.949219 L 146.949219 284.816406 L 160.078125 284.816406 L 160.078125 297.949219"/></g><g id="change1_7"><path fill="#f4b251" d="M 173.210938 297.949219 L 160.078125 297.949219 L 160.078125 284.816406 L 173.210938 284.816406 L 173.210938 297.949219"/></g><g id="change1_8"><path fill="#f4b251" d="M 186.339844 297.949219 L 173.210938 297.949219 L 173.210938 284.816406 L 186.339844 284.816406 L 186.339844 297.949219"/></g><g id="change1_9"><path fill="#f4b251" d="M 199.472656 297.949219 L 186.339844 297.949219 L 186.339844 284.816406 L 199.472656 284.816406 L 199.472656 297.949219"/></g><g id="change1_10"><path fill="#f4b251" d="M 212.601562 297.949219 L 199.472656 297.949219 L 199.472656 284.816406 L 212.601562 284.816406 L 212.601562 297.949219"/></g><g id="change1_11"><path fill="#f4b251" d="M 225.730469 297.949219 L 212.601562 297.949219 L 212.601562 284.816406 L 225.730469 284.816406 L 225.730469 297.949219"/></g><g id="change1_12"><path fill="#f4b251" d="M 238.859375 297.949219 L 225.730469 297.949219 L 225.730469 284.816406 L 238.859375 284.816406 L 238.859375 297.949219"/></g><g id="change1_13"><path fill="#f4b251" d="M 94.425781 284.816406 L 81.296875 284.816406 L 81.296875 271.6875 L 94.425781 271.6875 L 94.425781 284.816406"/></g><g id="change1_14"><path fill="#f4b251" d="M 107.558594 284.816406 L 94.425781 284.816406 L 94.425781 271.6875 L 107.558594 271.6875 L 107.558594 284.816406"/></g><g id="change1_15"><path fill="#f4b251" d="M 120.6875 284.816406 L 107.558594 284.816406 L 107.558594 271.6875 L 120.6875 271.6875 L 120.6875 284.816406"/></g><g id="change1_16"><path fill="#f4b251" d="M 133.816406 284.816406 L 120.6875 284.816406 L 120.6875 271.6875 L 133.816406 271.6875 L 133.816406 284.816406"/></g><g id="change1_17"><path fill="#f4b251" d="M 146.949219 284.816406 L 133.816406 284.816406 L 133.816406 271.6875 L 146.949219 271.6875 L 146.949219 284.816406"/></g><g id="change1_18"><path fill="#f4b251" d="M 160.078125 284.816406 L 146.949219 284.816406 L 146.949219 271.6875 L 160.078125 271.6875 L 160.078125 284.816406"/></g><g id="change1_19"><path fill="#f4b251" d="M 173.210938 284.816406 L 160.078125 284.816406 L 160.078125 271.6875 L 173.210938 271.6875 L 173.210938 284.816406"/></g><g id="change1_20"><path fill="#f4b251" d="M 186.339844 284.816406 L 173.210938 284.816406 L 173.210938 271.6875 L 186.339844 271.6875 L 186.339844 284.816406"/></g><g id="change2_1"><path fill="#a0b1b9" d="M 199.472656 284.816406 L 186.339844 284.816406 L 186.339844 271.6875 L 199.472656 271.6875 L 199.472656 284.816406"/></g><g id="change2_2"><path fill="#a0b1b9" d="M 212.601562 284.816406 L 199.472656 284.816406 L 199.472656 271.6875 L 212.601562 271.6875 L 212.601562 284.816406"/></g><g id="change2_3"><path fill="#a0b1b9" d="M 225.730469 284.816406 L 212.601562 284.816406 L 212.601562 271.6875 L 225.730469 271.6875 L 225.730469 284.816406"/></g><g id="change2_4"><path fill="#a0b1b9" d="M 238.859375 284.816406 L 225.730469 284.816406 L 225.730469 271.6875 L 238.859375 271.6875 L 238.859375 284.816406"/></g><g id="change1_21"><path fill="#f4b251" d="M 94.425781 271.6875 L 81.296875 271.6875 L 81.296875 258.558594 L 94.425781 258.558594 L 94.425781 271.6875"/></g><g id="change1_22"><path fill="#f4b251" d="M 107.558594 271.6875 L 94.425781 271.6875 L 94.425781 258.558594 L 107.558594 258.558594 L 107.558594 271.6875"/></g><g id="change1_23"><path fill="#f4b251" d="M 120.6875 271.6875 L 107.558594 271.6875 L 107.558594 258.558594 L 120.6875 258.558594 L 120.6875 271.6875"/></g><g id="change1_24"><path fill="#f4b251" d="M 133.816406 271.6875 L 120.6875 271.6875 L 120.6875 258.558594 L 133.816406 258.558594 L 133.816406 271.6875"/></g><g id="change1_25"><path fill="#f4b251" d="M 146.949219 271.6875 L 133.816406 271.6875 L 133.816406 258.558594 L 146.949219 258.558594 L 146.949219 271.6875"/></g><g id="change1_26"><path fill="#f4b251" d="M 160.078125 271.6875 L 146.949219 271.6875 L 146.949219 258.558594 L 160.078125 258.558594 L 160.078125 271.6875"/></g><g id="change1_27"><path fill="#f4b251" d="M 173.210938 271.6875 L 160.078125 271.6875 L 160.078125 258.558594 L 173.210938 258.558594 L 173.210938 271.6875"/></g><g id="change2_5"><path fill="#a0b1b9" d="M 186.339844 271.6875 L 173.210938 271.6875 L 173.210938 258.558594 L 186.339844 258.558594 L 186.339844 271.6875"/></g><g id="change2_6"><path fill="#a0b1b9" d="M 199.472656 271.6875 L 186.339844 271.6875 L 186.339844 258.558594 L 199.472656 258.558594 L 199.472656 271.6875"/></g><g id="change3_1"><path fill="#ffffff" d="M 212.601562 271.6875 L 199.472656 271.6875 L 199.472656 258.558594 L 212.601562 258.558594 L 212.601562 271.6875"/></g><g id="change3_2"><path fill="#ffffff" d="M 225.730469 271.6875 L 212.601562 271.6875 L 212.601562 258.558594 L 225.730469 258.558594 L 225.730469 271.6875"/></g><g id="change2_7"><path fill="#a0b1b9" d="M 238.859375 271.6875 L 225.730469 271.6875 L 225.730469 258.558594 L 238.859375 258.558594 L 238.859375 271.6875"/></g><g id="change1_28"><path fill="#f4b251" d="M 94.425781 258.558594 L 81.296875 258.558594 L 81.296875 245.425781 L 94.425781 245.425781 L 94.425781 258.558594"/></g><g id="change1_29"><path fill="#f4b251" d="M 107.558594 258.558594 L 94.425781 258.558594 L 94.425781 245.425781 L 107.558594 245.425781 L 107.558594 258.558594"/></g><g id="change1_30"><path fill="#f4b251" d="M 120.6875 258.558594 L 107.558594 258.558594 L 107.558594 245.425781 L 120.6875 245.425781 L 120.6875 258.558594"/></g><g id="change1_31"><path fill="#f4b251" d="M 133.816406 258.558594 L 120.6875 258.558594 L 120.6875 245.425781 L 133.816406 245.425781 L 133.816406 258.558594"/></g><g id="change1_32"><path fill="#f4b251" d="M 146.949219 258.558594 L 133.816406 258.558594 L 133.816406 245.425781 L 146.949219 245.425781 L 146.949219 258.558594"/></g><g id="change1_33"><path fill="#f4b251" d="M 160.078125 258.558594 L 146.949219 258.558594 L 146.949219 245.425781 L 160.078125 245.425781 L 160.078125 258.558594"/></g><g id="change1_34"><path fill="#f4b251" d="M 173.210938 258.558594 L 160.078125 258.558594 L 160.078125 245.425781 L 173.210938 245.425781 L 173.210938 258.558594"/></g><g id="change2_8"><path fill="#a0b1b9" d="M 186.339844 258.558594 L 173.210938 258.558594 L 173.210938 245.425781 L 186.339844 245.425781 L 186.339844 258.558594"/></g><g id="change2_9"><path fill="#a0b1b9" d="M 199.472656 258.558594 L 186.339844 258.558594 L 186.339844 245.425781 L 199.472656 245.425781 L 199.472656 258.558594"/></g><g id="change3_3"><path fill="#ffffff" d="M 212.601562 258.558594 L 199.472656 258.558594 L 199.472656 245.425781 L 212.601562 245.425781 L 212.601562 258.558594"/></g><g id="change3_4"><path fill="#ffffff" d="M 225.730469 258.558594 L 212.601562 258.558594 L 212.601562 245.425781 L 225.730469 245.425781 L 225.730469 258.558594"/></g><g id="change2_10"><path fill="#a0b1b9" d="M 238.859375 258.558594 L 225.730469 258.558594 L 225.730469 245.425781 L 238.859375 245.425781 L 238.859375 258.558594"/></g><g id="change1_35"><path fill="#f4b251" d="M 94.425781 245.425781 L 81.296875 245.425781 L 81.296875 232.296875 L 94.425781 232.296875 L 94.425781 245.425781"/></g><g id="change1_36"><path fill="#f4b251" d="M 107.558594 245.425781 L 94.425781 245.425781 L 94.425781 232.296875 L 107.558594 232.296875 L 107.558594 245.425781"/></g><g id="change1_37"><path fill="#f4b251" d="M 120.6875 245.425781 L 107.558594 245.425781 L 107.558594 232.296875 L 120.6875 232.296875 L 120.6875 245.425781"/></g><g id="change1_38"><path fill="#f4b251" d="M 133.816406 245.425781 L 120.6875 245.425781 L 120.6875 232.296875 L 133.816406 232.296875 L 133.816406 245.425781"/></g><g id="change1_39"><path fill="#f4b251" d="M 146.949219 245.425781 L 133.816406 245.425781 L 133.816406 232.296875 L 146.949219 232.296875 L 146.949219 245.425781"/></g><g id="change1_40"><path fill="#f4b251" d="M 160.078125 245.425781 L 146.949219 245.425781 L 146.949219 232.296875 L 160.078125 232.296875 L 160.078125 245.425781"/></g><g id="change1_41"><path fill="#f4b251" d="M 173.210938 245.425781 L 160.078125 245.425781 L 160.078125 232.296875 L 173.210938 232.296875 L 173.210938 245.425781"/></g><g id="change2_11"><path fill="#a0b1b9" d="M 186.339844 245.425781 L 173.210938 245.425781 L 173.210938 232.296875 L 186.339844 232.296875 L 186.339844 245.425781"/></g><g id="change2_12"><path fill="#a0b1b9" d="M 199.472656 245.425781 L 186.339844 245.425781 L 186.339844 232.296875 L 199.472656 232.296875 L 199.472656 245.425781"/></g><g id="change3_5"><path fill="#ffffff" d="M 212.601562 245.425781 L 199.472656 245.425781 L 199.472656 232.296875 L 212.601562 232.296875 L 212.601562 245.425781"/></g><g id="change3_6"><path fill="#ffffff" d="M 225.730469 245.425781 L 212.601562 245.425781 L 212.601562 232.296875 L 225.730469 232.296875 L 225.730469 245.425781"/></g><g id="change2_13"><path fill="#a0b1b9" d="M 238.859375 245.425781 L 225.730469 245.425781 L 225.730469 232.296875 L 238.859375 232.296875 L 238.859375 245.425781"/></g><g id="change1_42"><path fill="#f4b251" d="M 94.425781 232.296875 L 81.296875 232.296875 L 81.296875 219.164062 L 94.425781 219.164062 L 94.425781 232.296875"/></g><g id="change1_43"><path fill="#f4b251" d="M 107.558594 232.296875 L 94.425781 232.296875 L 94.425781 219.164062 L 107.558594 219.164062 L 107.558594 232.296875"/></g><g id="change1_44"><path fill="#f4b251" d="M 120.6875 232.296875 L 107.558594 232.296875 L 107.558594 219.164062 L 120.6875 219.164062 L 120.6875 232.296875"/></g><g id="change1_45"><path fill="#f4b251" d="M 133.816406 232.296875 L 120.6875 232.296875 L 120.6875 219.164062 L 133.816406 219.164062 L 133.816406 232.296875"/></g><g id="change1_46"><path fill="#f4b251" d="M 146.949219 232.296875 L 133.816406 232.296875 L 133.816406 219.164062 L 146.949219 219.164062 L 146.949219 232.296875"/></g><g id="change1_47"><path fill="#f4b251" d="M 160.078125 232.296875 L 146.949219 232.296875 L 146.949219 219.164062 L 160.078125 219.164062 L 160.078125 232.296875"/></g><g id="change1_48"><path fill="#f4b251" d="M 173.210938 232.296875 L 160.078125 232.296875 L 160.078125 219.164062 L 173.210938 219.164062 L 173.210938 232.296875"/></g><g id="change2_14"><path fill="#a0b1b9" d="M 186.339844 232.296875 L 173.210938 232.296875 L 173.210938 219.164062 L 186.339844 219.164062 L 186.339844 232.296875"/></g><g id="change2_15"><path fill="#a0b1b9" d="M 199.472656 232.296875 L 186.339844 232.296875 L 186.339844 219.164062 L 199.472656 219.164062 L 199.472656 232.296875"/></g><g id="change2_16"><path fill="#a0b1b9" d="M 212.601562 232.296875 L 199.472656 232.296875 L 199.472656 219.164062 L 212.601562 219.164062 L 212.601562 232.296875"/></g><g id="change2_17"><path fill="#a0b1b9" d="M 225.730469 232.296875 L 212.601562 232.296875 L 212.601562 219.164062 L 225.730469 219.164062 L 225.730469 232.296875"/></g><g id="change2_18"><path fill="#a0b1b9" d="M 238.859375 232.296875 L 225.730469 232.296875 L 225.730469 219.164062 L 238.859375 219.164062 L 238.859375 232.296875"/></g><g id="change2_19"><path fill="#a0b1b9" d="M 186.339844 219.164062 L 173.210938 219.164062 L 173.210938 206.035156 L 186.339844 206.035156 L 186.339844 219.164062"/></g><g id="change1_49"><path fill="#f4b251" d="M 94.425781 166.644531 L 81.296875 166.644531 L 81.296875 153.515625 L 94.425781 153.515625 L 94.425781 166.644531"/></g><g id="change1_50"><path fill="#f4b251" d="M 107.558594 166.644531 L 94.425781 166.644531 L 94.425781 153.515625 L 107.558594 153.515625 L 107.558594 166.644531"/></g><g id="change1_51"><path fill="#f4b251" d="M 120.6875 166.644531 L 107.558594 166.644531 L 107.558594 153.515625 L 120.6875 153.515625 L 120.6875 166.644531"/></g><g id="change1_52"><path fill="#f4b251" d="M 133.816406 166.644531 L 120.6875 166.644531 L 120.6875 153.515625 L 133.816406 153.515625 L 133.816406 166.644531"/></g><g id="change1_53"><path fill="#f4b251" d="M 146.949219 166.644531 L 133.816406 166.644531 L 133.816406 153.515625 L 146.949219 153.515625 L 146.949219 166.644531"/></g><g id="change1_54"><path fill="#f4b251" d="M 160.078125 166.644531 L 146.949219 166.644531 L 146.949219 153.515625 L 160.078125 153.515625 L 160.078125 166.644531"/></g><g id="change1_55"><path fill="#f4b251" d="M 94.425781 153.515625 L 81.296875 153.515625 L 81.296875 140.382812 L 94.425781 140.382812 L 94.425781 153.515625"/></g><g id="change1_56"><path fill="#f4b251" d="M 107.558594 153.515625 L 94.425781 153.515625 L 94.425781 140.382812 L 107.558594 140.382812 L 107.558594 153.515625"/></g><g id="change1_57"><path fill="#f4b251" d="M 120.6875 153.515625 L 107.558594 153.515625 L 107.558594 140.382812 L 120.6875 140.382812 L 120.6875 153.515625"/></g><g id="change1_58"><path fill="#f4b251" d="M 133.816406 153.515625 L 120.6875 153.515625 L 120.6875 140.382812 L 133.816406 140.382812 L 133.816406 153.515625"/></g><g id="change1_59"><path fill="#f4b251" d="M 146.949219 153.515625 L 133.816406 153.515625 L 133.816406 140.382812 L 146.949219 140.382812 L 146.949219 153.515625"/></g><g id="change1_60"><path fill="#f4b251" d="M 160.078125 153.515625 L 146.949219 153.515625 L 146.949219 140.382812 L 160.078125 140.382812 L 160.078125 153.515625"/></g><g id="change1_61"><path fill="#f4b251" d="M 173.210938 153.515625 L 160.078125 153.515625 L 160.078125 140.382812 L 173.210938 140.382812 L 173.210938 153.515625"/></g><g id="change1_62"><path fill="#f4b251" d="M 186.339844 153.515625 L 173.210938 153.515625 L 173.210938 140.382812 L 186.339844 140.382812 L 186.339844 153.515625"/></g><g id="change1_63"><path fill="#f4b251" d="M 107.558594 140.382812 L 94.425781 140.382812 L 94.425781 127.253906 L 107.558594 127.253906 L 107.558594 140.382812"/></g><g id="change1_64"><path fill="#f4b251" d="M 120.6875 140.382812 L 107.558594 140.382812 L 107.558594 127.253906 L 120.6875 127.253906 L 120.6875 140.382812"/></g><g id="change1_65"><path fill="#f4b251" d="M 133.816406 140.382812 L 120.6875 140.382812 L 120.6875 127.253906 L 133.816406 127.253906 L 133.816406 140.382812"/></g><g id="change1_66"><path fill="#f4b251" d="M 146.949219 140.382812 L 133.816406 140.382812 L 133.816406 127.253906 L 146.949219 127.253906 L 146.949219 140.382812"/></g><g id="change1_67"><path fill="#f4b251" d="M 160.078125 140.382812 L 146.949219 140.382812 L 146.949219 127.253906 L 160.078125 127.253906 L 160.078125 140.382812"/></g><g id="change1_68"><path fill="#f4b251" d="M 173.210938 140.382812 L 160.078125 140.382812 L 160.078125 127.253906 L 173.210938 127.253906 L 173.210938 140.382812"/></g><g id="change1_69"><path fill="#f4b251" d="M 186.339844 140.382812 L 173.210938 140.382812 L 173.210938 127.253906 L 186.339844 127.253906 L 186.339844 140.382812"/></g><g id="change4_1"><path fill="#000000" d="M 81.296875 127.253906 L 68.164062 127.253906 L 68.164062 114.121094 L 81.296875 114.121094 L 81.296875 127.253906"/></g><g id="change1_70"><path fill="#f4b251" d="M 251.992188 297.949219 L 238.859375 297.949219 L 238.859375 284.816406 L 251.992188 284.816406 L 251.992188 297.949219"/></g><g id="change1_71"><path fill="#f4b251" d="M 265.121094 297.949219 L 251.992188 297.949219 L 251.992188 284.816406 L 265.121094 284.816406 L 265.121094 297.949219"/></g><g id="change1_72"><path fill="#f4b251" d="M 278.253906 297.949219 L 265.121094 297.949219 L 265.121094 284.816406 L 278.253906 284.816406 L 278.253906 297.949219"/></g><g id="change1_73"><path fill="#f4b251" d="M 291.382812 297.949219 L 278.253906 297.949219 L 278.253906 284.816406 L 291.382812 284.816406 L 291.382812 297.949219"/></g><g id="change1_74"><path fill="#f4b251" d="M 304.515625 297.949219 L 291.382812 297.949219 L 291.382812 284.816406 L 304.515625 284.816406 L 304.515625 297.949219"/></g><g id="change1_75"><path fill="#f4b251" d="M 317.644531 297.949219 L 304.515625 297.949219 L 304.515625 284.816406 L 317.644531 284.816406 L 317.644531 297.949219"/></g><g id="change1_76"><path fill="#f4b251" d="M 330.773438 297.949219 L 317.644531 297.949219 L 317.644531 284.816406 L 330.773438 284.816406 L 330.773438 297.949219"/></g><g id="change1_77"><path fill="#f4b251" d="M 343.902344 297.949219 L 330.773438 297.949219 L 330.773438 284.816406 L 343.902344 284.816406 L 343.902344 297.949219"/></g><g id="change1_78"><path fill="#f4b251" d="M 265.121094 284.816406 L 251.992188 284.816406 L 251.992188 271.6875 L 265.121094 271.6875 L 265.121094 284.816406"/></g><g id="change1_79"><path fill="#f4b251" d="M 278.253906 284.816406 L 265.121094 284.816406 L 265.121094 271.6875 L 278.253906 271.6875 L 278.253906 284.816406"/></g><g id="change1_80"><path fill="#f4b251" d="M 291.382812 284.816406 L 278.253906 284.816406 L 278.253906 271.6875 L 291.382812 271.6875 L 291.382812 284.816406"/></g><g id="change1_81"><path fill="#f4b251" d="M 304.515625 284.816406 L 291.382812 284.816406 L 291.382812 271.6875 L 304.515625 271.6875 L 304.515625 284.816406"/></g><g id="change1_82"><path fill="#f4b251" d="M 317.644531 284.816406 L 304.515625 284.816406 L 304.515625 271.6875 L 317.644531 271.6875 L 317.644531 284.816406"/></g><g id="change1_83"><path fill="#f4b251" d="M 330.773438 284.816406 L 317.644531 284.816406 L 317.644531 271.6875 L 330.773438 271.6875 L 330.773438 284.816406"/></g><g id="change1_84"><path fill="#f4b251" d="M 343.902344 284.816406 L 330.773438 284.816406 L 330.773438 271.6875 L 343.902344 271.6875 L 343.902344 284.816406"/></g><g id="change2_20"><path fill="#a0b1b9" d="M 251.992188 271.6875 L 238.859375 271.6875 L 238.859375 258.558594 L 251.992188 258.558594 L 251.992188 271.6875"/></g><g id="change1_85"><path fill="#f4b251" d="M 278.253906 271.6875 L 265.121094 271.6875 L 265.121094 258.558594 L 278.253906 258.558594 L 278.253906 271.6875"/></g><g id="change1_86"><path fill="#f4b251" d="M 291.382812 271.6875 L 278.253906 271.6875 L 278.253906 258.558594 L 291.382812 258.558594 L 291.382812 271.6875"/></g><g id="change1_87"><path fill="#f4b251" d="M 304.515625 271.6875 L 291.382812 271.6875 L 291.382812 258.558594 L 304.515625 258.558594 L 304.515625 271.6875"/></g><g id="change1_88"><path fill="#f4b251" d="M 317.644531 271.6875 L 304.515625 271.6875 L 304.515625 258.558594 L 317.644531 258.558594 L 317.644531 271.6875"/></g><g id="change1_89"><path fill="#f4b251" d="M 330.773438 271.6875 L 317.644531 271.6875 L 317.644531 258.558594 L 330.773438 258.558594 L 330.773438 271.6875"/></g><g id="change1_90"><path fill="#f4b251" d="M 343.902344 271.6875 L 330.773438 271.6875 L 330.773438 258.558594 L 343.902344 258.558594 L 343.902344 271.6875"/></g><g id="change2_21"><path fill="#a0b1b9" d="M 251.992188 258.558594 L 238.859375 258.558594 L 238.859375 245.425781 L 251.992188 245.425781 L 251.992188 258.558594"/></g><g id="change1_91"><path fill="#f4b251" d="M 278.253906 258.558594 L 265.121094 258.558594 L 265.121094 245.425781 L 278.253906 245.425781 L 278.253906 258.558594"/></g><g id="change1_92"><path fill="#f4b251" d="M 291.382812 258.558594 L 278.253906 258.558594 L 278.253906 245.425781 L 291.382812 245.425781 L 291.382812 258.558594"/></g><g id="change1_93"><path fill="#f4b251" d="M 304.515625 258.558594 L 291.382812 258.558594 L 291.382812 245.425781 L 304.515625 245.425781 L 304.515625 258.558594"/></g><g id="change1_94"><path fill="#f4b251" d="M 317.644531 258.558594 L 304.515625 258.558594 L 304.515625 245.425781 L 317.644531 245.425781 L 317.644531 258.558594"/></g><g id="change1_95"><path fill="#f4b251" d="M 330.773438 258.558594 L 317.644531 258.558594 L 317.644531 245.425781 L 330.773438 245.425781 L 330.773438 258.558594"/></g><g id="change1_96"><path fill="#f4b251" d="M 343.902344 258.558594 L 330.773438 258.558594 L 330.773438 245.425781 L 343.902344 245.425781 L 343.902344 258.558594"/></g><g id="change2_22"><path fill="#a0b1b9" d="M 251.992188 245.425781 L 238.859375 245.425781 L 238.859375 232.296875 L 251.992188 232.296875 L 251.992188 245.425781"/></g><g id="change1_97"><path fill="#f4b251" d="M 278.253906 245.425781 L 265.121094 245.425781 L 265.121094 232.296875 L 278.253906 232.296875 L 278.253906 245.425781"/></g><g id="change1_98"><path fill="#f4b251" d="M 291.382812 245.425781 L 278.253906 245.425781 L 278.253906 232.296875 L 291.382812 232.296875 L 291.382812 245.425781"/></g><g id="change1_99"><path fill="#f4b251" d="M 304.515625 245.425781 L 291.382812 245.425781 L 291.382812 232.296875 L 304.515625 232.296875 L 304.515625 245.425781"/></g><g id="change1_100"><path fill="#f4b251" d="M 317.644531 245.425781 L 304.515625 245.425781 L 304.515625 232.296875 L 317.644531 232.296875 L 317.644531 245.425781"/></g><g id="change1_101"><path fill="#f4b251" d="M 330.773438 245.425781 L 317.644531 245.425781 L 317.644531 232.296875 L 330.773438 232.296875 L 330.773438 245.425781"/></g><g id="change1_102"><path fill="#f4b251" d="M 343.902344 245.425781 L 330.773438 245.425781 L 330.773438 232.296875 L 343.902344 232.296875 L 343.902344 245.425781"/></g><g id="change2_23"><path fill="#a0b1b9" d="M 251.992188 232.296875 L 238.859375 232.296875 L 238.859375 219.164062 L 251.992188 219.164062 L 251.992188 232.296875"/></g><g id="change1_103"><path fill="#f4b251" d="M 278.253906 232.296875 L 265.121094 232.296875 L 265.121094 219.164062 L 278.253906 219.164062 L 278.253906 232.296875"/></g><g id="change1_104"><path fill="#f4b251" d="M 291.382812 232.296875 L 278.253906 232.296875 L 278.253906 219.164062 L 291.382812 219.164062 L 291.382812 232.296875"/></g><g id="change1_105"><path fill="#f4b251" d="M 304.515625 232.296875 L 291.382812 232.296875 L 291.382812 219.164062 L 304.515625 219.164062 L 304.515625 232.296875"/></g><g id="change1_106"><path fill="#f4b251" d="M 317.644531 232.296875 L 304.515625 232.296875 L 304.515625 219.164062 L 317.644531 219.164062 L 317.644531 232.296875"/></g><g id="change1_107"><path fill="#f4b251" d="M 330.773438 232.296875 L 317.644531 232.296875 L 317.644531 219.164062 L 330.773438 219.164062 L 330.773438 232.296875"/></g><g id="change1_108"><path fill="#f4b251" d="M 343.902344 232.296875 L 330.773438 232.296875 L 330.773438 219.164062 L 343.902344 219.164062 L 343.902344 232.296875"/></g><g id="change2_24"><path fill="#a0b1b9" d="M 251.992188 219.164062 L 238.859375 219.164062 L 238.859375 206.035156 L 251.992188 206.035156 L 251.992188 219.164062"/></g><g id="change1_109"><path fill="#f4b251" d="M 278.253906 166.644531 L 265.121094 166.644531 L 265.121094 153.515625 L 278.253906 153.515625 L 278.253906 166.644531"/></g><g id="change1_110"><path fill="#f4b251" d="M 291.382812 166.644531 L 278.253906 166.644531 L 278.253906 153.515625 L 291.382812 153.515625 L 291.382812 166.644531"/></g><g id="change1_111"><path fill="#f4b251" d="M 304.515625 166.644531 L 291.382812 166.644531 L 291.382812 153.515625 L 304.515625 153.515625 L 304.515625 166.644531"/></g><g id="change1_112"><path fill="#f4b251" d="M 317.644531 166.644531 L 304.515625 166.644531 L 304.515625 153.515625 L 317.644531 153.515625 L 317.644531 166.644531"/></g><g id="change1_113"><path fill="#f4b251" d="M 330.773438 166.644531 L 317.644531 166.644531 L 317.644531 153.515625 L 330.773438 153.515625 L 330.773438 166.644531"/></g><g id="change1_114"><path fill="#f4b251" d="M 343.902344 166.644531 L 330.773438 166.644531 L 330.773438 153.515625 L 343.902344 153.515625 L 343.902344 166.644531"/></g><g id="change1_115"><path fill="#f4b251" d="M 251.992188 153.515625 L 238.859375 153.515625 L 238.859375 140.382812 L 251.992188 140.382812 L 251.992188 153.515625"/></g><g id="change1_116"><path fill="#f4b251" d="M 265.121094 153.515625 L 251.992188 153.515625 L 251.992188 140.382812 L 265.121094 140.382812 L 265.121094 153.515625"/></g><g id="change1_117"><path fill="#f4b251" d="M 278.253906 153.515625 L 265.121094 153.515625 L 265.121094 140.382812 L 278.253906 140.382812 L 278.253906 153.515625"/></g><g id="change1_118"><path fill="#f4b251" d="M 291.382812 153.515625 L 278.253906 153.515625 L 278.253906 140.382812 L 291.382812 140.382812 L 291.382812 153.515625"/></g><g id="change1_119"><path fill="#f4b251" d="M 304.515625 153.515625 L 291.382812 153.515625 L 291.382812 140.382812 L 304.515625 140.382812 L 304.515625 153.515625"/></g><g id="change1_120"><path fill="#f4b251" d="M 317.644531 153.515625 L 304.515625 153.515625 L 304.515625 140.382812 L 317.644531 140.382812 L 317.644531 153.515625"/></g><g id="change1_121"><path fill="#f4b251" d="M 330.773438 153.515625 L 317.644531 153.515625 L 317.644531 140.382812 L 330.773438 140.382812 L 330.773438 153.515625"/></g><g id="change1_122"><path fill="#f4b251" d="M 343.902344 153.515625 L 330.773438 153.515625 L 330.773438 140.382812 L 343.902344 140.382812 L 343.902344 153.515625"/></g><g id="change1_123"><path fill="#f4b251" d="M 251.992188 140.382812 L 238.859375 140.382812 L 238.859375 127.253906 L 251.992188 127.253906 L 251.992188 140.382812"/></g><g id="change1_124"><path fill="#f4b251" d="M 265.121094 140.382812 L 251.992188 140.382812 L 251.992188 127.253906 L 265.121094 127.253906 L 265.121094 140.382812"/></g><g id="change1_125"><path fill="#f4b251" d="M 278.253906 140.382812 L 265.121094 140.382812 L 265.121094 127.253906 L 278.253906 127.253906 L 278.253906 140.382812"/></g><g id="change1_126"><path fill="#f4b251" d="M 291.382812 140.382812 L 278.253906 140.382812 L 278.253906 127.253906 L 291.382812 127.253906 L 291.382812 140.382812"/></g><g id="change1_127"><path fill="#f4b251" d="M 304.515625 140.382812 L 291.382812 140.382812 L 291.382812 127.253906 L 304.515625 127.253906 L 304.515625 140.382812"/></g><g id="change1_128"><path fill="#f4b251" d="M 317.644531 140.382812 L 304.515625 140.382812 L 304.515625 127.253906 L 317.644531 127.253906 L 317.644531 140.382812"/></g><g id="change1_129"><path fill="#f4b251" d="M 330.773438 140.382812 L 317.644531 140.382812 L 317.644531 127.253906 L 330.773438 127.253906 L 330.773438 140.382812"/></g><g id="change1_130"><path fill="#f4b251" d="M 81.296875 311.078125 L 68.164062 311.078125 L 68.164062 297.949219 L 81.296875 297.949219 L 81.296875 311.078125"/></g><g id="change1_131"><path fill="#f4b251" d="M 94.425781 311.078125 L 81.296875 311.078125 L 81.296875 297.949219 L 94.425781 297.949219 L 94.425781 311.078125"/></g><g id="change1_132"><path fill="#f4b251" d="M 107.558594 311.078125 L 94.425781 311.078125 L 94.425781 297.949219 L 107.558594 297.949219 L 107.558594 311.078125"/></g><g id="change1_133"><path fill="#f4b251" d="M 120.6875 311.078125 L 107.558594 311.078125 L 107.558594 297.949219 L 120.6875 297.949219 L 120.6875 311.078125"/></g><g id="change1_134"><path fill="#f4b251" d="M 133.816406 311.078125 L 120.6875 311.078125 L 120.6875 297.949219 L 133.816406 297.949219 L 133.816406 311.078125"/></g><g id="change1_135"><path fill="#f4b251" d="M 146.949219 311.078125 L 133.816406 311.078125 L 133.816406 297.949219 L 146.949219 297.949219 L 146.949219 311.078125"/></g><g id="change1_136"><path fill="#f4b251" d="M 160.078125 311.078125 L 146.949219 311.078125 L 146.949219 297.949219 L 160.078125 297.949219 L 160.078125 311.078125"/></g><g id="change1_137"><path fill="#f4b251" d="M 173.210938 311.078125 L 160.078125 311.078125 L 160.078125 297.949219 L 173.210938 297.949219 L 173.210938 311.078125"/></g><g id="change1_138"><path fill="#f4b251" d="M 186.339844 311.078125 L 173.210938 311.078125 L 173.210938 297.949219 L 186.339844 297.949219 L 186.339844 311.078125"/></g><g id="change1_139"><path fill="#f4b251" d="M 199.472656 311.078125 L 186.339844 311.078125 L 186.339844 297.949219 L 199.472656 297.949219 L 199.472656 311.078125"/></g><g id="change1_140"><path fill="#f4b251" d="M 212.601562 311.078125 L 199.472656 311.078125 L 199.472656 297.949219 L 212.601562 297.949219 L 212.601562 311.078125"/></g><g id="change1_141"><path fill="#f4b251" d="M 225.730469 311.078125 L 212.601562 311.078125 L 212.601562 297.949219 L 225.730469 297.949219 L 225.730469 311.078125"/></g><g id="change1_142"><path fill="#f4b251" d="M 238.859375 311.078125 L 225.730469 311.078125 L 225.730469 297.949219 L 238.859375 297.949219 L 238.859375 311.078125"/></g><g id="change1_143"><path fill="#f4b251" d="M 81.296875 297.949219 L 68.164062 297.949219 L 68.164062 284.816406 L 81.296875 284.816406 L 81.296875 297.949219"/></g><g id="change1_144"><path fill="#f4b251" d="M 81.296875 284.816406 L 68.164062 284.816406 L 68.164062 271.6875 L 81.296875 271.6875 L 81.296875 284.816406"/></g><g id="change1_145"><path fill="#f4b251" d="M 81.296875 271.6875 L 68.164062 271.6875 L 68.164062 258.558594 L 81.296875 258.558594 L 81.296875 271.6875"/></g><g id="change1_146"><path fill="#f4b251" d="M 81.296875 258.558594 L 68.164062 258.558594 L 68.164062 245.425781 L 81.296875 245.425781 L 81.296875 258.558594"/></g><g id="change1_147"><path fill="#f4b251" d="M 81.296875 245.425781 L 68.164062 245.425781 L 68.164062 232.296875 L 81.296875 232.296875 L 81.296875 245.425781"/></g><g id="change1_148"><path fill="#f4b251" d="M 81.296875 232.296875 L 68.164062 232.296875 L 68.164062 219.164062 L 81.296875 219.164062 L 81.296875 232.296875"/></g><g id="change1_149"><path fill="#f4b251" d="M 81.296875 219.164062 L 68.164062 219.164062 L 68.164062 206.035156 L 81.296875 206.035156 L 81.296875 219.164062"/></g><g id="change1_150"><path fill="#f4b251" d="M 94.425781 219.164062 L 81.296875 219.164062 L 81.296875 206.035156 L 94.425781 206.035156 L 94.425781 219.164062"/></g><g id="change1_151"><path fill="#f4b251" d="M 107.558594 219.164062 L 94.425781 219.164062 L 94.425781 206.035156 L 107.558594 206.035156 L 107.558594 219.164062"/></g><g id="change1_152"><path fill="#f4b251" d="M 120.6875 219.164062 L 107.558594 219.164062 L 107.558594 206.035156 L 120.6875 206.035156 L 120.6875 219.164062"/></g><g id="change1_153"><path fill="#f4b251" d="M 133.816406 219.164062 L 120.6875 219.164062 L 120.6875 206.035156 L 133.816406 206.035156 L 133.816406 219.164062"/></g><g id="change1_154"><path fill="#f4b251" d="M 146.949219 219.164062 L 133.816406 219.164062 L 133.816406 206.035156 L 146.949219 206.035156 L 146.949219 219.164062"/></g><g id="change1_155"><path fill="#f4b251" d="M 160.078125 219.164062 L 146.949219 219.164062 L 146.949219 206.035156 L 160.078125 206.035156 L 160.078125 219.164062"/></g><g id="change1_156"><path fill="#f4b251" d="M 173.210938 219.164062 L 160.078125 219.164062 L 160.078125 206.035156 L 173.210938 206.035156 L 173.210938 219.164062"/></g><g id="change1_157"><path fill="#f4b251" d="M 199.472656 219.164062 L 186.339844 219.164062 L 186.339844 206.035156 L 199.472656 206.035156 L 199.472656 219.164062"/></g><g id="change1_158"><path fill="#f4b251" d="M 212.601562 219.164062 L 199.472656 219.164062 L 199.472656 206.035156 L 212.601562 206.035156 L 212.601562 219.164062"/></g><g id="change1_159"><path fill="#f4b251" d="M 225.730469 219.164062 L 212.601562 219.164062 L 212.601562 206.035156 L 225.730469 206.035156 L 225.730469 219.164062"/></g><g id="change1_160"><path fill="#f4b251" d="M 238.859375 219.164062 L 225.730469 219.164062 L 225.730469 206.035156 L 238.859375 206.035156 L 238.859375 219.164062"/></g><g id="change1_161"><path fill="#f4b251" d="M 81.296875 179.773438 L 68.164062 179.773438 L 68.164062 166.644531 L 81.296875 166.644531 L 81.296875 179.773438"/></g><g id="change1_162"><path fill="#f4b251" d="M 94.425781 179.773438 L 81.296875 179.773438 L 81.296875 166.644531 L 94.425781 166.644531 L 94.425781 179.773438"/></g><g id="change1_163"><path fill="#f4b251" d="M 107.558594 179.773438 L 94.425781 179.773438 L 94.425781 166.644531 L 107.558594 166.644531 L 107.558594 179.773438"/></g><g id="change1_164"><path fill="#f4b251" d="M 120.6875 179.773438 L 107.558594 179.773438 L 107.558594 166.644531 L 120.6875 166.644531 L 120.6875 179.773438"/></g><g id="change1_165"><path fill="#f4b251" d="M 133.816406 179.773438 L 120.6875 179.773438 L 120.6875 166.644531 L 133.816406 166.644531 L 133.816406 179.773438"/></g><g id="change1_166"><path fill="#f4b251" d="M 146.949219 179.773438 L 133.816406 179.773438 L 133.816406 166.644531 L 146.949219 166.644531 L 146.949219 179.773438"/></g><g id="change1_167"><path fill="#f4b251" d="M 160.078125 179.773438 L 146.949219 179.773438 L 146.949219 166.644531 L 160.078125 166.644531 L 160.078125 179.773438"/></g><g id="change1_168"><path fill="#f4b251" d="M 173.210938 179.773438 L 160.078125 179.773438 L 160.078125 166.644531 L 173.210938 166.644531 L 173.210938 179.773438"/></g><g id="change1_169"><path fill="#f4b251" d="M 81.296875 166.644531 L 68.164062 166.644531 L 68.164062 153.515625 L 81.296875 153.515625 L 81.296875 166.644531"/></g><g id="change1_170"><path fill="#f4b251" d="M 173.210938 166.644531 L 160.078125 166.644531 L 160.078125 153.515625 L 173.210938 153.515625 L 173.210938 166.644531"/></g><g id="change1_171"><path fill="#f4b251" d="M 186.339844 166.644531 L 173.210938 166.644531 L 173.210938 153.515625 L 186.339844 153.515625 L 186.339844 166.644531"/></g><g id="change1_172"><path fill="#f4b251" d="M 199.472656 166.644531 L 186.339844 166.644531 L 186.339844 153.515625 L 199.472656 153.515625 L 199.472656 166.644531"/></g><g id="change1_173"><path fill="#f4b251" d="M 238.859375 166.644531 L 225.730469 166.644531 L 225.730469 153.515625 L 238.859375 153.515625 L 238.859375 166.644531"/></g><g id="change1_174"><path fill="#f4b251" d="M 81.296875 153.515625 L 68.164062 153.515625 L 68.164062 140.382812 L 81.296875 140.382812 L 81.296875 153.515625"/></g><g id="change1_175"><path fill="#f4b251" d="M 199.472656 153.515625 L 186.339844 153.515625 L 186.339844 140.382812 L 199.472656 140.382812 L 199.472656 153.515625"/></g><g id="change1_176"><path fill="#f4b251" d="M 238.859375 153.515625 L 225.730469 153.515625 L 225.730469 140.382812 L 238.859375 140.382812 L 238.859375 153.515625"/></g><g id="change1_177"><path fill="#f4b251" d="M 81.296875 140.382812 L 68.164062 140.382812 L 68.164062 127.253906 L 81.296875 127.253906 L 81.296875 140.382812"/></g><g id="change1_178"><path fill="#f4b251" d="M 94.425781 140.382812 L 81.296875 140.382812 L 81.296875 127.253906 L 94.425781 127.253906 L 94.425781 140.382812"/></g><g id="change1_179"><path fill="#f4b251" d="M 199.472656 140.382812 L 186.339844 140.382812 L 186.339844 127.253906 L 199.472656 127.253906 L 199.472656 140.382812"/></g><g id="change1_180"><path fill="#f4b251" d="M 238.859375 140.382812 L 225.730469 140.382812 L 225.730469 127.253906 L 238.859375 127.253906 L 238.859375 140.382812"/></g><g id="change1_181"><path fill="#f4b251" d="M 94.425781 127.253906 L 81.296875 127.253906 L 81.296875 114.121094 L 94.425781 114.121094 L 94.425781 127.253906"/></g><g id="change1_182"><path fill="#f4b251" d="M 107.558594 127.253906 L 94.425781 127.253906 L 94.425781 114.121094 L 107.558594 114.121094 L 107.558594 127.253906"/></g><g id="change1_183"><path fill="#f4b251" d="M 120.6875 127.253906 L 107.558594 127.253906 L 107.558594 114.121094 L 120.6875 114.121094 L 120.6875 127.253906"/></g><g id="change1_184"><path fill="#f4b251" d="M 133.816406 127.253906 L 120.6875 127.253906 L 120.6875 114.121094 L 133.816406 114.121094 L 133.816406 127.253906"/></g><g id="change1_185"><path fill="#f4b251" d="M 146.949219 127.253906 L 133.816406 127.253906 L 133.816406 114.121094 L 146.949219 114.121094 L 146.949219 127.253906"/></g><g id="change1_186"><path fill="#f4b251" d="M 160.078125 127.253906 L 146.949219 127.253906 L 146.949219 114.121094 L 160.078125 114.121094 L 160.078125 127.253906"/></g><g id="change1_187"><path fill="#f4b251" d="M 173.210938 127.253906 L 160.078125 127.253906 L 160.078125 114.121094 L 173.210938 114.121094 L 173.210938 127.253906"/></g><g id="change1_188"><path fill="#f4b251" d="M 186.339844 127.253906 L 173.210938 127.253906 L 173.210938 114.121094 L 186.339844 114.121094 L 186.339844 127.253906"/></g><g id="change1_189"><path fill="#f4b251" d="M 199.472656 127.253906 L 186.339844 127.253906 L 186.339844 114.121094 L 199.472656 114.121094 L 199.472656 127.253906"/></g><g id="change1_190"><path fill="#f4b251" d="M 238.859375 127.253906 L 225.730469 127.253906 L 225.730469 114.121094 L 238.859375 114.121094 L 238.859375 127.253906"/></g><g id="change1_191"><path fill="#f4b251" d="M 251.992188 311.078125 L 238.859375 311.078125 L 238.859375 297.949219 L 251.992188 297.949219 L 251.992188 311.078125"/></g><g id="change1_192"><path fill="#f4b251" d="M 265.121094 311.078125 L 251.992188 311.078125 L 251.992188 297.949219 L 265.121094 297.949219 L 265.121094 311.078125"/></g><g id="change1_193"><path fill="#f4b251" d="M 278.253906 311.078125 L 265.121094 311.078125 L 265.121094 297.949219 L 278.253906 297.949219 L 278.253906 311.078125"/></g><g id="change1_194"><path fill="#f4b251" d="M 291.382812 311.078125 L 278.253906 311.078125 L 278.253906 297.949219 L 291.382812 297.949219 L 291.382812 311.078125"/></g><g id="change1_195"><path fill="#f4b251" d="M 304.515625 311.078125 L 291.382812 311.078125 L 291.382812 297.949219 L 304.515625 297.949219 L 304.515625 311.078125"/></g><g id="change1_196"><path fill="#f4b251" d="M 317.644531 311.078125 L 304.515625 311.078125 L 304.515625 297.949219 L 317.644531 297.949219 L 317.644531 311.078125"/></g><g id="change1_197"><path fill="#f4b251" d="M 330.773438 311.078125 L 317.644531 311.078125 L 317.644531 297.949219 L 330.773438 297.949219 L 330.773438 311.078125"/></g><g id="change1_198"><path fill="#f4b251" d="M 343.902344 311.078125 L 330.773438 311.078125 L 330.773438 297.949219 L 343.902344 297.949219 L 343.902344 311.078125"/></g><g id="change1_199"><path fill="#f4b251" d="M 357.035156 311.078125 L 343.902344 311.078125 L 343.902344 297.949219 L 357.035156 297.949219 L 357.035156 311.078125"/></g><g id="change1_200"><path fill="#f4b251" d="M 357.035156 297.949219 L 343.902344 297.949219 L 343.902344 284.816406 L 357.035156 284.816406 L 357.035156 297.949219"/></g><g id="change1_201"><path fill="#f4b251" d="M 251.992188 284.816406 L 238.859375 284.816406 L 238.859375 271.6875 L 251.992188 271.6875 L 251.992188 284.816406"/></g><g id="change1_202"><path fill="#f4b251" d="M 357.035156 284.816406 L 343.902344 284.816406 L 343.902344 271.6875 L 357.035156 271.6875 L 357.035156 284.816406"/></g><g id="change1_203"><path fill="#f4b251" d="M 265.121094 271.6875 L 251.992188 271.6875 L 251.992188 258.558594 L 265.121094 258.558594 L 265.121094 271.6875"/></g><g id="change1_204"><path fill="#f4b251" d="M 357.035156 271.6875 L 343.902344 271.6875 L 343.902344 258.558594 L 357.035156 258.558594 L 357.035156 271.6875"/></g><g id="change1_205"><path fill="#f4b251" d="M 265.121094 258.558594 L 251.992188 258.558594 L 251.992188 245.425781 L 265.121094 245.425781 L 265.121094 258.558594"/></g><g id="change1_206"><path fill="#f4b251" d="M 357.035156 258.558594 L 343.902344 258.558594 L 343.902344 245.425781 L 357.035156 245.425781 L 357.035156 258.558594"/></g><g id="change1_207"><path fill="#f4b251" d="M 265.121094 245.425781 L 251.992188 245.425781 L 251.992188 232.296875 L 265.121094 232.296875 L 265.121094 245.425781"/></g><g id="change1_208"><path fill="#f4b251" d="M 357.035156 245.425781 L 343.902344 245.425781 L 343.902344 232.296875 L 357.035156 232.296875 L 357.035156 245.425781"/></g><g id="change1_209"><path fill="#f4b251" d="M 265.121094 232.296875 L 251.992188 232.296875 L 251.992188 219.164062 L 265.121094 219.164062 L 265.121094 232.296875"/></g><g id="change1_210"><path fill="#f4b251" d="M 357.035156 232.296875 L 343.902344 232.296875 L 343.902344 219.164062 L 357.035156 219.164062 L 357.035156 232.296875"/></g><g id="change1_211"><path fill="#f4b251" d="M 265.121094 219.164062 L 251.992188 219.164062 L 251.992188 206.035156 L 265.121094 206.035156 L 265.121094 219.164062"/></g><g id="change1_212"><path fill="#f4b251" d="M 278.253906 219.164062 L 265.121094 219.164062 L 265.121094 206.035156 L 278.253906 206.035156 L 278.253906 219.164062"/></g><g id="change1_213"><path fill="#f4b251" d="M 291.382812 219.164062 L 278.253906 219.164062 L 278.253906 206.035156 L 291.382812 206.035156 L 291.382812 219.164062"/></g><g id="change1_214"><path fill="#f4b251" d="M 304.515625 219.164062 L 291.382812 219.164062 L 291.382812 206.035156 L 304.515625 206.035156 L 304.515625 219.164062"/></g><g id="change1_215"><path fill="#f4b251" d="M 317.644531 219.164062 L 304.515625 219.164062 L 304.515625 206.035156 L 317.644531 206.035156 L 317.644531 219.164062"/></g><g id="change1_216"><path fill="#f4b251" d="M 330.773438 219.164062 L 317.644531 219.164062 L 317.644531 206.035156 L 330.773438 206.035156 L 330.773438 219.164062"/></g><g id="change1_217"><path fill="#f4b251" d="M 343.902344 219.164062 L 330.773438 219.164062 L 330.773438 206.035156 L 343.902344 206.035156 L 343.902344 219.164062"/></g><g id="change1_218"><path fill="#f4b251" d="M 357.035156 219.164062 L 343.902344 219.164062 L 343.902344 206.035156 L 357.035156 206.035156 L 357.035156 219.164062"/></g><g id="change1_219"><path fill="#f4b251" d="M 265.121094 179.773438 L 251.992188 179.773438 L 251.992188 166.644531 L 265.121094 166.644531 L 265.121094 179.773438"/></g><g id="change1_220"><path fill="#f4b251" d="M 278.253906 179.773438 L 265.121094 179.773438 L 265.121094 166.644531 L 278.253906 166.644531 L 278.253906 179.773438"/></g><g id="change1_221"><path fill="#f4b251" d="M 291.382812 179.773438 L 278.253906 179.773438 L 278.253906 166.644531 L 291.382812 166.644531 L 291.382812 179.773438"/></g><g id="change1_222"><path fill="#f4b251" d="M 304.515625 179.773438 L 291.382812 179.773438 L 291.382812 166.644531 L 304.515625 166.644531 L 304.515625 179.773438"/></g><g id="change1_223"><path fill="#f4b251" d="M 317.644531 179.773438 L 304.515625 179.773438 L 304.515625 166.644531 L 317.644531 166.644531 L 317.644531 179.773438"/></g><g id="change1_224"><path fill="#f4b251" d="M 330.773438 179.773438 L 317.644531 179.773438 L 317.644531 166.644531 L 330.773438 166.644531 L 330.773438 179.773438"/></g><g id="change1_225"><path fill="#f4b251" d="M 343.902344 179.773438 L 330.773438 179.773438 L 330.773438 166.644531 L 343.902344 166.644531 L 343.902344 179.773438"/></g><g id="change1_226"><path fill="#f4b251" d="M 357.035156 179.773438 L 343.902344 179.773438 L 343.902344 166.644531 L 357.035156 166.644531 L 357.035156 179.773438"/></g><g id="change1_227"><path fill="#f4b251" d="M 251.992188 166.644531 L 238.859375 166.644531 L 238.859375 153.515625 L 251.992188 153.515625 L 251.992188 166.644531"/></g><g id="change1_228"><path fill="#f4b251" d="M 265.121094 166.644531 L 251.992188 166.644531 L 251.992188 153.515625 L 265.121094 153.515625 L 265.121094 166.644531"/></g><g id="change1_229"><path fill="#f4b251" d="M 357.035156 166.644531 L 343.902344 166.644531 L 343.902344 153.515625 L 357.035156 153.515625 L 357.035156 166.644531"/></g><g id="change1_230"><path fill="#f4b251" d="M 357.035156 153.515625 L 343.902344 153.515625 L 343.902344 140.382812 L 357.035156 140.382812 L 357.035156 153.515625"/></g><g id="change1_231"><path fill="#f4b251" d="M 343.902344 140.382812 L 330.773438 140.382812 L 330.773438 127.253906 L 343.902344 127.253906 L 343.902344 140.382812"/></g><g id="change1_232"><path fill="#f4b251" d="M 357.035156 140.382812 L 343.902344 140.382812 L 343.902344 127.253906 L 357.035156 127.253906 L 357.035156 140.382812"/></g><g id="change1_233"><path fill="#f4b251" d="M 251.992188 127.253906 L 238.859375 127.253906 L 238.859375 114.121094 L 251.992188 114.121094 L 251.992188 127.253906"/></g><g id="change1_234"><path fill="#f4b251" d="M 265.121094 127.253906 L 251.992188 127.253906 L 251.992188 114.121094 L 265.121094 114.121094 L 265.121094 127.253906"/></g><g id="change1_235"><path fill="#f4b251" d="M 278.253906 127.253906 L 265.121094 127.253906 L 265.121094 114.121094 L 278.253906 114.121094 L 278.253906 127.253906"/></g><g id="change1_236"><path fill="#f4b251" d="M 291.382812 127.253906 L 278.253906 127.253906 L 278.253906 114.121094 L 291.382812 114.121094 L 291.382812 127.253906"/></g><g id="change1_237"><path fill="#f4b251" d="M 304.515625 127.253906 L 291.382812 127.253906 L 291.382812 114.121094 L 304.515625 114.121094 L 304.515625 127.253906"/></g><g id="change1_238"><path fill="#f4b251" d="M 317.644531 127.253906 L 304.515625 127.253906 L 304.515625 114.121094 L 317.644531 114.121094 L 317.644531 127.253906"/></g><g id="change1_239"><path fill="#f4b251" d="M 330.773438 127.253906 L 317.644531 127.253906 L 317.644531 114.121094 L 330.773438 114.121094 L 330.773438 127.253906"/></g><g id="change1_240"><path fill="#f4b251" d="M 343.902344 127.253906 L 330.773438 127.253906 L 330.773438 114.121094 L 343.902344 114.121094 L 343.902344 127.253906"/></g><g id="change4_2"><path fill="#000000" d="M 357.035156 127.253906 L 343.902344 127.253906 L 343.902344 114.121094 L 357.035156 114.121094 L 357.035156 127.253906"/></g><g id="change4_3"><path fill="#000000" d="M 186.339844 179.773438 L 173.210938 179.773438 L 173.210938 166.644531 L 186.339844 166.644531 L 186.339844 179.773438"/></g><g id="change4_4"><path fill="#000000" d="M 199.472656 179.773438 L 186.339844 179.773438 L 186.339844 166.644531 L 199.472656 166.644531 L 199.472656 179.773438"/></g><g id="change4_5"><path fill="#000000" d="M 238.859375 179.773438 L 225.730469 179.773438 L 225.730469 166.644531 L 238.859375 166.644531 L 238.859375 179.773438"/></g><g id="change4_6"><path fill="#000000" d="M 251.992188 179.773438 L 238.859375 179.773438 L 238.859375 166.644531 L 251.992188 166.644531 L 251.992188 179.773438"/></g><g id="change4_7"><path fill="#000000" d="M 212.601562 179.773438 L 199.472656 179.773438 L 199.472656 166.644531 L 212.601562 166.644531 L 212.601562 179.773438"/></g><g id="change4_8"><path fill="#000000" d="M 225.730469 179.773438 L 212.601562 179.773438 L 212.601562 166.644531 L 225.730469 166.644531 L 225.730469 179.773438"/></g><g id="change4_9"><path fill="#000000" d="M 212.601562 166.644531 L 199.472656 166.644531 L 199.472656 153.515625 L 212.601562 153.515625 L 212.601562 166.644531"/></g><g id="change4_10"><path fill="#000000" d="M 225.730469 166.644531 L 212.601562 166.644531 L 212.601562 153.515625 L 225.730469 153.515625 L 225.730469 166.644531"/></g><g id="change4_11"><path fill="#000000" d="M 212.601562 153.515625 L 199.472656 153.515625 L 199.472656 140.382812 L 212.601562 140.382812 L 212.601562 153.515625"/></g><g id="change4_12"><path fill="#000000" d="M 225.730469 153.515625 L 212.601562 153.515625 L 212.601562 140.382812 L 225.730469 140.382812 L 225.730469 153.515625"/></g><g id="change4_13"><path fill="#000000" d="M 212.601562 140.382812 L 199.472656 140.382812 L 199.472656 127.253906 L 212.601562 127.253906 L 212.601562 140.382812"/></g><g id="change4_14"><path fill="#000000" d="M 225.730469 140.382812 L 212.601562 140.382812 L 212.601562 127.253906 L 225.730469 127.253906 L 225.730469 140.382812"/></g><g id="change4_15"><path fill="#000000" d="M 212.601562 127.253906 L 199.472656 127.253906 L 199.472656 114.121094 L 212.601562 114.121094 L 212.601562 127.253906"/></g><g id="change4_16"><path fill="#000000" d="M 225.730469 127.253906 L 212.601562 127.253906 L 212.601562 114.121094 L 225.730469 114.121094 L 225.730469 127.253906"/></g><g id="change4_17"><path fill="#000000" d="M 81.296875 206.035156 L 68.164062 206.035156 L 68.164062 192.902344 L 81.296875 192.902344 L 81.296875 206.035156"/></g><g id="change4_18"><path fill="#000000" d="M 94.425781 206.035156 L 81.296875 206.035156 L 81.296875 192.902344 L 94.425781 192.902344 L 94.425781 206.035156"/></g><g id="change4_19"><path fill="#000000" d="M 107.558594 206.035156 L 94.425781 206.035156 L 94.425781 192.902344 L 107.558594 192.902344 L 107.558594 206.035156"/></g><g id="change4_20"><path fill="#000000" d="M 120.6875 206.035156 L 107.558594 206.035156 L 107.558594 192.902344 L 120.6875 192.902344 L 120.6875 206.035156"/></g><g id="change4_21"><path fill="#000000" d="M 133.816406 206.035156 L 120.6875 206.035156 L 120.6875 192.902344 L 133.816406 192.902344 L 133.816406 206.035156"/></g><g id="change4_22"><path fill="#000000" d="M 146.949219 206.035156 L 133.816406 206.035156 L 133.816406 192.902344 L 146.949219 192.902344 L 146.949219 206.035156"/></g><g id="change4_23"><path fill="#000000" d="M 160.078125 206.035156 L 146.949219 206.035156 L 146.949219 192.902344 L 160.078125 192.902344 L 160.078125 206.035156"/></g><g id="change4_24"><path fill="#000000" d="M 173.210938 206.035156 L 160.078125 206.035156 L 160.078125 192.902344 L 173.210938 192.902344 L 173.210938 206.035156"/></g><g id="change2_25"><path fill="#a0b1b9" d="M 186.339844 206.035156 L 173.210938 206.035156 L 173.210938 192.902344 L 186.339844 192.902344 L 186.339844 206.035156"/></g><g id="change4_25"><path fill="#000000" d="M 199.472656 206.035156 L 186.339844 206.035156 L 186.339844 192.902344 L 199.472656 192.902344 L 199.472656 206.035156"/></g><g id="change4_26"><path fill="#000000" d="M 212.601562 206.035156 L 199.472656 206.035156 L 199.472656 192.902344 L 212.601562 192.902344 L 212.601562 206.035156"/></g><g id="change4_27"><path fill="#000000" d="M 225.730469 206.035156 L 212.601562 206.035156 L 212.601562 192.902344 L 225.730469 192.902344 L 225.730469 206.035156"/></g><g id="change4_28"><path fill="#000000" d="M 238.859375 206.035156 L 225.730469 206.035156 L 225.730469 192.902344 L 238.859375 192.902344 L 238.859375 206.035156"/></g><g id="change4_29"><path fill="#000000" d="M 81.296875 192.902344 L 68.164062 192.902344 L 68.164062 179.773438 L 81.296875 179.773438 L 81.296875 192.902344"/></g><g id="change4_30"><path fill="#000000" d="M 94.425781 192.902344 L 81.296875 192.902344 L 81.296875 179.773438 L 94.425781 179.773438 L 94.425781 192.902344"/></g><g id="change4_31"><path fill="#000000" d="M 107.558594 192.902344 L 94.425781 192.902344 L 94.425781 179.773438 L 107.558594 179.773438 L 107.558594 192.902344"/></g><g id="change4_32"><path fill="#000000" d="M 120.6875 192.902344 L 107.558594 192.902344 L 107.558594 179.773438 L 120.6875 179.773438 L 120.6875 192.902344"/></g><g id="change4_33"><path fill="#000000" d="M 133.816406 192.902344 L 120.6875 192.902344 L 120.6875 179.773438 L 133.816406 179.773438 L 133.816406 192.902344"/></g><g id="change4_34"><path fill="#000000" d="M 146.949219 192.902344 L 133.816406 192.902344 L 133.816406 179.773438 L 146.949219 179.773438 L 146.949219 192.902344"/></g><g id="change4_35"><path fill="#000000" d="M 160.078125 192.902344 L 146.949219 192.902344 L 146.949219 179.773438 L 160.078125 179.773438 L 160.078125 192.902344"/></g><g id="change4_36"><path fill="#000000" d="M 173.210938 192.902344 L 160.078125 192.902344 L 160.078125 179.773438 L 173.210938 179.773438 L 173.210938 192.902344"/></g><g id="change4_37"><path fill="#000000" d="M 186.339844 192.902344 L 173.210938 192.902344 L 173.210938 179.773438 L 186.339844 179.773438 L 186.339844 192.902344"/></g><g id="change2_26"><path fill="#a0b1b9" d="M 199.472656 192.902344 L 186.339844 192.902344 L 186.339844 179.773438 L 199.472656 179.773438 L 199.472656 192.902344"/></g><g id="change4_38"><path fill="#000000" d="M 212.601562 192.902344 L 199.472656 192.902344 L 199.472656 179.773438 L 212.601562 179.773438 L 212.601562 192.902344"/></g><g id="change4_39"><path fill="#000000" d="M 225.730469 192.902344 L 212.601562 192.902344 L 212.601562 179.773438 L 225.730469 179.773438 L 225.730469 192.902344"/></g><g id="change2_27"><path fill="#a0b1b9" d="M 238.859375 192.902344 L 225.730469 192.902344 L 225.730469 179.773438 L 238.859375 179.773438 L 238.859375 192.902344"/></g><g id="change2_28"><path fill="#a0b1b9" d="M 251.992188 206.035156 L 238.859375 206.035156 L 238.859375 192.902344 L 251.992188 192.902344 L 251.992188 206.035156"/></g><g id="change4_40"><path fill="#000000" d="M 265.121094 206.035156 L 251.992188 206.035156 L 251.992188 192.902344 L 265.121094 192.902344 L 265.121094 206.035156"/></g><g id="change4_41"><path fill="#000000" d="M 278.253906 206.035156 L 265.121094 206.035156 L 265.121094 192.902344 L 278.253906 192.902344 L 278.253906 206.035156"/></g><g id="change4_42"><path fill="#000000" d="M 291.382812 206.035156 L 278.253906 206.035156 L 278.253906 192.902344 L 291.382812 192.902344 L 291.382812 206.035156"/></g><g id="change4_43"><path fill="#000000" d="M 304.515625 206.035156 L 291.382812 206.035156 L 291.382812 192.902344 L 304.515625 192.902344 L 304.515625 206.035156"/></g><g id="change4_44"><path fill="#000000" d="M 317.644531 206.035156 L 304.515625 206.035156 L 304.515625 192.902344 L 317.644531 192.902344 L 317.644531 206.035156"/></g><g id="change4_45"><path fill="#000000" d="M 330.773438 206.035156 L 317.644531 206.035156 L 317.644531 192.902344 L 330.773438 192.902344 L 330.773438 206.035156"/></g><g id="change4_46"><path fill="#000000" d="M 343.902344 206.035156 L 330.773438 206.035156 L 330.773438 192.902344 L 343.902344 192.902344 L 343.902344 206.035156"/></g><g id="change4_47"><path fill="#000000" d="M 357.035156 206.035156 L 343.902344 206.035156 L 343.902344 192.902344 L 357.035156 192.902344 L 357.035156 206.035156"/></g><g id="change4_48"><path fill="#000000" d="M 251.992188 192.902344 L 238.859375 192.902344 L 238.859375 179.773438 L 251.992188 179.773438 L 251.992188 192.902344"/></g><g id="change4_49"><path fill="#000000" d="M 265.121094 192.902344 L 251.992188 192.902344 L 251.992188 179.773438 L 265.121094 179.773438 L 265.121094 192.902344"/></g><g id="change4_50"><path fill="#000000" d="M 278.253906 192.902344 L 265.121094 192.902344 L 265.121094 179.773438 L 278.253906 179.773438 L 278.253906 192.902344"/></g><g id="change4_51"><path fill="#000000" d="M 291.382812 192.902344 L 278.253906 192.902344 L 278.253906 179.773438 L 291.382812 179.773438 L 291.382812 192.902344"/></g><g id="change4_52"><path fill="#000000" d="M 304.515625 192.902344 L 291.382812 192.902344 L 291.382812 179.773438 L 304.515625 179.773438 L 304.515625 192.902344"/></g><g id="change4_53"><path fill="#000000" d="M 317.644531 192.902344 L 304.515625 192.902344 L 304.515625 179.773438 L 317.644531 179.773438 L 317.644531 192.902344"/></g><g id="change4_54"><path fill="#000000" d="M 330.773438 192.902344 L 317.644531 192.902344 L 317.644531 179.773438 L 330.773438 179.773438 L 330.773438 192.902344"/></g><g id="change4_55"><path fill="#000000" d="M 343.902344 192.902344 L 330.773438 192.902344 L 330.773438 179.773438 L 343.902344 179.773438 L 343.902344 192.902344"/></g><g id="change4_56"><path fill="#000000" d="M 357.035156 192.902344 L 343.902344 192.902344 L 343.902344 179.773438 L 357.035156 179.773438 L 357.035156 192.902344"/></g><g id="change4_57"><path fill="#000000" d="M 55.035156 337.339844 L 41.90625 337.339844 L 41.90625 324.207031 L 55.035156 324.207031 L 55.035156 337.339844"/></g><g id="change4_58"><path fill="#000000" d="M 68.164062 337.339844 L 55.035156 337.339844 L 55.035156 324.207031 L 68.164062 324.207031 L 68.164062 337.339844"/></g><g id="change4_59"><path fill="#000000" d="M 81.296875 337.339844 L 68.164062 337.339844 L 68.164062 324.207031 L 81.296875 324.207031 L 81.296875 337.339844"/></g><g id="change4_60"><path fill="#000000" d="M 94.425781 337.339844 L 81.296875 337.339844 L 81.296875 324.207031 L 94.425781 324.207031 L 94.425781 337.339844"/></g><g id="change4_61"><path fill="#000000" d="M 107.558594 337.339844 L 94.425781 337.339844 L 94.425781 324.207031 L 107.558594 324.207031 L 107.558594 337.339844"/></g><g id="change4_62"><path fill="#000000" d="M 120.6875 337.339844 L 107.558594 337.339844 L 107.558594 324.207031 L 120.6875 324.207031 L 120.6875 337.339844"/></g><g id="change4_63"><path fill="#000000" d="M 133.816406 337.339844 L 120.6875 337.339844 L 120.6875 324.207031 L 133.816406 324.207031 L 133.816406 337.339844"/></g><g id="change4_64"><path fill="#000000" d="M 146.949219 337.339844 L 133.816406 337.339844 L 133.816406 324.207031 L 146.949219 324.207031 L 146.949219 337.339844"/></g><g id="change4_65"><path fill="#000000" d="M 160.078125 337.339844 L 146.949219 337.339844 L 146.949219 324.207031 L 160.078125 324.207031 L 160.078125 337.339844"/></g><g id="change4_66"><path fill="#000000" d="M 173.210938 337.339844 L 160.078125 337.339844 L 160.078125 324.207031 L 173.210938 324.207031 L 173.210938 337.339844"/></g><g id="change4_67"><path fill="#000000" d="M 186.339844 337.339844 L 173.210938 337.339844 L 173.210938 324.207031 L 186.339844 324.207031 L 186.339844 337.339844"/></g><g id="change4_68"><path fill="#000000" d="M 199.472656 337.339844 L 186.339844 337.339844 L 186.339844 324.207031 L 199.472656 324.207031 L 199.472656 337.339844"/></g><g id="change4_69"><path fill="#000000" d="M 212.601562 337.339844 L 199.472656 337.339844 L 199.472656 324.207031 L 212.601562 324.207031 L 212.601562 337.339844"/></g><g id="change4_70"><path fill="#000000" d="M 225.730469 337.339844 L 212.601562 337.339844 L 212.601562 324.207031 L 225.730469 324.207031 L 225.730469 337.339844"/></g><g id="change4_71"><path fill="#000000" d="M 238.859375 337.339844 L 225.730469 337.339844 L 225.730469 324.207031 L 238.859375 324.207031 L 238.859375 337.339844"/></g><g id="change4_72"><path fill="#000000" d="M 55.035156 324.207031 L 41.90625 324.207031 L 41.90625 311.078125 L 55.035156 311.078125 L 55.035156 324.207031"/></g><g id="change4_73"><path fill="#000000" d="M 68.164062 324.207031 L 55.035156 324.207031 L 55.035156 311.078125 L 68.164062 311.078125 L 68.164062 324.207031"/></g><g id="change4_74"><path fill="#000000" d="M 81.296875 324.207031 L 68.164062 324.207031 L 68.164062 311.078125 L 81.296875 311.078125 L 81.296875 324.207031"/></g><g id="change4_75"><path fill="#000000" d="M 94.425781 324.207031 L 81.296875 324.207031 L 81.296875 311.078125 L 94.425781 311.078125 L 94.425781 324.207031"/></g><g id="change4_76"><path fill="#000000" d="M 107.558594 324.207031 L 94.425781 324.207031 L 94.425781 311.078125 L 107.558594 311.078125 L 107.558594 324.207031"/></g><g id="change4_77"><path fill="#000000" d="M 120.6875 324.207031 L 107.558594 324.207031 L 107.558594 311.078125 L 120.6875 311.078125 L 120.6875 324.207031"/></g><g id="change4_78"><path fill="#000000" d="M 133.816406 324.207031 L 120.6875 324.207031 L 120.6875 311.078125 L 133.816406 311.078125 L 133.816406 324.207031"/></g><g id="change4_79"><path fill="#000000" d="M 146.949219 324.207031 L 133.816406 324.207031 L 133.816406 311.078125 L 146.949219 311.078125 L 146.949219 324.207031"/></g><g id="change4_80"><path fill="#000000" d="M 160.078125 324.207031 L 146.949219 324.207031 L 146.949219 311.078125 L 160.078125 311.078125 L 160.078125 324.207031"/></g><g id="change4_81"><path fill="#000000" d="M 173.210938 324.207031 L 160.078125 324.207031 L 160.078125 311.078125 L 173.210938 311.078125 L 173.210938 324.207031"/></g><g id="change4_82"><path fill="#000000" d="M 186.339844 324.207031 L 173.210938 324.207031 L 173.210938 311.078125 L 186.339844 311.078125 L 186.339844 324.207031"/></g><g id="change4_83"><path fill="#000000" d="M 199.472656 324.207031 L 186.339844 324.207031 L 186.339844 311.078125 L 199.472656 311.078125 L 199.472656 324.207031"/></g><g id="change4_84"><path fill="#000000" d="M 212.601562 324.207031 L 199.472656 324.207031 L 199.472656 311.078125 L 212.601562 311.078125 L 212.601562 324.207031"/></g><g id="change4_85"><path fill="#000000" d="M 225.730469 324.207031 L 212.601562 324.207031 L 212.601562 311.078125 L 225.730469 311.078125 L 225.730469 324.207031"/></g><g id="change4_86"><path fill="#000000" d="M 238.859375 324.207031 L 225.730469 324.207031 L 225.730469 311.078125 L 238.859375 311.078125 L 238.859375 324.207031"/></g><g id="change4_87"><path fill="#000000" d="M 55.035156 311.078125 L 41.90625 311.078125 L 41.90625 297.949219 L 55.035156 297.949219 L 55.035156 311.078125"/></g><g id="change4_88"><path fill="#000000" d="M 68.164062 311.078125 L 55.035156 311.078125 L 55.035156 297.949219 L 68.164062 297.949219 L 68.164062 311.078125"/></g><g id="change4_89"><path fill="#000000" d="M 55.035156 297.949219 L 41.90625 297.949219 L 41.90625 284.816406 L 55.035156 284.816406 L 55.035156 297.949219"/></g><g id="change4_90"><path fill="#000000" d="M 68.164062 297.949219 L 55.035156 297.949219 L 55.035156 284.816406 L 68.164062 284.816406 L 68.164062 297.949219"/></g><g id="change4_91"><path fill="#000000" d="M 55.035156 284.816406 L 41.90625 284.816406 L 41.90625 271.6875 L 55.035156 271.6875 L 55.035156 284.816406"/></g><g id="change4_92"><path fill="#000000" d="M 68.164062 284.816406 L 55.035156 284.816406 L 55.035156 271.6875 L 68.164062 271.6875 L 68.164062 284.816406"/></g><g id="change4_93"><path fill="#000000" d="M 55.035156 271.6875 L 41.90625 271.6875 L 41.90625 258.558594 L 55.035156 258.558594 L 55.035156 271.6875"/></g><g id="change4_94"><path fill="#000000" d="M 68.164062 271.6875 L 55.035156 271.6875 L 55.035156 258.558594 L 68.164062 258.558594 L 68.164062 271.6875"/></g><g id="change4_95"><path fill="#000000" d="M 55.035156 258.558594 L 41.90625 258.558594 L 41.90625 245.425781 L 55.035156 245.425781 L 55.035156 258.558594"/></g><g id="change4_96"><path fill="#000000" d="M 68.164062 258.558594 L 55.035156 258.558594 L 55.035156 245.425781 L 68.164062 245.425781 L 68.164062 258.558594"/></g><g id="change4_97"><path fill="#000000" d="M 55.035156 245.425781 L 41.90625 245.425781 L 41.90625 232.296875 L 55.035156 232.296875 L 55.035156 245.425781"/></g><g id="change4_98"><path fill="#000000" d="M 68.164062 245.425781 L 55.035156 245.425781 L 55.035156 232.296875 L 68.164062 232.296875 L 68.164062 245.425781"/></g><g id="change4_99"><path fill="#000000" d="M 55.035156 232.296875 L 41.90625 232.296875 L 41.90625 219.164062 L 55.035156 219.164062 L 55.035156 232.296875"/></g><g id="change4_100"><path fill="#000000" d="M 68.164062 232.296875 L 55.035156 232.296875 L 55.035156 219.164062 L 68.164062 219.164062 L 68.164062 232.296875"/></g><g id="change4_101"><path fill="#000000" d="M 55.035156 219.164062 L 41.90625 219.164062 L 41.90625 206.035156 L 55.035156 206.035156 L 55.035156 219.164062"/></g><g id="change4_102"><path fill="#000000" d="M 68.164062 219.164062 L 55.035156 219.164062 L 55.035156 206.035156 L 68.164062 206.035156 L 68.164062 219.164062"/></g><g id="change4_103"><path fill="#000000" d="M 55.035156 206.035156 L 41.90625 206.035156 L 41.90625 192.902344 L 55.035156 192.902344 L 55.035156 206.035156"/></g><g id="change4_104"><path fill="#000000" d="M 68.164062 206.035156 L 55.035156 206.035156 L 55.035156 192.902344 L 68.164062 192.902344 L 68.164062 206.035156"/></g><g id="change4_105"><path fill="#000000" d="M 55.035156 192.902344 L 41.90625 192.902344 L 41.90625 179.773438 L 55.035156 179.773438 L 55.035156 192.902344"/></g><g id="change4_106"><path fill="#000000" d="M 68.164062 192.902344 L 55.035156 192.902344 L 55.035156 179.773438 L 68.164062 179.773438 L 68.164062 192.902344"/></g><g id="change4_107"><path fill="#000000" d="M 55.035156 179.773438 L 41.90625 179.773438 L 41.90625 166.644531 L 55.035156 166.644531 L 55.035156 179.773438"/></g><g id="change4_108"><path fill="#000000" d="M 68.164062 179.773438 L 55.035156 179.773438 L 55.035156 166.644531 L 68.164062 166.644531 L 68.164062 179.773438"/></g><g id="change4_109"><path fill="#000000" d="M 55.035156 166.644531 L 41.90625 166.644531 L 41.90625 153.515625 L 55.035156 153.515625 L 55.035156 166.644531"/></g><g id="change4_110"><path fill="#000000" d="M 68.164062 166.644531 L 55.035156 166.644531 L 55.035156 153.515625 L 68.164062 153.515625 L 68.164062 166.644531"/></g><g id="change4_111"><path fill="#000000" d="M 55.035156 153.515625 L 41.90625 153.515625 L 41.90625 140.382812 L 55.035156 140.382812 L 55.035156 153.515625"/></g><g id="change4_112"><path fill="#000000" d="M 68.164062 153.515625 L 55.035156 153.515625 L 55.035156 140.382812 L 68.164062 140.382812 L 68.164062 153.515625"/></g><g id="change4_113"><path fill="#000000" d="M 55.035156 140.382812 L 41.90625 140.382812 L 41.90625 127.253906 L 55.035156 127.253906 L 55.035156 140.382812"/></g><g id="change4_114"><path fill="#000000" d="M 68.164062 140.382812 L 55.035156 140.382812 L 55.035156 127.253906 L 68.164062 127.253906 L 68.164062 140.382812"/></g><g id="change4_115"><path fill="#000000" d="M 55.035156 127.253906 L 41.90625 127.253906 L 41.90625 114.121094 L 55.035156 114.121094 L 55.035156 127.253906"/></g><g id="change4_116"><path fill="#000000" d="M 68.164062 127.253906 L 55.035156 127.253906 L 55.035156 114.121094 L 68.164062 114.121094 L 68.164062 127.253906"/></g><g id="change4_117"><path fill="#000000" d="M 68.164062 114.121094 L 55.035156 114.121094 L 55.035156 100.992188 L 68.164062 100.992188 L 68.164062 114.121094"/></g><g id="change4_118"><path fill="#000000" d="M 81.296875 114.121094 L 68.164062 114.121094 L 68.164062 100.992188 L 81.296875 100.992188 L 81.296875 114.121094"/></g><g id="change4_119"><path fill="#000000" d="M 94.425781 114.121094 L 81.296875 114.121094 L 81.296875 100.992188 L 94.425781 100.992188 L 94.425781 114.121094"/></g><g id="change4_120"><path fill="#000000" d="M 107.558594 114.121094 L 94.425781 114.121094 L 94.425781 100.992188 L 107.558594 100.992188 L 107.558594 114.121094"/></g><g id="change4_121"><path fill="#000000" d="M 120.6875 114.121094 L 107.558594 114.121094 L 107.558594 100.992188 L 120.6875 100.992188 L 120.6875 114.121094"/></g><g id="change4_122"><path fill="#000000" d="M 133.816406 114.121094 L 120.6875 114.121094 L 120.6875 100.992188 L 133.816406 100.992188 L 133.816406 114.121094"/></g><g id="change4_123"><path fill="#000000" d="M 146.949219 114.121094 L 133.816406 114.121094 L 133.816406 100.992188 L 146.949219 100.992188 L 146.949219 114.121094"/></g><g id="change4_124"><path fill="#000000" d="M 160.078125 114.121094 L 146.949219 114.121094 L 146.949219 100.992188 L 160.078125 100.992188 L 160.078125 114.121094"/></g><g id="change4_125"><path fill="#000000" d="M 173.210938 114.121094 L 160.078125 114.121094 L 160.078125 100.992188 L 173.210938 100.992188 L 173.210938 114.121094"/></g><g id="change4_126"><path fill="#000000" d="M 186.339844 114.121094 L 173.210938 114.121094 L 173.210938 100.992188 L 186.339844 100.992188 L 186.339844 114.121094"/></g><g id="change4_127"><path fill="#000000" d="M 199.472656 114.121094 L 186.339844 114.121094 L 186.339844 100.992188 L 199.472656 100.992188 L 199.472656 114.121094"/></g><g id="change4_128"><path fill="#000000" d="M 212.601562 114.121094 L 199.472656 114.121094 L 199.472656 100.992188 L 212.601562 100.992188 L 212.601562 114.121094"/></g><g id="change4_129"><path fill="#000000" d="M 225.730469 114.121094 L 212.601562 114.121094 L 212.601562 100.992188 L 225.730469 100.992188 L 225.730469 114.121094"/></g><g id="change4_130"><path fill="#000000" d="M 238.859375 114.121094 L 225.730469 114.121094 L 225.730469 100.992188 L 238.859375 100.992188 L 238.859375 114.121094"/></g><g id="change4_131"><path fill="#000000" d="M 81.296875 100.992188 L 68.164062 100.992188 L 68.164062 87.859375 L 81.296875 87.859375 L 81.296875 100.992188"/></g><g id="change4_132"><path fill="#000000" d="M 94.425781 100.992188 L 81.296875 100.992188 L 81.296875 87.859375 L 94.425781 87.859375 L 94.425781 100.992188"/></g><g id="change4_133"><path fill="#000000" d="M 107.558594 100.992188 L 94.425781 100.992188 L 94.425781 87.859375 L 107.558594 87.859375 L 107.558594 100.992188"/></g><g id="change4_134"><path fill="#000000" d="M 120.6875 100.992188 L 107.558594 100.992188 L 107.558594 87.859375 L 120.6875 87.859375 L 120.6875 100.992188"/></g><g id="change4_135"><path fill="#000000" d="M 133.816406 100.992188 L 120.6875 100.992188 L 120.6875 87.859375 L 133.816406 87.859375 L 133.816406 100.992188"/></g><g id="change4_136"><path fill="#000000" d="M 146.949219 100.992188 L 133.816406 100.992188 L 133.816406 87.859375 L 146.949219 87.859375 L 146.949219 100.992188"/></g><g id="change4_137"><path fill="#000000" d="M 160.078125 100.992188 L 146.949219 100.992188 L 146.949219 87.859375 L 160.078125 87.859375 L 160.078125 100.992188"/></g><g id="change4_138"><path fill="#000000" d="M 173.210938 100.992188 L 160.078125 100.992188 L 160.078125 87.859375 L 173.210938 87.859375 L 173.210938 100.992188"/></g><g id="change4_139"><path fill="#000000" d="M 186.339844 100.992188 L 173.210938 100.992188 L 173.210938 87.859375 L 186.339844 87.859375 L 186.339844 100.992188"/></g><g id="change4_140"><path fill="#000000" d="M 199.472656 100.992188 L 186.339844 100.992188 L 186.339844 87.859375 L 199.472656 87.859375 L 199.472656 100.992188"/></g><g id="change4_141"><path fill="#000000" d="M 212.601562 100.992188 L 199.472656 100.992188 L 199.472656 87.859375 L 212.601562 87.859375 L 212.601562 100.992188"/></g><g id="change4_142"><path fill="#000000" d="M 225.730469 100.992188 L 212.601562 100.992188 L 212.601562 87.859375 L 225.730469 87.859375 L 225.730469 100.992188"/></g><g id="change4_143"><path fill="#000000" d="M 238.859375 100.992188 L 225.730469 100.992188 L 225.730469 87.859375 L 238.859375 87.859375 L 238.859375 100.992188"/></g><g id="change4_144"><path fill="#000000" d="M 251.992188 337.339844 L 238.859375 337.339844 L 238.859375 324.207031 L 251.992188 324.207031 L 251.992188 337.339844"/></g><g id="change4_145"><path fill="#000000" d="M 265.121094 337.339844 L 251.992188 337.339844 L 251.992188 324.207031 L 265.121094 324.207031 L 265.121094 337.339844"/></g><g id="change4_146"><path fill="#000000" d="M 278.253906 337.339844 L 265.121094 337.339844 L 265.121094 324.207031 L 278.253906 324.207031 L 278.253906 337.339844"/></g><g id="change4_147"><path fill="#000000" d="M 291.382812 337.339844 L 278.253906 337.339844 L 278.253906 324.207031 L 291.382812 324.207031 L 291.382812 337.339844"/></g><g id="change4_148"><path fill="#000000" d="M 304.515625 337.339844 L 291.382812 337.339844 L 291.382812 324.207031 L 304.515625 324.207031 L 304.515625 337.339844"/></g><g id="change4_149"><path fill="#000000" d="M 317.644531 337.339844 L 304.515625 337.339844 L 304.515625 324.207031 L 317.644531 324.207031 L 317.644531 337.339844"/></g><g id="change4_150"><path fill="#000000" d="M 330.773438 337.339844 L 317.644531 337.339844 L 317.644531 324.207031 L 330.773438 324.207031 L 330.773438 337.339844"/></g><g id="change4_151"><path fill="#000000" d="M 343.902344 337.339844 L 330.773438 337.339844 L 330.773438 324.207031 L 343.902344 324.207031 L 343.902344 337.339844"/></g><g id="change4_152"><path fill="#000000" d="M 357.035156 337.339844 L 343.902344 337.339844 L 343.902344 324.207031 L 357.035156 324.207031 L 357.035156 337.339844"/></g><g id="change4_153"><path fill="#000000" d="M 370.164062 337.339844 L 357.035156 337.339844 L 357.035156 324.207031 L 370.164062 324.207031 L 370.164062 337.339844"/></g><g id="change4_154"><path fill="#000000" d="M 383.296875 337.339844 L 370.164062 337.339844 L 370.164062 324.207031 L 383.296875 324.207031 L 383.296875 337.339844"/></g><g id="change4_155"><path fill="#000000" d="M 251.992188 324.207031 L 238.859375 324.207031 L 238.859375 311.078125 L 251.992188 311.078125 L 251.992188 324.207031"/></g><g id="change4_156"><path fill="#000000" d="M 265.121094 324.207031 L 251.992188 324.207031 L 251.992188 311.078125 L 265.121094 311.078125 L 265.121094 324.207031"/></g><g id="change4_157"><path fill="#000000" d="M 278.253906 324.207031 L 265.121094 324.207031 L 265.121094 311.078125 L 278.253906 311.078125 L 278.253906 324.207031"/></g><g id="change4_158"><path fill="#000000" d="M 291.382812 324.207031 L 278.253906 324.207031 L 278.253906 311.078125 L 291.382812 311.078125 L 291.382812 324.207031"/></g><g id="change4_159"><path fill="#000000" d="M 304.515625 324.207031 L 291.382812 324.207031 L 291.382812 311.078125 L 304.515625 311.078125 L 304.515625 324.207031"/></g><g id="change4_160"><path fill="#000000" d="M 317.644531 324.207031 L 304.515625 324.207031 L 304.515625 311.078125 L 317.644531 311.078125 L 317.644531 324.207031"/></g><g id="change4_161"><path fill="#000000" d="M 330.773438 324.207031 L 317.644531 324.207031 L 317.644531 311.078125 L 330.773438 311.078125 L 330.773438 324.207031"/></g><g id="change4_162"><path fill="#000000" d="M 343.902344 324.207031 L 330.773438 324.207031 L 330.773438 311.078125 L 343.902344 311.078125 L 343.902344 324.207031"/></g><g id="change4_163"><path fill="#000000" d="M 357.035156 324.207031 L 343.902344 324.207031 L 343.902344 311.078125 L 357.035156 311.078125 L 357.035156 324.207031"/></g><g id="change4_164"><path fill="#000000" d="M 370.164062 324.207031 L 357.035156 324.207031 L 357.035156 311.078125 L 370.164062 311.078125 L 370.164062 324.207031"/></g><g id="change4_165"><path fill="#000000" d="M 383.296875 324.207031 L 370.164062 324.207031 L 370.164062 311.078125 L 383.296875 311.078125 L 383.296875 324.207031"/></g><g id="change4_166"><path fill="#000000" d="M 370.164062 311.078125 L 357.035156 311.078125 L 357.035156 297.949219 L 370.164062 297.949219 L 370.164062 311.078125"/></g><g id="change4_167"><path fill="#000000" d="M 383.296875 311.078125 L 370.164062 311.078125 L 370.164062 297.949219 L 383.296875 297.949219 L 383.296875 311.078125"/></g><g id="change4_168"><path fill="#000000" d="M 370.164062 297.949219 L 357.035156 297.949219 L 357.035156 284.816406 L 370.164062 284.816406 L 370.164062 297.949219"/></g><g id="change4_169"><path fill="#000000" d="M 383.296875 297.949219 L 370.164062 297.949219 L 370.164062 284.816406 L 383.296875 284.816406 L 383.296875 297.949219"/></g><g id="change4_170"><path fill="#000000" d="M 370.164062 284.816406 L 357.035156 284.816406 L 357.035156 271.6875 L 370.164062 271.6875 L 370.164062 284.816406"/></g><g id="change4_171"><path fill="#000000" d="M 383.296875 284.816406 L 370.164062 284.816406 L 370.164062 271.6875 L 383.296875 271.6875 L 383.296875 284.816406"/></g><g id="change4_172"><path fill="#000000" d="M 370.164062 271.6875 L 357.035156 271.6875 L 357.035156 258.558594 L 370.164062 258.558594 L 370.164062 271.6875"/></g><g id="change4_173"><path fill="#000000" d="M 383.296875 271.6875 L 370.164062 271.6875 L 370.164062 258.558594 L 383.296875 258.558594 L 383.296875 271.6875"/></g><g id="change4_174"><path fill="#000000" d="M 370.164062 258.558594 L 357.035156 258.558594 L 357.035156 245.425781 L 370.164062 245.425781 L 370.164062 258.558594"/></g><g id="change4_175"><path fill="#000000" d="M 383.296875 258.558594 L 370.164062 258.558594 L 370.164062 245.425781 L 383.296875 245.425781 L 383.296875 258.558594"/></g><g id="change4_176"><path fill="#000000" d="M 370.164062 245.425781 L 357.035156 245.425781 L 357.035156 232.296875 L 370.164062 232.296875 L 370.164062 245.425781"/></g><g id="change4_177"><path fill="#000000" d="M 383.296875 245.425781 L 370.164062 245.425781 L 370.164062 232.296875 L 383.296875 232.296875 L 383.296875 245.425781"/></g><g id="change4_178"><path fill="#000000" d="M 370.164062 232.296875 L 357.035156 232.296875 L 357.035156 219.164062 L 370.164062 219.164062 L 370.164062 232.296875"/></g><g id="change4_179"><path fill="#000000" d="M 383.296875 232.296875 L 370.164062 232.296875 L 370.164062 219.164062 L 383.296875 219.164062 L 383.296875 232.296875"/></g><g id="change4_180"><path fill="#000000" d="M 370.164062 219.164062 L 357.035156 219.164062 L 357.035156 206.035156 L 370.164062 206.035156 L 370.164062 219.164062"/></g><g id="change4_181"><path fill="#000000" d="M 383.296875 219.164062 L 370.164062 219.164062 L 370.164062 206.035156 L 383.296875 206.035156 L 383.296875 219.164062"/></g><g id="change4_182"><path fill="#000000" d="M 370.164062 206.035156 L 357.035156 206.035156 L 357.035156 192.902344 L 370.164062 192.902344 L 370.164062 206.035156"/></g><g id="change4_183"><path fill="#000000" d="M 383.296875 206.035156 L 370.164062 206.035156 L 370.164062 192.902344 L 383.296875 192.902344 L 383.296875 206.035156"/></g><g id="change4_184"><path fill="#000000" d="M 370.164062 192.902344 L 357.035156 192.902344 L 357.035156 179.773438 L 370.164062 179.773438 L 370.164062 192.902344"/></g><g id="change4_185"><path fill="#000000" d="M 383.296875 192.902344 L 370.164062 192.902344 L 370.164062 179.773438 L 383.296875 179.773438 L 383.296875 192.902344"/></g><g id="change4_186"><path fill="#000000" d="M 370.164062 179.773438 L 357.035156 179.773438 L 357.035156 166.644531 L 370.164062 166.644531 L 370.164062 179.773438"/></g><g id="change4_187"><path fill="#000000" d="M 383.296875 179.773438 L 370.164062 179.773438 L 370.164062 166.644531 L 383.296875 166.644531 L 383.296875 179.773438"/></g><g id="change4_188"><path fill="#000000" d="M 370.164062 166.644531 L 357.035156 166.644531 L 357.035156 153.515625 L 370.164062 153.515625 L 370.164062 166.644531"/></g><g id="change4_189"><path fill="#000000" d="M 383.296875 166.644531 L 370.164062 166.644531 L 370.164062 153.515625 L 383.296875 153.515625 L 383.296875 166.644531"/></g><g id="change4_190"><path fill="#000000" d="M 370.164062 153.515625 L 357.035156 153.515625 L 357.035156 140.382812 L 370.164062 140.382812 L 370.164062 153.515625"/></g><g id="change4_191"><path fill="#000000" d="M 383.296875 153.515625 L 370.164062 153.515625 L 370.164062 140.382812 L 383.296875 140.382812 L 383.296875 153.515625"/></g><g id="change4_192"><path fill="#000000" d="M 370.164062 140.382812 L 357.035156 140.382812 L 357.035156 127.253906 L 370.164062 127.253906 L 370.164062 140.382812"/></g><g id="change4_193"><path fill="#000000" d="M 383.296875 140.382812 L 370.164062 140.382812 L 370.164062 127.253906 L 383.296875 127.253906 L 383.296875 140.382812"/></g><g id="change4_194"><path fill="#000000" d="M 370.164062 127.253906 L 357.035156 127.253906 L 357.035156 114.121094 L 370.164062 114.121094 L 370.164062 127.253906"/></g><g id="change4_195"><path fill="#000000" d="M 383.296875 127.253906 L 370.164062 127.253906 L 370.164062 114.121094 L 383.296875 114.121094 L 383.296875 127.253906"/></g><g id="change4_196"><path fill="#000000" d="M 251.992188 114.121094 L 238.859375 114.121094 L 238.859375 100.992188 L 251.992188 100.992188 L 251.992188 114.121094"/></g><g id="change4_197"><path fill="#000000" d="M 265.121094 114.121094 L 251.992188 114.121094 L 251.992188 100.992188 L 265.121094 100.992188 L 265.121094 114.121094"/></g><g id="change4_198"><path fill="#000000" d="M 278.253906 114.121094 L 265.121094 114.121094 L 265.121094 100.992188 L 278.253906 100.992188 L 278.253906 114.121094"/></g><g id="change4_199"><path fill="#000000" d="M 291.382812 114.121094 L 278.253906 114.121094 L 278.253906 100.992188 L 291.382812 100.992188 L 291.382812 114.121094"/></g><g id="change4_200"><path fill="#000000" d="M 304.515625 114.121094 L 291.382812 114.121094 L 291.382812 100.992188 L 304.515625 100.992188 L 304.515625 114.121094"/></g><g id="change4_201"><path fill="#000000" d="M 317.644531 114.121094 L 304.515625 114.121094 L 304.515625 100.992188 L 317.644531 100.992188 L 317.644531 114.121094"/></g><g id="change4_202"><path fill="#000000" d="M 330.773438 114.121094 L 317.644531 114.121094 L 317.644531 100.992188 L 330.773438 100.992188 L 330.773438 114.121094"/></g><g id="change4_203"><path fill="#000000" d="M 343.902344 114.121094 L 330.773438 114.121094 L 330.773438 100.992188 L 343.902344 100.992188 L 343.902344 114.121094"/></g><g id="change4_204"><path fill="#000000" d="M 357.035156 114.121094 L 343.902344 114.121094 L 343.902344 100.992188 L 357.035156 100.992188 L 357.035156 114.121094"/></g><g id="change4_205"><path fill="#000000" d="M 370.164062 114.121094 L 357.035156 114.121094 L 357.035156 100.992188 L 370.164062 100.992188 L 370.164062 114.121094"/></g><g id="change4_206"><path fill="#000000" d="M 251.992188 100.992188 L 238.859375 100.992188 L 238.859375 87.859375 L 251.992188 87.859375 L 251.992188 100.992188"/></g><g id="change4_207"><path fill="#000000" d="M 265.121094 100.992188 L 251.992188 100.992188 L 251.992188 87.859375 L 265.121094 87.859375 L 265.121094 100.992188"/></g><g id="change4_208"><path fill="#000000" d="M 278.253906 100.992188 L 265.121094 100.992188 L 265.121094 87.859375 L 278.253906 87.859375 L 278.253906 100.992188"/></g><g id="change4_209"><path fill="#000000" d="M 291.382812 100.992188 L 278.253906 100.992188 L 278.253906 87.859375 L 291.382812 87.859375 L 291.382812 100.992188"/></g><g id="change4_210"><path fill="#000000" d="M 304.515625 100.992188 L 291.382812 100.992188 L 291.382812 87.859375 L 304.515625 87.859375 L 304.515625 100.992188"/></g><g id="change4_211"><path fill="#000000" d="M 317.644531 100.992188 L 304.515625 100.992188 L 304.515625 87.859375 L 317.644531 87.859375 L 317.644531 100.992188"/></g><g id="change4_212"><path fill="#000000" d="M 330.773438 100.992188 L 317.644531 100.992188 L 317.644531 87.859375 L 330.773438 87.859375 L 330.773438 100.992188"/></g><g id="change4_213"><path fill="#000000" d="M 343.902344 100.992188 L 330.773438 100.992188 L 330.773438 87.859375 L 343.902344 87.859375 L 343.902344 100.992188"/></g><g id="change4_214"><path fill="#000000" d="M 357.035156 100.992188 L 343.902344 100.992188 L 343.902344 87.859375 L 357.035156 87.859375 L 357.035156 100.992188"/></g></g></svg>