<?xml version="1.0" encoding="UTF-8" standalone="no"?><svg xmlns="http://www.w3.org/2000/svg" xmlns:xlink="http://www.w3.org/1999/xlink" contentScriptType="text/ecmascript" fill="#000000" width="525" zoomAndPan="magnify" contentStyleType="text/css" viewBox="0.0 0.0 525.0 90.0" height="90" preserveAspectRatio="xMidYMid meet" version="1"><g><g id="change1_1"><path fill="#864f2b" d="M520 65L525 65 525 45 520 45 520 40 515 40 515 20 510 20 510 10 10 10 10 25 5 25 5 30 0 30 0 40 5 40 5 45 10 45 10 50 5 50 5 55 0 55 0 75 5 75 5 85 10 85 10 90 510 90 520 90 520 85 525 85 525 75 520 75 520 70z"/></g><g fill="#633620"><g id="change2_1"><path d="M10 15H15V20H10z"/></g><g id="change2_2"><path d="M30 15H40V20H30z"/></g><g id="change2_3"><path d="M40 20H45V25H40z"/></g><g id="change2_4"><path d="M30 40L30 35 40 35 40 30 30 30 30 25 25 25 25 20 20 20 20 25 15 25 15 35 20 35 25 35 25 40 20 40 10 40 10 40.1 10 45 10 50 15 50 15 45 20 45 20 50 25 50 25 45 30 45 40 45 40 40z"/></g><g id="change2_5"><path d="M25 50H30V55H25z"/></g><g id="change2_6"><path d="M5 55H10V60H5z"/></g><g id="change2_7"><path d="M10 60H20V65H10z"/></g><g id="change2_8"><path d="M50 45L50 40 45 40 45 45 40 45 40 50 50 50z"/></g><g id="change2_9"><path d="M75 35H80V40H75z"/></g><g id="change2_10"><path d="M80 25H85V35H80z"/></g><g id="change2_11"><path d="M45 15H50V20H45z"/></g><g id="change2_12"><path d="M55 55L55 60 60 60 60 55 60 50 65 50 65 40 60 40 60 35 55 35 55 40 55 50 50 50 50 55z"/></g><g id="change2_13"><path d="M45 55L45 60 40 60 40 65 45 65 50 65 50 55z"/></g><g id="change2_14"><path d="M35 50H40V60H35z"/></g><g id="change2_15"><path d="M30 70L25 70 25 75 35 75 40 75 40 70 40 65 30 65z"/></g><g id="change2_16"><path d="M25 60H30V65H25z"/></g><g id="change2_17"><path d="M15 70H20V80H15z"/></g><g id="change2_18"><path d="M5 70H10V80H5z"/></g><g id="change2_19"><path d="M0 65H5V75H0z"/></g><g id="change2_20"><path d="M85 50H90V55H85z"/></g><g id="change2_21"><path d="M90 40H95V50H90z"/></g><g id="change2_22"><path d="M85 35H90V40H85z"/></g><g id="change2_23"><path d="M85 15H90V25H85z"/></g><g id="change2_24"><path d="M75 15H80V20H75z"/></g><g id="change2_25"><path d="M65 35H70V40H65z"/></g><g id="change2_26"><path d="M65 65L65 60 60 60 60 65 55 65 50 65 50 70 45 70 45 75 50 75 55 75 55 80 60 80 60 75 60 70 65 70z"/></g><g id="change2_27"><path d="M70 70L70 75 75 75 75 80 80 80 80 75 85 75 85 70 80 70 80 65 70 65z"/></g><g id="change2_28"><path d="M80 60H90V65H80z"/></g><g id="change2_29"><path d="M100 80H115V85H100z"/></g><g id="change2_30"><path d="M95 75H100V80H95z"/></g><g id="change2_31"><path d="M110 65H115V75H110z"/></g><g id="change2_32"><path d="M119.7 75H125V90H119.7z"/></g><g id="change2_33"><path d="M89.9 85L89.9 90 95 90 95 85 90 85 90 80 80 80 80 85z"/></g><g id="change2_34"><path d="M105 40H115V45H105z"/></g><g id="change2_35"><path d="M95 35H105V40H95z"/></g><g id="change2_36"><path d="M120 60L120 65 140 65 140 60 135 60 135 55 130 55 130 60z"/></g><g id="change2_37"><path d="M130 70H135V75H130z"/></g><g id="change2_38"><path d="M125 50H130V55H125z"/></g><g id="change2_39"><path d="M115 50H120V55H115z"/></g><g id="change2_40"><path d="M95 25H100V30H95z"/></g><g id="change2_41"><path d="M105 20L110 20 110 15 100 15 100 20 100 25 105 25z"/></g><g id="change2_42"><path d="M110 25H115V35H110z"/></g><g id="change2_43"><path d="M115 35H120V40H115z"/></g><g id="change2_44"><path d="M120 40H125V50H120z"/></g><g id="change2_45"><path d="M115 20H120V25H115z"/></g><g id="change2_46"><path d="M120 30H125V35H120z"/></g><g id="change2_47"><path d="M125 20H135V25H125z"/></g><g id="change2_48"><path d="M135 30H140V35H135z"/></g><g id="change2_49"><path d="M130 40H135V45H130z"/></g><g id="change2_50"><path d="M140 40L140 50 150 50 150 40 150 30 145 30 145 40z"/></g><g id="change2_51"><path d="M145 55L145 60 145 65 155 65 155 60 150 60 150 55z"/></g><g id="change2_52"><path d="M140 25H145V30H140z"/></g><g id="change2_53"><path d="M140 15H145V20H140z"/></g><g id="change2_54"><path d="M145 20H150V25H145z"/></g><g id="change2_55"><path d="M155 15H160V30H155z"/></g><g id="change2_56"><path d="M165 25H170V35H165z"/></g><g id="change2_57"><path d="M165 15H180V20H165z"/></g><g id="change2_58"><path d="M130 80H135V90H130z"/></g><g id="change2_59"><path d="M160 65L170 65 170 55 165 55 165 45 160 45 160 35 155 35 155 45 155 50 155 55 160 55z"/></g><g id="change2_60"><path d="M165 75L160 75 160 70 145 70 140 70 140 85 145 85 145 75 155 75 155 80 165 80 165 90 175 90 175 70 165 70z"/></g><g id="change2_61"><path d="M150.4 85H160V90H150.4z"/></g><g id="change2_62"><path d="M175 30L175 40 170 40 170 50 180 50 180 40 185 40 185 35 195 35 195 25 185 25 185 30z"/></g><g id="change2_63"><path d="M175 60L180 60 180 65 190 65 190 60 185 60 185 55 175 55z"/></g><g id="change2_64"><path d="M190 70L180 70 180 80 185 80 185 85 195 85 195 80 190 80z"/></g><g id="change2_65"><path d="M195 55H205V70H195z"/></g><g id="change2_66"><path d="M195 75H205V80H195z"/></g><g id="change2_67"><path d="M190 45L185 45 185 55 195 55 195 45 205 45 205 40 190 40z"/></g><g id="change2_68"><path d="M180 20H185V25H180z"/></g><g id="change2_69"><path d="M190 15H200V20H190z"/></g><g id="change2_70"><path d="M210 25L200 25 200 35 210 35 220 35 220 30 210 30z"/></g><g id="change2_71"><path d="M210 40H220V50H210z"/></g><g id="change2_72"><path d="M210 65L220 65 220 60 225 60 225 55 220 55 215 55 210 55z"/></g><g id="change2_73"><path d="M215 70H220V75H215z"/></g><g id="change2_74"><path d="M225 45H230V50H225z"/></g><g id="change2_75"><path d="M230 50H235V65H230z"/></g><g id="change2_76"><path d="M225 75L225 80 215 80 215 85 210 85 210 90 220 90 220 85 225 85 235 85 235 75z"/></g><g id="change2_77"><path d="M225 65H230V70H225z"/></g><g id="change2_78"><path d="M235 85H239.7V90H235z"/></g><g id="change2_79"><path d="M220 25H225V30H220z"/></g><g id="change2_80"><path d="M225 30H230V40H225z"/></g><g id="change2_81"><path d="M230 25L235 25 235 15 230 15 225 15 225 20 230 20z"/></g><g id="change2_82"><path d="M215 25L220 25 220 20 220 15 205 15 205 20 215 20z"/></g><g id="change2_83"><path d="M210 75H215V80H210z"/></g><g id="change2_84"><path d="M240 65H250V75H240z"/></g><g id="change2_85"><path d="M250 75H255V80H250z"/></g><g id="change2_86"><path d="M235 35L240 35 240 40 235 40 235 45 245 45 245 40 245 35 245 30 235 30z"/></g><g id="change2_87"><path d="M260 30L255 30 255 25 245 25 245 30 250 30 250 40 255 40 255 45 260 45 260 40z"/></g><g id="change2_88"><path d="M260 45H265V55H260z"/></g><g id="change2_89"><path d="M260 60L260 55 255 55 255 50 240 50 240 60 250 60 250 65 255 65 255 60z"/></g><g id="change2_90"><path d="M255 65H265V70H255z"/></g><g id="change2_91"><path d="M265 60H270V65H265z"/></g><g id="change2_92"><path d="M245 85H250V90H245z"/></g><g id="change2_93"><path d="M260 85L255.2 85 255.2 90 265 90 265 85 270 85 270 75 260 75z"/></g><g id="change2_94"><path d="M270 70H275V75H270z"/></g><g id="change2_95"><path d="M275 75H285V80H275z"/></g><g id="change2_96"><path d="M275 60H285V70H275z"/></g><g id="change2_97"><path d="M270 50H275V55H270z"/></g><g id="change2_98"><path d="M260 25H265V30H260z"/></g><g id="change2_99"><path d="M240 15H255V20H240z"/></g><g id="change2_100"><path d="M260 15H265V20H260z"/></g><g id="change2_101"><path d="M265 30H275V35H265z"/></g><g id="change2_102"><path d="M270 15H280V25H270z"/></g><g id="change2_103"><path d="M290 35L305 35 305 30 290 30 280 30 280 40 290 40z"/></g><g id="change2_104"><path d="M280 45H285V50H280z"/></g><g id="change2_105"><path d="M285 50H290V55H285z"/></g><g id="change2_106"><path d="M290 25L295 25 295 20 295 15 285 15 285 20 290 20z"/></g><g id="change2_107"><path d="M300 15H305V20H300z"/></g><g id="change2_108"><path d="M295 40H305V45H295z"/></g><g id="change2_109"><path d="M300 70H305V75H300z"/></g><g id="change2_110"><path d="M295 75H300V80H295z"/></g><g id="change2_111"><path d="M285 80H290V85H285z"/></g><g id="change2_112"><path d="M280 45L280 40 275 40 265 40 265 45 275 45z"/></g><g id="change2_113"><path d="M305 60L305 50 295 50 295 60 290 60 290 70 295 70 295 65 300 65 305 65 310 65 310 60z"/></g><g id="change2_114"><path d="M305 75H310V80H305z"/></g><g id="change2_115"><path d="M310 65H315V75H310z"/></g><g id="change2_116"><path d="M300 85H315V90H300z"/></g><g id="change2_117"><path d="M325 75L315 75 315 85 324.9 85 324.9 90 335 90 335 85 325 85z"/></g><g id="change2_118"><path d="M276.1 85H285V90H276.1z"/></g><g id="change2_119"><path d="M320 40L325 40 325 25 310 25 310 40 310 50 320 50z"/></g><g id="change2_120"><path d="M325 45H335V55H325z"/></g><g id="change2_121"><path d="M325 70L325 60 325 55 315 55 315 60 320 60 320 70z"/></g><g id="change2_122"><path d="M330 70L330 75 335 75 335 70 340 70 340 60 330 60z"/></g><g id="change2_123"><path d="M335 75H340V80H335z"/></g><g id="change2_124"><path d="M330 25H340V35H330z"/></g><g id="change2_125"><path d="M330 20L340 20 340 15 330 15 325 15 325 25 330 25z"/></g><g id="change2_126"><path d="M315 15H320V20H315z"/></g><g id="change2_127"><path d="M345 25L345 30 355 30 355 25 350 25 350 20 340 20 340 25z"/></g><g id="change2_128"><path d="M345 35H355V40H345z"/></g><g id="change2_129"><path d="M335 40H345V45H335z"/></g><g id="change2_130"><path d="M350 45H360V50H350z"/></g><g id="change2_131"><path d="M340 50H350V55H340z"/></g><g id="change2_132"><path d="M345 60H355V70H345z"/></g><g id="change2_133"><path d="M345 75H355V85H345z"/></g><g id="change2_134"><path d="M355 85H360.7V90H355z"/></g><g id="change2_135"><path d="M340.3 85H345V90H340.3z"/></g><g id="change2_136"><path d="M360 55H365V60H360z"/></g><g id="change2_137"><path d="M365 45L375 45 375 40 370 40 370 35 375 35 385 35 385 40 395 40 395 30 385 30 385 20 380 20 380 30 375 30 375 25 365 25 365 20 360 20 360 30 365 30 365 35 360 35 360 40 365 40z"/></g><g id="change2_138"><path d="M380 60L385 60 385 50 380 50 375 50 370 50 370 55 375 55 375 60z"/></g><g id="change2_139"><path d="M395 75L400 75 400 65 400 55 390 55 390 65 395 65z"/></g><g id="change2_140"><path d="M380,75v-5h5v-5h-20v5h-5v10h10h5v5h5v-5h5v-5H380z M370,75v-5h5v5H370z"/></g><g id="change2_141"><path d="M385 80H390V90H385z"/></g><g id="change2_142"><path d="M365 85H375V90H365z"/></g><g id="change2_143"><path d="M420 60L420 45 410 45 410 55 405 55 405 75 415 75 415 60z"/></g><g id="change2_144"><path d="M405 30H410V35H405z"/></g><g id="change2_145"><path d="M390 45L390 50 400 50 400 45 405 45 405 40 395 40 395 45z"/></g><g id="change2_146"><path d="M395 80L395 90 405 90 405 85 415 85 415 80 405 80z"/></g><g id="change2_147"><path d="M445 65L435 65 435 60 425 60 425 70 420 70 420 75 430 75 430 70 435 70 435 80 430 80 425 80 420 80 420 90 430 90 430 85 440 85 440 80 445 80z"/></g><g id="change2_148"><path d="M425 50H430V55H425z"/></g><g id="change2_149"><path d="M415 30L415 40 420 40 430 40 430 30 435 30 435 25 425 25 425 30 420 30 420 25 425 25 425 20 430 20 430 15 425 15 415 15 415 20 405 20 405 25 415 25z"/></g><g id="change2_150"><path d="M435 35H440V40H435z"/></g><g id="change2_151"><path d="M440 25H450V30H440z"/></g><g id="change2_152"><path d="M435 15H445V20H435z"/></g><g id="change2_153"><path d="M430 45H440V50H430z"/></g><g id="change2_154"><path d="M445 50L440 50 440 60 450 60 450 50 450 45 445 45z"/></g><g id="change2_155"><path d="M390 15H400V25H390z"/></g><g id="change2_156"><path d="M365 15H380V20H365z"/></g><g id="change2_157"><path d="M455 50H465V65H455z"/></g><g id="change2_158"><path d="M450 70H455V80H450z"/></g><g id="change2_159"><path d="M450 35L450 45 470 45 470 40 475 40 475 35 475 30 475 15 470 15 470 30 460 30 460 35z"/></g><g id="change2_160"><path d="M460 15H465V25H460z"/></g><g id="change2_161"><path d="M450 15H455V25H450z"/></g><g id="change2_162"><path d="M470 70L470 75 460 75 460 80 460 85 465 85 465 80 470 80 480 80 480 70z"/></g><g id="change2_163"><path d="M490 40H500V45H490z"/></g><g id="change2_164"><path d="M470 55L475 55 475 65 485 65 485 60 490 60 495 60 495 50 490 50 490 55 485 55 485 40 480 40 480 50 470 50z"/></g><g id="change2_165"><path d="M444 85H455V90H444z"/></g><g id="change2_166"><path d="M470.1 85H475V90H470.1z"/></g><g id="change2_167"><path d="M455 25H460V30H455z"/></g><g id="change2_168"><path d="M480 30H490V35H480z"/></g><g id="change2_169"><path d="M495 25L495 15 480 15 480 25 490 25 490 30 500 30 500 25z"/></g><g id="change2_170"><path d="M500 35L505 35 505 40 510 40 510 35 510 30 500 30z"/></g><g id="change2_171"><path d="M500 15H510V20H500z"/></g><g id="change2_172"><path d="M505 50L500 50 500 55 510 55 510 50 510 45 505 45z"/></g><g id="change2_173"><path d="M505 60L500 60 500 65 500 70 495 70 495 65 490 65 490 70 490 80 480 80 480 90 490 90 490 85 495 85 495 80 505 80 505 75 510 75 510 65 505 65z"/></g><g id="change2_174"><path d="M500 85H510V90H500z"/></g><g id="change2_175"><path d="M80 50L80 45 75 45 70 45 70 50 70 55 70 60 80 60 80 55z"/></g><g id="change2_176"><path d="M65 30L65 25 70 25 70 30 75 30 75 25 75 20 70 20 70 15 60 15 60 20 55 20 50 20 50 25 50 30 45 30 45 35 50 35 55 35 55 30z"/></g><g id="change2_177"><path d="M15 85L15 80 10 80 10 85 10 90 15 90 25 90 30 90 30 85 25 85z"/></g><g id="change2_178"><path d="M40 80L30 80 30 85 40 85 40 90 45 90 55 90 55 80 45 80z"/></g><g id="change2_179"><path d="M70 85L70 80 65 80 65 90 66.2 90 70 90 75 90 80 90 80 85 75 85z"/></g><g id="change2_180"><path d="M90 55L90 60 95 60 95 65 90 65 90 70 95 70 105 70 105 65 110 65 110 60 105 60 105 55 110 55 110 50 105 50 95 50 95 55z"/></g><g id="change2_181"><path d="M515 40H520V50H515z"/><path d="M520 55L520 60 515 60 515 65 525 65 525 60 525 55z"/><path d="M510 55H515V60H510z"/><path d="M520 70L515 70 515 75 510 75 510 80 520 80 520 75z"/><path d="M520 80H525V85H520z"/><path d="M515 85H520V90H515z"/></g></g><g fill="#457a1e" id="change3_1"><path opacity="0.3" d="M10 15H15V20H10z"/><path opacity="0.3" d="M20 15H25V20H20z"/><path opacity="0.3" d="M30 15H35V20H30z"/><path opacity="0.3" d="M40 15H45V20H40z"/><path opacity="0.3" d="M50 15H55V20H50z"/><path opacity="0.3" d="M60 15H65V20H60z"/><path opacity="0.3" d="M70 15H75V20H70z"/><path opacity="0.3" d="M80 15H85V20H80z"/><path opacity="0.3" d="M90 15H95V20H90z"/><path opacity="0.3" d="M100 15H105V20H100z"/><path opacity="0.3" d="M110 15H115V20H110z"/><path opacity="0.3" d="M120 15H125V20H120z"/><path opacity="0.3" d="M130 15H135V20H130z"/><path opacity="0.3" d="M140 15H145V20H140z"/><path opacity="0.3" d="M150 15H155V20H150z"/><path opacity="0.3" d="M160 15H165V20H160z"/><path opacity="0.3" d="M170 15H175V20H170z"/><path opacity="0.3" d="M180 15H185V20H180z"/><path opacity="0.3" d="M190 15H195V20H190z"/><path opacity="0.3" d="M200 15H205V20H200z"/><path opacity="0.3" d="M210 15H215V20H210z"/><path opacity="0.3" d="M220 15H225V20H220z"/><path opacity="0.3" d="M230 15H235V20H230z"/><path opacity="0.3" d="M240 15H245V20H240z"/><path opacity="0.3" d="M250 15H255V20H250z"/><path opacity="0.3" d="M260 15H265V20H260z"/><path opacity="0.3" d="M270 15H275V20H270z"/><path opacity="0.3" d="M280 15H285V20H280z"/><path opacity="0.3" d="M290 15H295V20H290z"/><path opacity="0.3" d="M300 15H305V20H300z"/><path opacity="0.3" d="M310 15H315V20H310z"/><path opacity="0.3" d="M320 15H325V20H320z"/><path opacity="0.3" d="M330 15H335V20H330z"/><path opacity="0.3" d="M340 15H345V20H340z"/><path opacity="0.3" d="M350 15H355V20H350z"/><path opacity="0.3" d="M360 15H365V20H360z"/><path opacity="0.3" d="M370 15H375V20H370z"/><path opacity="0.3" d="M380 15H385V20H380z"/><path opacity="0.3" d="M390 15H395V20H390z"/><path opacity="0.3" d="M400 15H405V20H400z"/><path opacity="0.3" d="M410 15H415V20H410z"/><path opacity="0.3" d="M420 15H425V20H420z"/><path opacity="0.3" d="M430 15H435V20H430z"/><path opacity="0.3" d="M440 15H445V20H440z"/><path opacity="0.3" d="M450 15H455V20H450z"/><path opacity="0.3" d="M460 15H465V20H460z"/><path opacity="0.3" d="M470 15H475V20H470z"/><path opacity="0.3" d="M480 15H485V20H480z"/><path opacity="0.3" d="M490 15H495V20H490z"/><path opacity="0.3" d="M500 15H505V20H500z"/><path opacity="0.3" d="M15 20H20V25H15z"/><path opacity="0.3" d="M25 20H30V25H25z"/><path opacity="0.3" d="M35 20H40V25H35z"/><path opacity="0.3" d="M45 20H50V25H45z"/><path opacity="0.3" d="M55 20H60V25H55z"/><path opacity="0.3" d="M65 20H70V25H65z"/><path opacity="0.3" d="M75 20H80V25H75z"/><path opacity="0.3" d="M85 20H90V25H85z"/><path opacity="0.3" d="M95 20H100V25H95z"/><path opacity="0.3" d="M105 20H110V25H105z"/><path opacity="0.3" d="M115 20H120V25H115z"/><path opacity="0.3" d="M125 20H130V25H125z"/><path opacity="0.3" d="M135 20H140V25H135z"/><path opacity="0.3" d="M145 20H150V25H145z"/><path opacity="0.3" d="M155 20H160V25H155z"/><path opacity="0.3" d="M165 20H170V25H165z"/><path opacity="0.3" d="M175 20H180V25H175z"/><path opacity="0.3" d="M185 20H190V25H185z"/><path opacity="0.3" d="M195 20H200V25H195z"/><path opacity="0.3" d="M205 20H210V25H205z"/><path opacity="0.3" d="M215 20H220V25H215z"/><path opacity="0.3" d="M225 20H230V25H225z"/><path opacity="0.3" d="M235 20H240V25H235z"/><path opacity="0.3" d="M245 20H250V25H245z"/><path opacity="0.3" d="M255 20H260V25H255z"/><path opacity="0.3" d="M265 20H270V25H265z"/><path opacity="0.3" d="M275 20H280V25H275z"/><path opacity="0.3" d="M285 20H290V25H285z"/><path opacity="0.3" d="M295 20H300V25H295z"/><path opacity="0.3" d="M305 20H310V25H305z"/><path opacity="0.3" d="M315 20H320V25H315z"/><path opacity="0.3" d="M325 20H330V25H325z"/><path opacity="0.3" d="M335 20H340V25H335z"/><path opacity="0.3" d="M345 20H350V25H345z"/><path opacity="0.3" d="M355 20H360V25H355z"/><path opacity="0.3" d="M365 20H370V25H365z"/><path opacity="0.3" d="M375 20H380V25H375z"/><path opacity="0.3" d="M385 20H390V25H385z"/><path opacity="0.3" d="M395 20H400V25H395z"/><path opacity="0.3" d="M405 20H410V25H405z"/><path opacity="0.3" d="M415 20H420V25H415z"/><path opacity="0.3" d="M425 20H430V25H425z"/><path opacity="0.3" d="M435 20H440V25H435z"/><path opacity="0.3" d="M445 20H450V25H445z"/><path opacity="0.3" d="M455 20H460V25H455z"/><path opacity="0.3" d="M465 20H470V25H465z"/><path opacity="0.3" d="M475 20H480V25H475z"/><path opacity="0.3" d="M485 20H490V25H485z"/><path opacity="0.3" d="M495 20H500V25H495z"/><path opacity="0.3" d="M505 20H510V25H505z"/><path opacity="0.3" d="M10 25H15V30H10z"/><path opacity="0.3" d="M20 25H25V30H20z"/><path opacity="0.3" d="M30 25H35V30H30z"/><path opacity="0.3" d="M40 25H45V30H40z"/><path opacity="0.3" d="M50 25H55V30H50z"/><path opacity="0.3" d="M60 25H65V30H60z"/><path opacity="0.3" d="M70 25H75V30H70z"/><path opacity="0.3" d="M80 25H85V30H80z"/><path opacity="0.3" d="M90 25H95V30H90z"/><path opacity="0.3" d="M100 25H105V30H100z"/><path opacity="0.3" d="M110 25H115V30H110z"/><path opacity="0.3" d="M120 25H125V30H120z"/><path opacity="0.3" d="M130 25H135V30H130z"/><path opacity="0.3" d="M140 25H145V30H140z"/><path opacity="0.3" d="M150 25H155V30H150z"/><path opacity="0.3" d="M160 25H165V30H160z"/><path opacity="0.3" d="M170 25H175V30H170z"/><path opacity="0.3" d="M180 25H185V30H180z"/><path opacity="0.3" d="M190 25H195V30H190z"/><path opacity="0.3" d="M200 25H205V30H200z"/><path opacity="0.3" d="M210 25H215V30H210z"/><path opacity="0.3" d="M220 25H225V30H220z"/><path opacity="0.3" d="M230 25H235V30H230z"/><path opacity="0.3" d="M240 25H245V30H240z"/><path opacity="0.3" d="M250 25H255V30H250z"/><path opacity="0.3" d="M260 25H265V30H260z"/><path opacity="0.3" d="M270 25H275V30H270z"/><path opacity="0.3" d="M280 25H285V30H280z"/><path opacity="0.3" d="M290 25H295V30H290z"/><path opacity="0.3" d="M300 25H305V30H300z"/><path opacity="0.3" d="M310 25H315V30H310z"/><path opacity="0.3" d="M320 25H325V30H320z"/><path opacity="0.3" d="M330 25H335V30H330z"/><path opacity="0.3" d="M340 25H345V30H340z"/><path opacity="0.3" d="M350 25H355V30H350z"/><path opacity="0.3" d="M360 25H365V30H360z"/><path opacity="0.3" d="M370 25H375V30H370z"/><path opacity="0.3" d="M380 25H385V30H380z"/><path opacity="0.3" d="M390 25H395V30H390z"/><path opacity="0.3" d="M400 25H405V30H400z"/><path opacity="0.3" d="M410 25H415V30H410z"/><path opacity="0.3" d="M420 25H425V30H420z"/><path opacity="0.3" d="M430 25H435V30H430z"/><path opacity="0.3" d="M440 25H445V30H440z"/><path opacity="0.3" d="M450 25H455V30H450z"/><path opacity="0.3" d="M460 25H465V30H460z"/><path opacity="0.3" d="M470 25H475V30H470z"/><path opacity="0.3" d="M480 25H485V30H480z"/><path opacity="0.3" d="M490 25H495V30H490z"/><path opacity="0.3" d="M500 25H505V30H500z"/><path opacity="0.3" d="M15 30H20V35H15z"/><path opacity="0.3" d="M25 30H30V35H25z"/><path opacity="0.3" d="M35 30H40V35H35z"/><path opacity="0.3" d="M45 30H50V35H45z"/><path opacity="0.3" d="M55 30H60V35H55z"/><path opacity="0.3" d="M65 30H70V35H65z"/><path opacity="0.3" d="M75 30H80V35H75z"/><path opacity="0.3" d="M85 30H90V35H85z"/><path opacity="0.3" d="M95 30H100V35H95z"/><path opacity="0.3" d="M105 30H110V35H105z"/><path opacity="0.3" d="M115 30H120V35H115z"/><path opacity="0.3" d="M125 30H130V35H125z"/><path opacity="0.3" d="M135 30H140V35H135z"/><path opacity="0.3" d="M145 30H150V35H145z"/><path opacity="0.3" d="M155 30H160V35H155z"/><path opacity="0.3" d="M165 30H170V35H165z"/><path opacity="0.3" d="M175 30H180V35H175z"/><path opacity="0.3" d="M185 30H190V35H185z"/><path opacity="0.3" d="M195 30H200V35H195z"/><path opacity="0.3" d="M205 30H210V35H205z"/><path opacity="0.3" d="M215 30H220V35H215z"/><path opacity="0.3" d="M225 30H230V35H225z"/><path opacity="0.3" d="M235 30H240V35H235z"/><path opacity="0.3" d="M245 30H250V35H245z"/><path opacity="0.3" d="M255 30H260V35H255z"/><path opacity="0.3" d="M265 30H270V35H265z"/><path opacity="0.3" d="M275 30H280V35H275z"/><path opacity="0.3" d="M285 30H290V35H285z"/><path opacity="0.3" d="M295 30H300V35H295z"/><path opacity="0.3" d="M305 30H310V35H305z"/><path opacity="0.3" d="M315 30H320V35H315z"/><path opacity="0.3" d="M325 30H330V35H325z"/><path opacity="0.3" d="M335 30H340V35H335z"/><path opacity="0.3" d="M345 30H350V35H345z"/><path opacity="0.3" d="M355 30H360V35H355z"/><path opacity="0.3" d="M365 30H370V35H365z"/><path opacity="0.3" d="M375 30H380V35H375z"/><path opacity="0.3" d="M385 30H390V35H385z"/><path opacity="0.3" d="M395 30H400V35H395z"/><path opacity="0.3" d="M405 30H410V35H405z"/><path opacity="0.3" d="M415 30H420V35H415z"/><path opacity="0.3" d="M425 30H430V35H425z"/><path opacity="0.3" d="M435 30H440V35H435z"/><path opacity="0.3" d="M445 30H450V35H445z"/><path opacity="0.3" d="M455 30H460V35H455z"/><path opacity="0.3" d="M465 30H470V35H465z"/><path opacity="0.3" d="M475 30H480V35H475z"/><path opacity="0.3" d="M485 30H490V35H485z"/><path opacity="0.3" d="M495 30H500V35H495z"/><path opacity="0.3" d="M505 30H510V35H505z"/><path opacity="0.3" d="M510 20L510 15 10 15 10 25 5 25 5 30 0 30 0 40 5 40 5 45 10 45 10 40 15 40 15 45 20 45 20 40 25 40 25 45 30 45 30 40 35 40 35 45 40 45 40 40 45 40 45 45 50 45 50 40 55 40 55 45 60 45 60 40 65 40 65 45 70 45 70 40 75 40 75 45 80 45 80 40 85 40 85 45 90 45 90 40 95 40 95 45 100 45 100 40 105 40 105 45 110 45 110 40 115 40 115 45 120 45 120 40 125 40 125 45 130 45 130 40 135 40 135 45 140 45 140 40 145 40 145 45 150 45 150 40 155 40 155 45 160 45 160 40 165 40 165 45 170 45 170 40 175 40 175 45 180 45 180 40 185 40 185 45 190 45 190 40 195 40 195 45 200 45 200 40 205 40 205 45 210 45 210 40 215 40 215 45 220 45 220 40 225 40 225 45 230 45 230 40 235 40 235 45 240 45 240 40 245 40 245 45 250 45 250 40 255 40 255 45 260 45 260 40 265 40 265 45 270 45 270 40 275 40 275 45 280 45 280 40 285 40 285 45 290 45 290 40 295 40 295 45 300 45 300 40 305 40 305 45 310 45 310 40 315 40 315 45 320 45 320 40 325 40 325 45 330 45 330 40 335 40 335 45 340 45 340 40 345 40 345 45 350 45 350 40 355 40 355 45 360 45 360 40 365 40 365 45 370 45 370 40 375 40 375 45 380 45 380 40 385 40 385 45 390 45 390 40 395 40 395 45 400 45 400 40 405 40 405 45 410 45 410 40 415 40 415 45 420 45 420 40 425 40 425 45 430 45 430 40 435 40 435 45 440 45 440 40 445 40 445 45 450 45 450 40 455 40 455 45 460 45 460 40 465 40 465 45 470 45 470 40 475 40 475 45 480 45 480 40 485 40 485 45 490 45 490 40 495 40 495 45 500 45 500 40 505 40 505 45 510 45 510 40 515 40 515 20z"/></g><g id="change4_1"><path fill="#7fba50" d="M5 5H15V25H5z"/></g><g id="change4_2"><path fill="#7fba50" d="M510 5L510 0 10 0 10 10 10 20 15 20 15 25 35 25 35 20 40 20 45 20 60 20 65 20 65 25 75 25 75 20 80 20 80 25 90 25 90 20 95 20 110 20 115 20 135 20 140 20 145 20 145 25 160 25 160 20 165 20 175 20 180 20 185 20 190 20 190 25 200 25 200 20 210 20 220 20 235 20 240 20 250 20 255 20 260 20 260 25 265 25 265 20 270 20 280 20 285 20 285 25 295 25 295 20 300 20 315 20 320 20 320 25 325 25 330 25 345 25 345 20 350 20 360 20 370 20 375 20 375 25 385 25 385 20 390 20 395 20 415 20 425 20 445 20 455 20 460 20 460 25 475 25 475 20 480 20 490 20 500 20 505 20 505 25 515 25 515 5z"/></g><g fill="#457a1e" id="change3_2"><path d="M5 20H15V25H5z"/><path d="M15 25H35V30H15z"/><path d="M35 20H40V25H35z"/><path d="M40 15H45V20H40z"/><path d="M60 15L60 20 45 20 45 25 60 25 65 25 65 15z"/><path d="M65 25H75V30H65z"/><path d="M75 20H80V25H75z"/><path d="M80 25H90V30H80z"/><path d="M95 15L90 15 90 20 90 25 95 25 110 25 110 20 95 20z"/><path d="M110 15H115V20H110z"/><path d="M115 20H135V25H115z"/><path d="M135 15H140V20H135z"/><path d="M140 20H145V25H140z"/><path d="M145 25H160V30H145z"/><path d="M165 15L160 15 160 20 160 25 165 25 175 25 175 20 165 20z"/><path d="M175 15H180V20H175z"/><path d="M185 15L185 20 180 20 180 25 185 25 190 25 190 15z"/><path d="M190 25H200V30H190z"/><path d="M200 20H210V25H200z"/><path d="M210 15H220V20H210z"/><path d="M220 20H235V25H220z"/><path d="M235 15H240V20H235z"/><path d="M255 20L255 15 250 15 250 20 245 20 240 20 240 25 245 25 250 25 255 25 260 25 260 20z"/><path d="M260 25H265V30H260z"/><path d="M265 20H270V25H265z"/><path d="M270 15H280V20H270z"/><path d="M280 20H285V25H280z"/><path d="M285 25H295V30H285z"/><path d="M325 20L325 15 315 15 315 20 310 20 300 20 300 15 295 15 295 20 295 25 300 25 310 25 315 25 320 25 320 20z"/><path d="M320 25H345V30H320z"/><path d="M350 15L345 15 345 25 350 25 360 25 360 20 350 20z"/><path d="M360 15H370V20H360z"/><path d="M370 20H375V25H370z"/><path d="M375 25H385V30H375z"/><path d="M390 15L385 15 385 25 390 25 395 25 395 20 390 20z"/><path d="M395 15H415V20H395z"/><path d="M415 20H425V25H415z"/><path d="M425 15H445V20H425z"/><path d="M455 15L455 20 445 20 445 25 455 25 460 25 460 15z"/><path d="M460 25H475V30H460z"/><path d="M480 15L475 15 475 25 480 25 490 25 490 20 480 20z"/><path d="M490 15H500V20H490z"/><path d="M500 20H515V25H500z"/></g><g fill="#457a1e" opacity="0.3" id="change3_3"><path d="M15 0H25V5H15z"/><path d="M25 5H35V10H25z"/><path d="M15 10H25V15H15z"/><path d="M40 0H50V5H40z"/><path d="M50 5H55V10H50z"/><path d="M70 0H80V5H70z"/><path d="M70 10H80V15H70z"/><path d="M85 5H90V10H85z"/><path d="M95 5H105V10H95z"/><path d="M105 0H115V5H105z"/><path d="M115 5H120V10H115z"/><path d="M125 5H135V10H125z"/><path d="M135 0H140V5H135z"/><path d="M145 10H155V15H145z"/><path d="M150 0H155V5H150z"/><path d="M160 5H170V10H160z"/><path d="M175 0H185V5H175z"/><path d="M185 5H195V10H185z"/><path d="M200 10H210V15H200z"/><path d="M205 0H210V5H205z"/><path d="M215 5H225V10H215z"/><path d="M225 10H235V15H225z"/><path d="M230 0H235V5H230z"/><path d="M240 0H245V5H240z"/><path d="M240 10H245V15H240z"/><path d="M245 5H255V10H245z"/><path d="M260 5H265V10H260z"/><path d="M270 5H280V10H270z"/><path d="M285 10H290V15H285z"/><path d="M285 0H290V5H285z"/><path d="M295 0H300V10H295z"/><path d="M305 10H315V15H305z"/><path d="M315 0H325V5H315z"/><path d="M325 5H330V10H325z"/><path d="M330 10H335V15H330z"/><path d="M325 15H330V20H325z"/><path d="M340 15H345V25H340z"/><path d="M340 5H345V10H340z"/><path d="M350 5H355V10H350z"/><path d="M355 10H360V15H355z"/><path d="M360 0H365V10H360z"/><path d="M370 0H375V5H370z"/><path d="M370 10H380V15H370z"/><path d="M380 5H390V10H380z"/><path d="M390 0H395V5H390z"/><path d="M400 5H410V10H400z"/><path d="M410 0H420V5H410z"/><path d="M420 5H425V10H420z"/><path d="M430 5H440V10H430z"/><path d="M445 5H455V10H445z"/><path d="M460 10H470V15H460z"/><path d="M470 5H475V10H470z"/><path d="M480 10H490V15H480z"/><path d="M480 0H485V5H480z"/><path d="M495 5H500V10H495z"/><path d="M505 5H510V15H505z"/></g><g fill="#c27c49" id="change5_1"><path d="M35 45H40V50H35z"/><path d="M25 60H30V65H25z"/><path d="M10 50H15V55H10z"/><path d="M5 65H10V70H5z"/><path d="M20 80H25V85H20z"/><path d="M50 65H55V70H50z"/><path d="M70 55H75V60H70z"/><path d="M85 50H90V55H85z"/><path d="M120 40H125V45H120z"/><path d="M135 60H140V65H135z"/><path d="M130 70H135V75H130z"/><path d="M110 65H115V70H110z"/><path d="M110 80H115V85H110z"/><path d="M160 75H165V80H160z"/><path d="M155 50H160V55H155z"/><path d="M175 55H180V60H175z"/><path d="M190 50H195V55H190z"/><path d="M200 65H205V70H200z"/><path d="M220 55H225V60H220z"/><path d="M225 75H230V80H225z"/><path d="M235 85H240V90H235z"/><path d="M240 65H245V70H240z"/><path d="M210 85H215V90H210z"/><path d="M50 80H55V85H50z"/><path d="M265 75H270V80H265z"/><path d="M275 60H280V65H275z"/><path d="M300 60H305V65H300z"/><path d="M310 45H315V50H310z"/><path d="M320 75H325V80H320z"/><path d="M350 65H355V70H350z"/><path d="M360 70H365V75H360z"/><path d="M390 55H395V60H390z"/><path d="M405 70H410V75H405z"/><path d="M425 60H430V65H425z"/><path d="M450 75H455V80H450z"/><path d="M460 50H465V55H460z"/><path d="M475 60H480V65H475z"/><path d="M475 75H480V80H475z"/><path d="M490 80H495V85H490z"/><path d="M500 60H505V65H500z"/><path d="M500 85H505V90H500z"/><path d="M515 80H520V85H515z"/><path d="M515 55H520V60H515z"/><path d="M490 50H495V55H490z"/><path d="M425 85H430V90H425z"/></g><g id="change3_5"><path fill="#457a1e" opacity="0.5" d="M510 25H515V30H510z"/></g><g id="change3_6"><path fill="#457a1e" opacity="0.3" d="M5 30H10V35H5z"/></g><g id="change3_7"><path fill="#457a1e" opacity="0.3" d="M10 35H15V40H10z"/></g><g id="change3_8"><path fill="#457a1e" opacity="0.3" d="M0 35H5V40H0z"/></g><g fill="#457a1e" id="change3_4"><path opacity="0.5" d="M5 15H15V20H5z"/><path opacity="0.3" d="M5 5H15V10H5z"/><path opacity="0.5" d="M15 20H35V25H15z"/><path opacity="0.5" d="M35 15H40V20H35z"/><path opacity="0.5" d="M40 10H45V15H40z"/><path opacity="0.5" d="M60 10L60 15 45 15 45 20 60 20 65 20 65 10z"/><path opacity="0.5" d="M65 20H75V25H65z"/><path opacity="0.5" d="M75 15H80V20H75z"/><path opacity="0.5" d="M80 20H90V25H80z"/><path opacity="0.5" d="M95 10L90 10 90 15 90 20 95 20 110 20 110 15 95 15z"/><path opacity="0.5" d="M110 10H115V15H110z"/><path opacity="0.5" d="M115 15H135V20H115z"/><path opacity="0.5" d="M135 10H140V15H135z"/><path opacity="0.5" d="M140 15H145V20H140z"/><path opacity="0.5" d="M145 20H160V25H145z"/><path opacity="0.5" d="M165 10L160 10 160 15 160 20 165 20 175 20 175 15 165 15z"/><path opacity="0.5" d="M175 10H180V15H175z"/><path opacity="0.5" d="M185 10L185 15 180 15 180 20 185 20 190 20 190 10z"/><path opacity="0.5" d="M190 20H200V25H190z"/><path opacity="0.5" d="M200 15H210V20H200z"/><path opacity="0.5" d="M210 10H220V15H210z"/><path opacity="0.5" d="M220 15H235V20H220z"/><path opacity="0.5" d="M235 10H240V15H235z"/><path opacity="0.5" d="M255 15L255 10 250 10 250 15 245 15 240 15 240 20 245 20 250 20 255 20 260 20 260 15z"/><path opacity="0.5" d="M260 20H265V25H260z"/><path opacity="0.5" d="M265 15H270V20H265z"/><path opacity="0.5" d="M270 10H280V15H270z"/><path opacity="0.5" d="M280 15H285V20H280z"/><path opacity="0.5" d="M285 20H295V25H285z"/><path opacity="0.5" d="M325 15L325 10 315 10 315 15 310 15 300 15 300 10 295 10 295 15 295 20 300 20 310 20 315 20 320 20 320 15z"/><path opacity="0.5" d="M320 20H345V25H320z"/><path opacity="0.5" d="M350 10L345 10 345 20 350 20 360 20 360 15 350 15z"/><path opacity="0.5" d="M360 10H370V15H360z"/><path opacity="0.5" d="M370 15H375V20H370z"/><path opacity="0.5" d="M375 20H385V25H375z"/><path opacity="0.5" d="M390 10L385 10 385 20 390 20 395 20 395 15 390 15z"/><path opacity="0.5" d="M395 10H415V15H395z"/><path opacity="0.5" d="M415 15H425V20H415z"/><path opacity="0.5" d="M425 10H445V15H425z"/><path opacity="0.5" d="M455 10L455 15 445 15 445 20 455 20 460 20 460 10z"/><path opacity="0.5" d="M460 20H475V25H460z"/><path opacity="0.5" d="M480 10L475 10 475 20 480 20 490 20 490 15 480 15z"/><path opacity="0.5" d="M490 10H500V15H490z"/><path opacity="0.5" d="M510 10L510 15 500 15 500 20 510 20 515 20 515 10z"/></g></g></svg>