<?xml version="1.0" encoding="UTF-8" standalone="no"?><svg xmlns="http://www.w3.org/2000/svg" xmlns:xlink="http://www.w3.org/1999/xlink" contentScriptType="text/ecmascript" fill="none" width="500" zoomAndPan="magnify" style="fill: none" contentStyleType="text/css" viewBox="0.0 0.0 500.0 500.0" height="500" preserveAspectRatio="xMidYMid meet" version="1"><g id="change1_1"><path fill="#413117" d="M0.149902 454.422H45.5772V499.849H0.149902V454.422Z"/></g><g id="change1_2"><path fill="#413117" clip-rule="evenodd" d="M0 454.273H45.7271V500.001H0V454.273ZM0.29982 454.573V499.701H45.4273V454.573H0.29982Z" fill-rule="evenodd"/></g><g id="change2_1"><path fill="#941222" clip-rule="evenodd" d="M181.709 272.562H227.436V318.29H181.709V272.562ZM182.009 272.862V317.99H227.136V272.862H182.009Z" fill-rule="evenodd"/></g><g id="change3_1"><path fill="#bd293a" clip-rule="evenodd" d="M227.137 181.711H272.864V227.438H227.137V181.711ZM227.437 182.011V227.138H272.564V182.011H227.437Z" fill-rule="evenodd"/></g><g id="change3_2"><path fill="#bd293a" clip-rule="evenodd" d="M408.846 90.8555H454.573V136.583H408.846V90.8555ZM409.146 91.1553V136.283H454.273V91.1553H409.146Z" fill-rule="evenodd"/></g><g id="change2_2"><path fill="#941222" clip-rule="evenodd" d="M408.846 45.4258H454.573V91.1529H408.846V45.4258ZM409.146 45.7256V90.8531H454.273V45.7256H409.146Z" fill-rule="evenodd"/></g><g id="change3_3"><path fill="#bd293a" clip-rule="evenodd" d="M363.418 45.4258H409.145V91.1529H363.418V45.4258ZM363.718 45.7256V90.8531H408.845V45.7256H363.718Z" fill-rule="evenodd"/></g><g id="change3_4"><path fill="#bd293a" clip-rule="evenodd" d="M317.991 90.8555H363.718V136.583H317.991V90.8555ZM318.291 91.1553V136.283H363.418V91.1553H318.291Z" fill-rule="evenodd"/></g><g id="change2_3"><path fill="#941222" clip-rule="evenodd" d="M363.418 90.8555H409.145V136.583H363.418V90.8555ZM363.718 91.1553V136.283H408.845V91.1553H363.718Z" fill-rule="evenodd"/></g><g id="change3_5"><path fill="#bd293a" clip-rule="evenodd" d="M363.418 136.281H409.145V182.008H363.418V136.281ZM363.718 136.581V181.709H408.845V136.581H363.718Z" fill-rule="evenodd"/></g><g id="change3_6"><path fill="#bd293a" clip-rule="evenodd" d="M317.991 181.711H363.718V227.438H317.991V181.711ZM318.291 182.011V227.138H363.418V182.011H318.291Z" fill-rule="evenodd"/></g><g id="change2_4"><path fill="#941222" clip-rule="evenodd" d="M317.991 136.281H363.718V182.008H317.991V136.281ZM318.291 136.581V181.709H363.418V136.581H318.291Z" fill-rule="evenodd"/></g><g id="change3_7"><path fill="#bd293a" clip-rule="evenodd" d="M272.563 136.281H318.291V182.008H272.563V136.281ZM272.863 136.581V181.709H317.991V136.581H272.863Z" fill-rule="evenodd"/></g><g id="change2_5"><path fill="#941222" clip-rule="evenodd" d="M272.563 181.711H318.291V227.438H272.563V181.711ZM272.863 182.011V227.138H317.991V182.011H272.863Z" fill-rule="evenodd"/></g><g id="change3_8"><path fill="#bd293a" clip-rule="evenodd" d="M272.563 227.137H318.291V272.864H272.563V227.137ZM272.863 227.437V272.564H317.991V227.437H272.863Z" fill-rule="evenodd"/></g><g id="change3_9"><path fill="#bd293a" clip-rule="evenodd" d="M227.137 272.562H272.864V318.29H227.137V272.562ZM227.437 272.862V317.99H272.564V272.862H227.437Z" fill-rule="evenodd"/></g><g id="change2_6"><path fill="#941222" clip-rule="evenodd" d="M227.137 227.137H272.864V272.864H227.137V227.137ZM227.437 227.437V272.564H272.564V227.437H227.437Z" fill-rule="evenodd"/></g><g id="change3_10"><path fill="#bd293a" clip-rule="evenodd" d="M181.709 227.137H227.436V272.864H181.709V227.137ZM182.009 227.437V272.564H227.136V227.437H182.009Z" fill-rule="evenodd"/></g><g id="change2_7"><path fill="#941222" clip-rule="evenodd" d="M227.137 363.418H272.864V409.145H227.137V363.418ZM227.437 363.718V408.845H272.564V363.718H227.437Z" fill-rule="evenodd"/></g><g id="change2_8"><path fill="#941222" clip-rule="evenodd" d="M181.709 363.418H227.436V409.145H181.709V363.418ZM182.009 363.718V408.845H227.136V363.718H182.009Z" fill-rule="evenodd"/></g><g id="change2_9"><path fill="#941222" clip-rule="evenodd" d="M90.8545 272.562H136.582V318.29H90.8545V272.562ZM91.1543 272.862V317.99H136.282V272.862H91.1543Z" fill-rule="evenodd"/></g><g id="change2_10"><path fill="#941222" clip-rule="evenodd" d="M90.8545 227.137H136.582V272.864H90.8545V227.137ZM91.1543 227.437V272.564H136.282V227.437H91.1543Z" fill-rule="evenodd"/></g><g id="change2_11"><path fill="#941222" clip-rule="evenodd" d="M136.282 317.992H182.009V363.719H136.282V317.992ZM136.582 318.292V363.419H181.709V318.292H136.582Z" fill-rule="evenodd"/></g><g id="change1_3"><path fill="#413117" d="M91.0044 408.996H136.432V454.423H91.0044V408.996Z"/></g><g id="change1_4"><path fill="#413117" clip-rule="evenodd" d="M90.8545 408.844H136.582V454.571H90.8545V408.844ZM91.1543 409.144V454.271H136.282V409.144H91.1543Z" fill-rule="evenodd"/></g><g id="change4_1"><path fill="#674e2c" d="M91.0044 363.566H136.432V408.994H91.0044V363.566Z"/></g><g id="change4_2"><path fill="#674e2c" clip-rule="evenodd" d="M90.8545 363.418H136.582V409.145H90.8545V363.418ZM91.1543 363.718V408.845H136.282V363.718H91.1543Z" fill-rule="evenodd"/></g><g id="change1_5"><path fill="#413117" d="M45.5771 363.566H91.0044V408.994H45.5771V363.566Z"/></g><g id="change1_6"><path fill="#413117" clip-rule="evenodd" d="M45.4272 363.418H91.1544V409.145H45.4272V363.418ZM45.7271 363.718V408.845H90.8545V363.718H45.7271Z" fill-rule="evenodd"/></g><g id="change4_3"><path fill="#674e2c" d="M45.5771 408.996H91.0044V454.423H45.5771V408.996Z"/></g><g id="change4_4"><path fill="#674e2c" clip-rule="evenodd" d="M45.4272 408.844H91.1544V454.571H45.4272V408.844ZM45.7271 409.144V454.271H90.8545V409.144H45.7271Z" fill-rule="evenodd"/></g><g id="change1_7"><path fill="#413117" d="M45.5771 454.422H91.0044V499.849H45.5771V454.422Z"/></g><g id="change1_8"><path fill="#413117" clip-rule="evenodd" d="M45.4272 454.273H91.1544V500.001H45.4272V454.273ZM45.7271 454.573V499.701H90.8545V454.573H45.7271Z" fill-rule="evenodd"/></g><g id="change1_9"><path fill="#413117" d="M0.149902 408.996H45.5772V454.423H0.149902V408.996Z"/></g><g id="change1_10"><path fill="#413117" clip-rule="evenodd" d="M0 408.844H45.7271V454.571H0V408.844ZM0.29982 409.144V454.271H45.4273V409.144H0.29982Z" fill-rule="evenodd"/></g><g id="change5_1"><path fill="#63000c" d="M363.568 0.148438H408.996V45.5757H363.568V0.148438Z"/></g><g id="change5_2"><path fill="#63000c" clip-rule="evenodd" d="M363.418 0H409.145V45.7271H363.418V0ZM363.718 0.29982V45.4273H408.845V0.29982H363.718Z" fill-rule="evenodd"/></g><g id="change5_3"><path fill="#63000c" d="M408.996 0.148438H454.423V45.5757H408.996V0.148438Z"/></g><g id="change5_4"><path fill="#63000c" clip-rule="evenodd" d="M408.846 0H454.573V45.7271H408.846V0ZM409.146 0.29982V45.4273H454.273V0.29982H409.146Z" fill-rule="evenodd"/></g><g id="change5_5"><path fill="#63000c" d="M454.423 0.148438H499.85V45.5757H454.423V0.148438Z"/></g><g id="change5_6"><path fill="#63000c" clip-rule="evenodd" d="M454.273 0H500V45.7271H454.273V0ZM454.573 0.29982V45.4273H499.7V0.29982H454.573Z" fill-rule="evenodd"/></g><g id="change5_7"><path fill="#63000c" d="M454.423 45.5781H499.85V91.0054H454.423V45.5781Z"/></g><g id="change5_8"><path fill="#63000c" clip-rule="evenodd" d="M454.273 45.4258H500V91.1529H454.273V45.4258ZM454.573 45.7256V90.8531H499.7V45.7256H454.573Z" fill-rule="evenodd"/></g><g id="change5_9"><path fill="#63000c" d="M454.423 91.0039H499.85V136.431H454.423V91.0039Z"/></g><g id="change5_10"><path fill="#63000c" clip-rule="evenodd" d="M454.273 90.8555H500V136.583H454.273V90.8555ZM454.573 91.1553V136.283H499.7V91.1553H454.573Z" fill-rule="evenodd"/></g><g id="change5_11"><path fill="#63000c" d="M408.996 136.43H454.423V181.857H408.996V136.43Z"/></g><g id="change5_12"><path fill="#63000c" clip-rule="evenodd" d="M408.846 136.281H454.573V182.008H408.846V136.281ZM409.146 136.581V181.709H454.273V136.581H409.146Z" fill-rule="evenodd"/></g><g id="change5_13"><path fill="#63000c" d="M318.141 45.5781H363.568V91.0054H318.141V45.5781Z"/></g><g id="change5_14"><path fill="#63000c" clip-rule="evenodd" d="M317.991 45.4258H363.718V91.1529H317.991V45.4258ZM318.291 45.7256V90.8531H363.418V45.7256H318.291Z" fill-rule="evenodd"/></g><g id="change5_15"><path fill="#63000c" d="M363.568 181.859H408.996V227.287H363.568V181.859Z"/></g><g id="change5_16"><path fill="#63000c" clip-rule="evenodd" d="M363.418 181.711H409.145V227.438H363.418V181.711ZM363.718 182.011V227.138H408.845V182.011H363.718Z" fill-rule="evenodd"/></g><g id="change5_17"><path fill="#63000c" d="M318.141 227.285H363.568V272.712H318.141V227.285Z"/></g><g id="change5_18"><path fill="#63000c" clip-rule="evenodd" d="M317.991 227.137H363.718V272.864H317.991V227.137ZM318.291 227.437V272.564H363.418V227.437H318.291Z" fill-rule="evenodd"/></g><g id="change5_19"><path fill="#63000c" d="M272.714 91.0039H318.141V136.431H272.714V91.0039Z"/></g><g id="change5_20"><path fill="#63000c" clip-rule="evenodd" d="M272.563 90.8555H318.291V136.583H272.563V90.8555ZM272.863 91.1553V136.283H317.991V91.1553H272.863Z" fill-rule="evenodd"/></g><g id="change5_21"><path fill="#63000c" d="M227.286 136.43H272.713V181.857H227.286V136.43Z"/></g><g id="change5_22"><path fill="#63000c" clip-rule="evenodd" d="M227.137 136.281H272.864V182.008H227.137V136.281ZM227.437 136.581V181.709H272.564V136.581H227.437Z" fill-rule="evenodd"/></g><g id="change5_23"><path fill="#63000c" d="M272.714 272.715H318.141V318.142H272.714V272.715Z"/></g><g id="change5_24"><path fill="#63000c" clip-rule="evenodd" d="M272.563 272.562H318.291V318.29H272.563V272.562ZM272.863 272.862V317.99H317.991V272.862H272.863Z" fill-rule="evenodd"/></g><g id="change5_25"><path fill="#63000c" d="M181.859 181.859H227.287V227.287H181.859V181.859Z"/></g><g id="change5_26"><path fill="#63000c" clip-rule="evenodd" d="M181.709 181.711H227.436V227.438H181.709V181.711ZM182.009 182.011V227.138H227.136V182.011H182.009Z" fill-rule="evenodd"/></g><g id="change5_27"><path fill="#63000c" d="M227.286 318.141H272.713V363.568H227.286V318.141Z"/></g><g id="change5_28"><path fill="#63000c" clip-rule="evenodd" d="M227.137 317.992H272.864V363.719H227.137V317.992ZM227.437 318.292V363.419H272.564V318.292H227.437Z" fill-rule="evenodd"/></g><g id="change5_29"><path fill="#63000c" d="M181.859 318.141H227.287V363.568H181.859V318.141Z"/></g><g id="change5_30"><path fill="#63000c" clip-rule="evenodd" d="M181.709 317.992H227.436V363.719H181.709V317.992ZM182.009 318.292V363.419H227.136V318.292H182.009Z" fill-rule="evenodd"/></g><g id="change5_31"><path fill="#63000c" d="M136.432 272.715H181.859V318.142H136.432V272.715Z"/></g><g id="change5_32"><path fill="#63000c" clip-rule="evenodd" d="M136.282 272.562H182.009V318.29H136.282V272.562ZM136.582 272.862V317.99H181.709V272.862H136.582Z" fill-rule="evenodd"/></g><g id="change5_33"><path fill="#63000c" d="M136.432 227.285H181.859V272.712H136.432V227.285Z"/></g><g id="change5_34"><path fill="#63000c" clip-rule="evenodd" d="M136.282 227.137H182.009V272.864H136.282V227.137ZM136.582 227.437V272.564H181.709V227.437H136.582Z" fill-rule="evenodd"/></g><g id="change5_35"><path fill="#63000c" d="M91.0044 181.859H136.432V227.287H91.0044V181.859Z"/></g><g id="change5_36"><path fill="#63000c" clip-rule="evenodd" d="M90.8545 181.711H136.582V227.438H90.8545V181.711ZM91.1543 182.011V227.138H136.282V182.011H91.1543Z" fill-rule="evenodd"/></g><g id="change5_37"><path fill="#63000c" d="M45.5771 181.859H91.0044V227.287H45.5771V181.859Z"/></g><g id="change5_38"><path fill="#63000c" clip-rule="evenodd" d="M45.4272 181.711H91.1544V227.438H45.4272V181.711ZM45.7271 182.011V227.138H90.8545V182.011H45.7271Z" fill-rule="evenodd"/></g><g id="change5_39"><path fill="#63000c" d="M45.5771 227.285H91.0044V272.712H45.5771V227.285Z"/></g><g id="change5_40"><path fill="#63000c" clip-rule="evenodd" d="M45.4272 227.137H91.1544V272.864H45.4272V227.137ZM45.7271 227.437V272.564H90.8545V227.437H45.7271Z" fill-rule="evenodd"/></g><g id="change5_41"><path fill="#63000c" d="M45.5771 272.715H91.0044V318.142H45.5771V272.715Z"/></g><g id="change5_42"><path fill="#63000c" clip-rule="evenodd" d="M45.4272 272.562H91.1544V318.29H45.4272V272.562ZM45.7271 272.862V317.99H90.8545V272.862H45.7271Z" fill-rule="evenodd"/></g><g id="change5_43"><path fill="#63000c" d="M136.432 363.566H181.859V408.994H136.432V363.566Z"/></g><g id="change5_44"><path fill="#63000c" clip-rule="evenodd" d="M136.282 363.418H182.009V409.145H136.282V363.418ZM136.582 363.718V408.845H181.709V363.718H136.582Z" fill-rule="evenodd"/></g><g id="change5_45"><path fill="#63000c" d="M91.0044 318.141H136.432V363.568H91.0044V318.141Z"/></g><g id="change5_46"><path fill="#63000c" clip-rule="evenodd" d="M90.8545 317.992H136.582V363.719H90.8545V317.992ZM91.1543 318.292V363.419H136.282V318.292H91.1543Z" fill-rule="evenodd"/></g><g id="change5_47"><path fill="#63000c" d="M272.714 363.566H318.141V408.994H272.714V363.566Z"/></g><g id="change5_48"><path fill="#63000c" clip-rule="evenodd" d="M272.563 363.418H318.291V409.145H272.563V363.418ZM272.863 363.718V408.845H317.991V363.718H272.863Z" fill-rule="evenodd"/></g><g id="change5_49"><path fill="#63000c" d="M272.714 408.996H318.141V454.423H272.714V408.996Z"/></g><g id="change5_50"><path fill="#63000c" clip-rule="evenodd" d="M272.563 408.844H318.291V454.571H272.563V408.844ZM272.863 409.144V454.271H317.991V409.144H272.863Z" fill-rule="evenodd"/></g><g id="change5_51"><path fill="#63000c" d="M227.286 408.996H272.713V454.423H227.286V408.996Z"/></g><g id="change5_52"><path fill="#63000c" clip-rule="evenodd" d="M227.137 408.844H272.864V454.571H227.137V408.844ZM227.437 409.144V454.271H272.564V409.144H227.437Z" fill-rule="evenodd"/></g><g id="change5_53"><path fill="#63000c" d="M181.859 408.996H227.287V454.423H181.859V408.996Z"/></g><g id="change5_54"><path fill="#63000c" clip-rule="evenodd" d="M181.709 408.844H227.436V454.571H181.709V408.844ZM182.009 409.144V454.271H227.136V409.144H182.009Z" fill-rule="evenodd"/></g><g id="change3_11"><path fill="#bd293a" d="M227.286 181.859H272.713V227.287H227.286V181.859Z"/></g><g id="change3_12"><path fill="#bd293a" d="M408.996 91.0039H454.423V136.431H408.996V91.0039Z"/></g><g id="change3_13"><path fill="#bd293a" d="M363.568 45.5781H408.996V91.0054H363.568V45.5781Z"/></g><g id="change3_14"><path fill="#bd293a" d="M318.141 91.0039H363.568V136.431H318.141V91.0039Z"/></g><g id="change3_15"><path fill="#bd293a" d="M363.568 136.43H408.996V181.857H363.568V136.43Z"/></g><g id="change3_16"><path fill="#bd293a" d="M318.141 181.859H363.568V227.287H318.141V181.859Z"/></g><g id="change3_17"><path fill="#bd293a" d="M272.714 136.43H318.141V181.857H272.714V136.43Z"/></g><g id="change3_18"><path fill="#bd293a" d="M272.714 227.285H318.141V272.712H272.714V227.285Z"/></g><g id="change3_19"><path fill="#bd293a" d="M227.286 272.715H272.713V318.142H227.286V272.715Z"/></g><g id="change3_20"><path fill="#bd293a" d="M181.859 227.285H227.287V272.712H181.859V227.285Z"/></g><g id="change2_12"><path fill="#941222" d="M181.859 272.715H227.287V318.142H181.859V272.715Z"/></g><g id="change2_13"><path fill="#941222" d="M408.996 45.5781H454.423V91.0054H408.996V45.5781Z"/></g><g id="change2_14"><path fill="#941222" d="M363.568 91.0039H408.996V136.431H363.568V91.0039Z"/></g><g id="change2_15"><path fill="#941222" d="M318.141 136.43H363.568V181.857H318.141V136.43Z"/></g><g id="change2_16"><path fill="#941222" d="M272.714 181.859H318.141V227.287H272.714V181.859Z"/></g><g id="change2_17"><path fill="#941222" d="M227.286 227.285H272.713V272.712H227.286V227.285Z"/></g><g id="change2_18"><path fill="#941222" d="M227.286 363.566H272.713V408.994H227.286V363.566Z"/></g><g id="change2_19"><path fill="#941222" d="M181.859 363.566H227.287V408.994H181.859V363.566Z"/></g><g id="change2_20"><path fill="#941222" d="M91.0044 272.715H136.432V318.142H91.0044V272.715Z"/></g><g id="change2_21"><path fill="#941222" d="M91.0044 227.285H136.432V272.712H91.0044V227.285Z"/></g><g id="change2_22"><path fill="#941222" d="M136.432 318.141H181.859V363.568H136.432V318.141Z"/></g></svg>